<ttFont>
    <TTGlyph name=".notdef" xMin="66" yMin="247" xMax="168" yMax="363">
      <contour>
        <pt x="168" y="247" on="1"/>
        <pt x="66" y="247" on="1"/>
        <pt x="66" y="363" on="1"/>
        <pt x="168" y="363" on="1"/>
      </contour>
    </TTGlyph>
    <TTGlyph name="A" xMin="6" yMin="0" xMax="614" yMax="700">
      <contour>
        <pt x="614" y="0" on="1"/>
        <pt x="502" y="0" on="1"/>
        <pt x="438" y="182" on="1"/>
        <pt x="182" y="182" on="1"/>
        <pt x="117" y="0" on="1"/>
        <pt x="6" y="0" on="1"/>
        <pt x="256" y="700" on="1"/>
        <pt x="363" y="700" on="1"/>
      </contour>
      <contour>
        <pt x="403" y="281" on="1"/>
        <pt x="310" y="543" on="1"/>
        <pt x="217" y="281" on="1"/>
      </contour>
    </TTGlyph>
    <TTGlyph name="A.sc" xMin="6" yMin="0" xMax="535" yMax="567">
      <contour>
        <pt x="535" y="0" on="1"/>
        <pt x="427" y="0" on="1"/>
        <pt x="374" y="138" on="1"/>
        <pt x="167" y="138" on="1"/>
        <pt x="114" y="0" on="1"/>
        <pt x="6" y="0" on="1"/>
        <pt x="220" y="567" on="1"/>
        <pt x="321" y="567" on="1"/>
      </contour>
      <contour>
        <pt x="339" y="237" on="1"/>
        <pt x="270" y="406" on="1"/>
        <pt x="202" y="237" on="1"/>
      </contour>
    </TTGlyph>
    <TTGlyph name="AE" xMin="-8" yMin="0" xMax="830" yMax="700">
      <contour>
        <pt x="830" y="0" on="1"/>
        <pt x="394" y="0" on="1"/>
        <pt x="394" y="176" on="1"/>
        <pt x="187" y="176" on="1"/>
        <pt x="99" y="0" on="1"/>
        <pt x="-8" y="0" on="1"/>
        <pt x="334" y="700" on="1"/>
        <pt x="820" y="700" on="1"/>
        <pt x="820" y="600" on="1"/>
        <pt x="514" y="600" on="1"/>
        <pt x="514" y="415" on="1"/>
        <pt x="750" y="415" on="1"/>
        <pt x="750" y="316" on="1"/>
        <pt x="514" y="316" on="1"/>
        <pt x="514" y="99" on="1"/>
        <pt x="830" y="99" on="1"/>
      </contour>
      <contour>
        <pt x="394" y="279" on="1"/>
        <pt x="394" y="598" on="1"/>
        <pt x="235" y="279" on="1"/>
      </contour>
    </TTGlyph>
    <TTGlyph name="AE.sc" xMin="-9" yMin="0" xMax="716" yMax="567">
      <contour>
        <pt x="716" y="0" on="1"/>
        <pt x="341" y="0" on="1"/>
        <pt x="341" y="137" on="1"/>
        <pt x="170" y="137" on="1"/>
        <pt x="98" y="0" on="1"/>
        <pt x="-9" y="0" on="1"/>
        <pt x="285" y="567" on="1"/>
        <pt x="708" y="567" on="1"/>
        <pt x="708" y="468" on="1"/>
        <pt x="450" y="468" on="1"/>
        <pt x="450" y="345" on="1"/>
        <pt x="649" y="345" on="1"/>
        <pt x="649" y="246" on="1"/>
        <pt x="450" y="246" on="1"/>
        <pt x="450" y="99" on="1"/>
        <pt x="716" y="99" on="1"/>
      </contour>
      <contour>
        <pt x="341" y="237" on="1"/>
        <pt x="341" y="466" on="1"/>
        <pt x="217" y="237" on="1"/>
      </contour>
    </TTGlyph>
    <TTGlyph name="Aacute" xMin="6" yMin="0" xMax="614" yMax="945">
      <component glyphName="A" x="0" y="0" flags="0x204"/>
      <component glyphName="acute" x="159" y="207" flags="0x4"/>
    </TTGlyph>
    <TTGlyph name="Acircumflex" xMin="6" yMin="0" xMax="614" yMax="954">
      <component glyphName="A" x="0" y="0" flags="0x204"/>
      <component glyphName="circumflex" x="86" y="207" flags="0x4"/>
    </TTGlyph>
    <TTGlyph name="Adieresis" xMin="6" yMin="0" xMax="614" yMax="907">
      <component glyphName="A" x="0" y="0" flags="0x204"/>
      <component glyphName="dieresis" x="99" y="207" flags="0x4"/>
    </TTGlyph>
    <TTGlyph name="Agrave" xMin="6" yMin="0" xMax="614" yMax="945">
      <component glyphName="A" x="0" y="0" flags="0x204"/>
      <component glyphName="grave" x="159" y="207" flags="0x4"/>
    </TTGlyph>
    <TTGlyph name="Aring" xMin="6" yMin="0" xMax="614" yMax="962">
      <component glyphName="A" x="0" y="0" flags="0x204"/>
      <component glyphName="ring" x="164" y="207" flags="0x4"/>
    </TTGlyph>
    <TTGlyph name="Atilde" xMin="6" yMin="0" xMax="614" yMax="916">
      <component glyphName="A" x="0" y="0" flags="0x204"/>
      <component glyphName="tilde" x="46" y="207" flags="0x4"/>
    </TTGlyph>
    <TTGlyph name="B" xMin="79" yMin="0" xMax="574" yMax="700">
      <contour>
        <pt x="329" y="0" on="1"/>
        <pt x="79" y="0" on="1"/>
        <pt x="79" y="700" on="1"/>
        <pt x="248" y="700" on="1"/>
        <pt x="313" y="700" on="0"/>
        <pt x="412" y="686" on="0"/>
        <pt x="479" y="647" on="0"/>
        <pt x="513" y="579" on="0"/>
        <pt x="513" y="525" on="1"/>
        <pt x="513" y="475" on="0"/>
        <pt x="490" y="407" on="0"/>
        <pt x="455" y="373" on="1"/>
        <pt x="519" y="349" on="0"/>
        <pt x="574" y="270" on="0"/>
        <pt x="574" y="207" on="1"/>
        <pt x="574" y="0" on="0"/>
      </contour>
      <contour>
        <pt x="283" y="607" on="1"/>
        <pt x="185" y="607" on="1"/>
        <pt x="185" y="412" on="1"/>
        <pt x="306" y="412" on="1"/>
        <pt x="325" y="412" on="0"/>
        <pt x="361" y="418" on="0"/>
        <pt x="390" y="439" on="0"/>
        <pt x="408" y="479" on="0"/>
        <pt x="408" y="513" on="1"/>
        <pt x="408" y="570" on="0"/>
        <pt x="346" y="607" on="0"/>
      </contour>
      <contour>
        <pt x="328" y="321" on="1"/>
        <pt x="185" y="321" on="1"/>
        <pt x="185" y="94" on="1"/>
        <pt x="293" y="94" on="1"/>
        <pt x="380" y="94" on="0"/>
        <pt x="464" y="138" on="0"/>
        <pt x="464" y="204" on="1"/>
        <pt x="464" y="321" on="0"/>
      </contour>
    </TTGlyph>
    <TTGlyph name="B.sc" xMin="72" yMin="0" xMax="511" yMax="567">
      <contour>
        <pt x="298" y="0" on="1"/>
        <pt x="72" y="0" on="1"/>
        <pt x="72" y="567" on="1"/>
        <pt x="228" y="567" on="1"/>
        <pt x="280" y="567" on="0"/>
        <pt x="365" y="557" on="0"/>
        <pt x="425" y="526" on="0"/>
        <pt x="458" y="468" on="0"/>
        <pt x="458" y="421" on="1"/>
        <pt x="458" y="341" on="0"/>
        <pt x="408" y="303" on="1"/>
        <pt x="462" y="284" on="0"/>
        <pt x="511" y="221" on="0"/>
        <pt x="511" y="167" on="1"/>
        <pt x="511" y="117" on="0"/>
        <pt x="473" y="53" on="0"/>
        <pt x="411" y="15" on="0"/>
        <pt x="335" y="0" on="0"/>
      </contour>
      <contour>
        <pt x="268" y="480" on="1"/>
        <pt x="175" y="480" on="1"/>
        <pt x="175" y="339" on="1"/>
        <pt x="281" y="339" on="1"/>
        <pt x="360" y="339" on="0"/>
        <pt x="360" y="406" on="1"/>
        <pt x="360" y="448" on="0"/>
        <pt x="313" y="480" on="0"/>
      </contour>
      <contour>
        <pt x="292" y="258" on="1"/>
        <pt x="175" y="258" on="1"/>
        <pt x="175" y="88" on="1"/>
        <pt x="279" y="88" on="1"/>
        <pt x="342" y="88" on="0"/>
        <pt x="404" y="126" on="0"/>
        <pt x="404" y="172" on="1"/>
        <pt x="404" y="258" on="0"/>
      </contour>
    </TTGlyph>
    <TTGlyph name="C" xMin="37" yMin="-14" xMax="581" yMax="714">
      <contour>
        <pt x="386" y="-14" on="1"/>
        <pt x="309" y="-14" on="0"/>
        <pt x="181" y="39" on="0"/>
        <pt x="89" y="135" on="0"/>
        <pt x="37" y="269" on="0"/>
        <pt x="37" y="350" on="1"/>
        <pt x="37" y="431" on="0"/>
        <pt x="88" y="565" on="0"/>
        <pt x="181" y="661" on="0"/>
        <pt x="308" y="714" on="0"/>
        <pt x="385" y="714" on="1"/>
        <pt x="496" y="714" on="0"/>
        <pt x="581" y="673" on="1"/>
        <pt x="570" y="573" on="1"/>
        <pt x="457" y="615" on="0"/>
        <pt x="385" y="615" on="1"/>
        <pt x="330" y="615" on="0"/>
        <pt x="244" y="576" on="0"/>
        <pt x="184" y="505" on="0"/>
        <pt x="153" y="408" on="0"/>
        <pt x="153" y="350" on="1"/>
        <pt x="153" y="292" on="0"/>
        <pt x="184" y="195" on="0"/>
        <pt x="244" y="124" on="0"/>
        <pt x="331" y="85" on="0"/>
        <pt x="387" y="85" on="1"/>
        <pt x="459" y="85" on="0"/>
        <pt x="570" y="126" on="1"/>
        <pt x="581" y="26" on="1"/>
        <pt x="494" y="-14" on="0"/>
      </contour>
    </TTGlyph>
    <TTGlyph name="C.sc" xMin="38" yMin="-11" xMax="506" yMax="579">
      <contour>
        <pt x="336" y="-11" on="1"/>
        <pt x="271" y="-11" on="0"/>
        <pt x="162" y="31" on="0"/>
        <pt x="82" y="108" on="0"/>
        <pt x="38" y="217" on="0"/>
        <pt x="38" y="284" on="1"/>
        <pt x="38" y="350" on="0"/>
        <pt x="83" y="459" on="0"/>
        <pt x="162" y="536" on="0"/>
        <pt x="271" y="579" on="0"/>
        <pt x="336" y="579" on="1"/>
        <pt x="437" y="579" on="0"/>
        <pt x="506" y="545" on="1"/>
        <pt x="495" y="448" on="1"/>
        <pt x="405" y="480" on="0"/>
        <pt x="336" y="480" on="1"/>
        <pt x="246" y="480" on="0"/>
        <pt x="152" y="372" on="0"/>
        <pt x="152" y="284" on="1"/>
        <pt x="152" y="194" on="0"/>
        <pt x="247" y="87" on="0"/>
        <pt x="337" y="87" on="1"/>
        <pt x="405" y="87" on="0"/>
        <pt x="495" y="119" on="1"/>
        <pt x="506" y="22" on="1"/>
        <pt x="435" y="-11" on="0"/>
      </contour>
    </TTGlyph>
    <TTGlyph name="Ccaron" xMin="37" yMin="-14" xMax="581" yMax="950">
      <component glyphName="C" x="0" y="0" flags="0x204"/>
      <component glyphName="caron" x="165" y="207" flags="0x4"/>
    </TTGlyph>
    <TTGlyph name="Ccedilla" xMin="37" yMin="-193" xMax="581" yMax="714">
      <component glyphName="C" x="0" y="0" flags="0x204"/>
      <component glyphName="cedilla" x="93" y="0" flags="0x4"/>
    </TTGlyph>
    <TTGlyph name="D" xMin="79" yMin="0" xMax="686" yMax="700">
      <contour>
        <pt x="339" y="0" on="1"/>
        <pt x="79" y="0" on="1"/>
        <pt x="79" y="700" on="1"/>
        <pt x="339" y="700" on="1"/>
        <pt x="415" y="700" on="0"/>
        <pt x="543" y="652" on="0"/>
        <pt x="635" y="562" on="0"/>
        <pt x="686" y="432" on="0"/>
        <pt x="686" y="350" on="1"/>
        <pt x="686" y="269" on="0"/>
        <pt x="635" y="139" on="0"/>
        <pt x="544" y="48" on="0"/>
        <pt x="416" y="0" on="0"/>
      </contour>
      <contour>
        <pt x="339" y="601" on="1"/>
        <pt x="185" y="601" on="1"/>
        <pt x="185" y="99" on="1"/>
        <pt x="339" y="99" on="1"/>
        <pt x="451" y="99" on="0"/>
        <pt x="570" y="233" on="0"/>
        <pt x="570" y="350" on="1"/>
        <pt x="570" y="467" on="0"/>
        <pt x="451" y="601" on="0"/>
      </contour>
    </TTGlyph>
    <TTGlyph name="D.sc" xMin="72" yMin="0" xMax="594" yMax="567">
      <contour>
        <pt x="297" y="0" on="1"/>
        <pt x="72" y="0" on="1"/>
        <pt x="72" y="567" on="1"/>
        <pt x="297" y="567" on="1"/>
        <pt x="362" y="567" on="0"/>
        <pt x="471" y="527" on="0"/>
        <pt x="550" y="454" on="0"/>
        <pt x="594" y="349" on="0"/>
        <pt x="594" y="284" on="1"/>
        <pt x="594" y="218" on="0"/>
        <pt x="550" y="113" on="0"/>
        <pt x="471" y="39" on="0"/>
        <pt x="362" y="0" on="0"/>
      </contour>
      <contour>
        <pt x="297" y="469" on="1"/>
        <pt x="175" y="469" on="1"/>
        <pt x="175" y="99" on="1"/>
        <pt x="297" y="99" on="1"/>
        <pt x="388" y="99" on="0"/>
        <pt x="481" y="196" on="0"/>
        <pt x="481" y="284" on="1"/>
        <pt x="481" y="372" on="0"/>
        <pt x="388" y="469" on="0"/>
      </contour>
    </TTGlyph>
    <TTGlyph name="E" xMin="79" yMin="0" xMax="523" yMax="700">
      <contour>
        <pt x="523" y="0" on="1"/>
        <pt x="79" y="0" on="1"/>
        <pt x="79" y="700" on="1"/>
        <pt x="513" y="700" on="1"/>
        <pt x="513" y="601" on="1"/>
        <pt x="186" y="601" on="1"/>
        <pt x="186" y="415" on="1"/>
        <pt x="444" y="415" on="1"/>
        <pt x="444" y="316" on="1"/>
        <pt x="186" y="316" on="1"/>
        <pt x="186" y="99" on="1"/>
        <pt x="523" y="99" on="1"/>
      </contour>
    </TTGlyph>
    <TTGlyph name="E.sc" xMin="72" yMin="0" xMax="462" yMax="567">
      <contour>
        <pt x="462" y="0" on="1"/>
        <pt x="72" y="0" on="1"/>
        <pt x="72" y="567" on="1"/>
        <pt x="453" y="567" on="1"/>
        <pt x="453" y="468" on="1"/>
        <pt x="178" y="468" on="1"/>
        <pt x="178" y="345" on="1"/>
        <pt x="393" y="345" on="1"/>
        <pt x="393" y="246" on="1"/>
        <pt x="178" y="246" on="1"/>
        <pt x="178" y="99" on="1"/>
        <pt x="462" y="99" on="1"/>
      </contour>
    </TTGlyph>
    <TTGlyph name="Eacute" xMin="79" yMin="0" xMax="523" yMax="945">
      <component glyphName="E" x="0" y="0" flags="0x204"/>
      <component glyphName="acute" x="125" y="207" flags="0x4"/>
    </TTGlyph>
    <TTGlyph name="Ecircumflex" xMin="79" yMin="0" xMax="523" yMax="954">
      <component glyphName="E" x="0" y="0" flags="0x204"/>
      <component glyphName="circumflex" x="52" y="207" flags="0x4"/>
    </TTGlyph>
    <TTGlyph name="Edieresis" xMin="79" yMin="0" xMax="523" yMax="907">
      <component glyphName="E" x="0" y="0" flags="0x204"/>
      <component glyphName="dieresis" x="64" y="207" flags="0x4"/>
    </TTGlyph>
    <TTGlyph name="Egrave" xMin="79" yMin="0" xMax="523" yMax="945">
      <component glyphName="E" x="0" y="0" flags="0x204"/>
      <component glyphName="grave" x="125" y="207" flags="0x4"/>
    </TTGlyph>
    <TTGlyph name="Eth" xMin="-7" yMin="0" xMax="691" yMax="700">
      <contour>
        <pt x="346" y="0" on="1"/>
        <pt x="88" y="0" on="1"/>
        <pt x="88" y="308" on="1"/>
        <pt x="-7" y="308" on="1"/>
        <pt x="-7" y="383" on="1"/>
        <pt x="88" y="383" on="1"/>
        <pt x="88" y="700" on="1"/>
        <pt x="346" y="700" on="1"/>
        <pt x="422" y="700" on="0"/>
        <pt x="549" y="651" on="0"/>
        <pt x="641" y="561" on="0"/>
        <pt x="691" y="431" on="0"/>
        <pt x="691" y="350" on="1"/>
        <pt x="691" y="269" on="0"/>
        <pt x="641" y="140" on="0"/>
        <pt x="551" y="49" on="0"/>
        <pt x="424" y="0" on="0"/>
      </contour>
      <contour>
        <pt x="346" y="601" on="1"/>
        <pt x="191" y="601" on="1"/>
        <pt x="191" y="383" on="1"/>
        <pt x="320" y="383" on="1"/>
        <pt x="320" y="308" on="1"/>
        <pt x="191" y="308" on="1"/>
        <pt x="191" y="99" on="1"/>
        <pt x="346" y="99" on="1"/>
        <pt x="458" y="99" on="0"/>
        <pt x="576" y="232" on="0"/>
        <pt x="576" y="350" on="1"/>
        <pt x="576" y="468" on="0"/>
        <pt x="458" y="601" on="0"/>
      </contour>
    </TTGlyph>
    <TTGlyph name="Euro" xMin="31" yMin="17" xMax="645" yMax="683">
      <contour>
        <pt x="468" y="17" on="1"/>
        <pt x="366" y="17" on="0"/>
        <pt x="211" y="119" on="0"/>
        <pt x="173" y="213" on="1"/>
        <pt x="31" y="213" on="1"/>
        <pt x="57" y="288" on="1"/>
        <pt x="153" y="288" on="1"/>
        <pt x="151" y="306" on="0"/>
        <pt x="150" y="342" on="0"/>
        <pt x="150" y="365" on="1"/>
        <pt x="58" y="365" on="1"/>
        <pt x="84" y="440" on="1"/>
        <pt x="159" y="440" on="1"/>
        <pt x="173" y="497" on="0"/>
        <pt x="231" y="587" on="0"/>
        <pt x="311" y="650" on="0"/>
        <pt x="411" y="683" on="0"/>
        <pt x="468" y="683" on="1"/>
        <pt x="515" y="683" on="0"/>
        <pt x="607" y="666" on="0"/>
        <pt x="645" y="648" on="1"/>
        <pt x="633" y="545" on="1"/>
        <pt x="593" y="562" on="0"/>
        <pt x="516" y="583" on="0"/>
        <pt x="468" y="583" on="1"/>
        <pt x="393" y="583" on="0"/>
        <pt x="302" y="508" on="0"/>
        <pt x="282" y="440" on="1"/>
        <pt x="537" y="440" on="1"/>
        <pt x="509" y="365" on="1"/>
        <pt x="271" y="365" on="1"/>
        <pt x="271" y="348" on="0"/>
        <pt x="272" y="299" on="0"/>
        <pt x="275" y="288" on="1"/>
        <pt x="518" y="288" on="1"/>
        <pt x="492" y="213" on="1"/>
        <pt x="299" y="213" on="1"/>
        <pt x="327" y="164" on="0"/>
        <pt x="409" y="117" on="0"/>
        <pt x="468" y="117" on="1"/>
        <pt x="516" y="117" on="0"/>
        <pt x="593" y="138" on="0"/>
        <pt x="633" y="155" on="1"/>
        <pt x="645" y="52" on="1"/>
        <pt x="607" y="34" on="0"/>
        <pt x="515" y="17" on="0"/>
      </contour>
    </TTGlyph>
    <TTGlyph name="F" xMin="79" yMin="0" xMax="507" yMax="700">
      <contour>
        <pt x="507" y="601" on="1"/>
        <pt x="185" y="601" on="1"/>
        <pt x="185" y="415" on="1"/>
        <pt x="434" y="415" on="1"/>
        <pt x="434" y="316" on="1"/>
        <pt x="185" y="316" on="1"/>
        <pt x="185" y="0" on="1"/>
        <pt x="79" y="0" on="1"/>
        <pt x="79" y="700" on="1"/>
        <pt x="507" y="700" on="1"/>
      </contour>
    </TTGlyph>
    <TTGlyph name="F.sc" xMin="72" yMin="0" xMax="442" yMax="567">
      <contour>
        <pt x="442" y="468" on="1"/>
        <pt x="175" y="468" on="1"/>
        <pt x="175" y="345" on="1"/>
        <pt x="382" y="345" on="1"/>
        <pt x="382" y="246" on="1"/>
        <pt x="175" y="246" on="1"/>
        <pt x="175" y="0" on="1"/>
        <pt x="72" y="0" on="1"/>
        <pt x="72" y="567" on="1"/>
        <pt x="442" y="567" on="1"/>
      </contour>
    </TTGlyph>
    <TTGlyph name="G" xMin="38" yMin="-14" xMax="620" yMax="714">
      <contour>
        <pt x="381" y="-14" on="1"/>
        <pt x="307" y="-14" on="0"/>
        <pt x="181" y="39" on="0"/>
        <pt x="89" y="135" on="0"/>
        <pt x="38" y="269" on="0"/>
        <pt x="38" y="351" on="1"/>
        <pt x="38" y="433" on="0"/>
        <pt x="90" y="567" on="0"/>
        <pt x="183" y="662" on="0"/>
        <pt x="311" y="714" on="0"/>
        <pt x="388" y="714" on="1"/>
        <pt x="508" y="714" on="0"/>
        <pt x="597" y="674" on="1"/>
        <pt x="586" y="577" on="1"/>
        <pt x="484" y="615" on="0"/>
        <pt x="391" y="615" on="1"/>
        <pt x="333" y="615" on="0"/>
        <pt x="244" y="576" on="0"/>
        <pt x="184" y="506" on="0"/>
        <pt x="154" y="409" on="0"/>
        <pt x="154" y="351" on="1"/>
        <pt x="154" y="291" on="0"/>
        <pt x="186" y="193" on="0"/>
        <pt x="249" y="123" on="0"/>
        <pt x="343" y="85" on="0"/>
        <pt x="404" y="85" on="1"/>
        <pt x="467" y="85" on="0"/>
        <pt x="514" y="101" on="1"/>
        <pt x="514" y="258" on="1"/>
        <pt x="415" y="258" on="1"/>
        <pt x="415" y="351" on="1"/>
        <pt x="620" y="351" on="1"/>
        <pt x="620" y="39" on="1"/>
        <pt x="601" y="28" on="0"/>
        <pt x="542" y="9" on="0"/>
        <pt x="476" y="-5" on="0"/>
        <pt x="409" y="-14" on="0"/>
      </contour>
    </TTGlyph>
    <TTGlyph name="G.sc" xMin="37" yMin="-11" xMax="538" yMax="579">
      <contour>
        <pt x="332" y="-11" on="1"/>
        <pt x="267" y="-11" on="0"/>
        <pt x="159" y="32" on="0"/>
        <pt x="81" y="110" on="0"/>
        <pt x="37" y="219" on="0"/>
        <pt x="37" y="284" on="1"/>
        <pt x="37" y="350" on="0"/>
        <pt x="82" y="459" on="0"/>
        <pt x="161" y="537" on="0"/>
        <pt x="272" y="579" on="0"/>
        <pt x="338" y="579" on="1"/>
        <pt x="444" y="579" on="0"/>
        <pt x="518" y="546" on="1"/>
        <pt x="507" y="448" on="1"/>
        <pt x="422" y="480" on="0"/>
        <pt x="340" y="480" on="1"/>
        <pt x="246" y="480" on="0"/>
        <pt x="151" y="374" on="0"/>
        <pt x="151" y="286" on="1"/>
        <pt x="151" y="195" on="0"/>
        <pt x="251" y="87" on="0"/>
        <pt x="348" y="87" on="1"/>
        <pt x="395" y="87" on="0"/>
        <pt x="434" y="97" on="1"/>
        <pt x="434" y="199" on="1"/>
        <pt x="361" y="199" on="1"/>
        <pt x="361" y="284" on="1"/>
        <pt x="538" y="284" on="1"/>
        <pt x="538" y="31" on="1"/>
        <pt x="522" y="23" on="0"/>
        <pt x="472" y="8" on="0"/>
        <pt x="415" y="-4" on="0"/>
        <pt x="357" y="-11" on="0"/>
      </contour>
    </TTGlyph>
    <TTGlyph name="H" xMin="79" yMin="0" xMax="665" yMax="700">
      <contour>
        <pt x="665" y="0" on="1"/>
        <pt x="559" y="0" on="1"/>
        <pt x="559" y="315" on="1"/>
        <pt x="185" y="315" on="1"/>
        <pt x="185" y="0" on="1"/>
        <pt x="79" y="0" on="1"/>
        <pt x="79" y="700" on="1"/>
        <pt x="185" y="700" on="1"/>
        <pt x="185" y="417" on="1"/>
        <pt x="559" y="417" on="1"/>
        <pt x="559" y="700" on="1"/>
        <pt x="665" y="700" on="1"/>
      </contour>
    </TTGlyph>
    <TTGlyph name="H.sc" xMin="72" yMin="0" xMax="576" yMax="567">
      <contour>
        <pt x="576" y="0" on="1"/>
        <pt x="473" y="0" on="1"/>
        <pt x="473" y="246" on="1"/>
        <pt x="175" y="246" on="1"/>
        <pt x="175" y="0" on="1"/>
        <pt x="72" y="0" on="1"/>
        <pt x="72" y="567" on="1"/>
        <pt x="175" y="567" on="1"/>
        <pt x="175" y="346" on="1"/>
        <pt x="473" y="346" on="1"/>
        <pt x="473" y="567" on="1"/>
        <pt x="576" y="567" on="1"/>
      </contour>
    </TTGlyph>
    <TTGlyph name="I" xMin="79" yMin="0" xMax="186" yMax="700">
      <contour>
        <pt x="186" y="0" on="1"/>
        <pt x="79" y="0" on="1"/>
        <pt x="79" y="700" on="1"/>
        <pt x="186" y="700" on="1"/>
      </contour>
    </TTGlyph>
    <TTGlyph name="I.sc" xMin="72" yMin="0" xMax="175" yMax="567">
      <contour>
        <pt x="175" y="0" on="1"/>
        <pt x="72" y="0" on="1"/>
        <pt x="72" y="567" on="1"/>
        <pt x="175" y="567" on="1"/>
      </contour>
    </TTGlyph>
    <TTGlyph name="Iacute" xMin="41" yMin="0" xMax="228" yMax="945">
      <component glyphName="I" x="0" y="0" flags="0x204"/>
      <component glyphName="acute" x="-17" y="207" flags="0x4"/>
    </TTGlyph>
    <TTGlyph name="Icircumflex" xMin="-13" yMin="0" xMax="281" yMax="954">
      <component glyphName="I" x="0" y="0" flags="0x204"/>
      <component glyphName="circumflex" x="-89" y="207" flags="0x4"/>
    </TTGlyph>
    <TTGlyph name="Idieresis" xMin="10" yMin="0" xMax="258" yMax="907">
      <component glyphName="I" x="0" y="0" flags="0x204"/>
      <component glyphName="dieresis" x="-77" y="207" flags="0x4"/>
    </TTGlyph>
    <TTGlyph name="Igrave" xMin="41" yMin="0" xMax="228" yMax="945">
      <component glyphName="I" x="0" y="0" flags="0x204"/>
      <component glyphName="grave" x="-17" y="207" flags="0x4"/>
    </TTGlyph>
    <TTGlyph name="J" xMin="-12" yMin="-172" xMax="185" yMax="700">
      <contour>
        <pt x="21" y="-172" on="1"/>
        <pt x="-2" y="-172" on="1"/>
        <pt x="-12" y="-102" on="1"/>
        <pt x="-1" y="-102" on="1"/>
        <pt x="45" y="-102" on="0"/>
        <pt x="79" y="-56" on="0"/>
        <pt x="79" y="-1" on="1"/>
        <pt x="79" y="700" on="1"/>
        <pt x="185" y="700" on="1"/>
        <pt x="185" y="-29" on="1"/>
        <pt x="185" y="-172" on="0"/>
      </contour>
    </TTGlyph>
    <TTGlyph name="J.sc" xMin="0" yMin="-140" xMax="176" yMax="567">
      <contour>
        <pt x="36" y="-140" on="1"/>
        <pt x="9" y="-140" on="1"/>
        <pt x="0" y="-63" on="1"/>
        <pt x="19" y="-63" on="1"/>
        <pt x="49" y="-63" on="0"/>
        <pt x="72" y="-32" on="0"/>
        <pt x="72" y="3" on="1"/>
        <pt x="72" y="567" on="1"/>
        <pt x="176" y="567" on="1"/>
        <pt x="176" y="-20" on="1"/>
        <pt x="176" y="-140" on="0"/>
      </contour>
    </TTGlyph>
    <TTGlyph name="K" xMin="79" yMin="0" xMax="588" yMax="700">
      <contour>
        <pt x="588" y="0" on="1"/>
        <pt x="473" y="0" on="1"/>
        <pt x="219" y="371" on="1"/>
        <pt x="473" y="700" on="1"/>
        <pt x="588" y="700" on="1"/>
        <pt x="334" y="371" on="1"/>
      </contour>
      <contour>
        <pt x="185" y="0" on="1"/>
        <pt x="79" y="0" on="1"/>
        <pt x="79" y="700" on="1"/>
        <pt x="185" y="700" on="1"/>
      </contour>
    </TTGlyph>
    <TTGlyph name="K.sc" xMin="72" yMin="0" xMax="528" yMax="567">
      <contour>
        <pt x="528" y="0" on="1"/>
        <pt x="413" y="0" on="1"/>
        <pt x="200" y="300" on="1"/>
        <pt x="413" y="567" on="1"/>
        <pt x="528" y="567" on="1"/>
        <pt x="315" y="300" on="1"/>
      </contour>
      <contour>
        <pt x="175" y="0" on="1"/>
        <pt x="72" y="0" on="1"/>
        <pt x="72" y="567" on="1"/>
        <pt x="175" y="567" on="1"/>
      </contour>
    </TTGlyph>
    <TTGlyph name="L" xMin="79" yMin="0" xMax="495" yMax="700">
      <contour>
        <pt x="495" y="0" on="1"/>
        <pt x="79" y="0" on="1"/>
        <pt x="79" y="700" on="1"/>
        <pt x="185" y="700" on="1"/>
        <pt x="185" y="99" on="1"/>
        <pt x="495" y="99" on="1"/>
      </contour>
    </TTGlyph>
    <TTGlyph name="L.sc" xMin="72" yMin="0" xMax="430" yMax="567">
      <contour>
        <pt x="430" y="0" on="1"/>
        <pt x="72" y="0" on="1"/>
        <pt x="72" y="567" on="1"/>
        <pt x="175" y="567" on="1"/>
        <pt x="175" y="99" on="1"/>
        <pt x="430" y="99" on="1"/>
      </contour>
    </TTGlyph>
    <TTGlyph name="M" xMin="46" yMin="0" xMax="772" yMax="700">
      <contour>
        <pt x="772" y="0" on="1"/>
        <pt x="660" y="0" on="1"/>
        <pt x="596" y="508" on="1"/>
        <pt x="410" y="159" on="1"/>
        <pt x="221" y="508" on="1"/>
        <pt x="157" y="0" on="1"/>
        <pt x="46" y="0" on="1"/>
        <pt x="141" y="700" on="1"/>
        <pt x="230" y="700" on="1"/>
        <pt x="409" y="363" on="1"/>
        <pt x="587" y="700" on="1"/>
        <pt x="677" y="700" on="1"/>
      </contour>
    </TTGlyph>
    <TTGlyph name="M.sc" xMin="45" yMin="0" xMax="680" yMax="567">
      <contour>
        <pt x="680" y="0" on="1"/>
        <pt x="572" y="0" on="1"/>
        <pt x="519" y="382" on="1"/>
        <pt x="363" y="120" on="1"/>
        <pt x="206" y="381" on="1"/>
        <pt x="153" y="0" on="1"/>
        <pt x="45" y="0" on="1"/>
        <pt x="128" y="567" on="1"/>
        <pt x="213" y="567" on="1"/>
        <pt x="363" y="308" on="1"/>
        <pt x="512" y="567" on="1"/>
        <pt x="597" y="567" on="1"/>
      </contour>
    </TTGlyph>
    <TTGlyph name="N" xMin="79" yMin="0" xMax="626" yMax="700">
      <contour>
        <pt x="626" y="0" on="1"/>
        <pt x="537" y="0" on="1"/>
        <pt x="185" y="528" on="1"/>
        <pt x="185" y="0" on="1"/>
        <pt x="79" y="0" on="1"/>
        <pt x="79" y="700" on="1"/>
        <pt x="190" y="700" on="1"/>
        <pt x="519" y="201" on="1"/>
        <pt x="519" y="700" on="1"/>
        <pt x="626" y="700" on="1"/>
      </contour>
    </TTGlyph>
    <TTGlyph name="N.sc" xMin="72" yMin="0" xMax="546" yMax="567">
      <contour>
        <pt x="546" y="0" on="1"/>
        <pt x="460" y="0" on="1"/>
        <pt x="175" y="392" on="1"/>
        <pt x="175" y="0" on="1"/>
        <pt x="72" y="0" on="1"/>
        <pt x="72" y="567" on="1"/>
        <pt x="176" y="567" on="1"/>
        <pt x="442" y="199" on="1"/>
        <pt x="442" y="567" on="1"/>
        <pt x="546" y="567" on="1"/>
      </contour>
    </TTGlyph>
    <TTGlyph name="Ntilde" xMin="79" yMin="0" xMax="626" yMax="916">
      <component glyphName="N" x="0" y="0" flags="0x204"/>
      <component glyphName="tilde" x="88" y="207" flags="0x4"/>
    </TTGlyph>
    <TTGlyph name="O" xMin="38" yMin="-14" xMax="728" yMax="714">
      <contour>
        <pt x="631" y="86" on="1"/>
        <pt x="535" y="-14" on="0"/>
        <pt x="383" y="-14" on="1"/>
        <pt x="308" y="-14" on="0"/>
        <pt x="181" y="38" on="0"/>
        <pt x="89" y="134" on="0"/>
        <pt x="38" y="268" on="0"/>
        <pt x="38" y="350" on="1"/>
        <pt x="38" y="432" on="0"/>
        <pt x="89" y="566" on="0"/>
        <pt x="181" y="662" on="0"/>
        <pt x="308" y="714" on="0"/>
        <pt x="383" y="714" on="1"/>
        <pt x="459" y="714" on="0"/>
        <pt x="585" y="661" on="0"/>
        <pt x="677" y="565" on="0"/>
        <pt x="728" y="431" on="0"/>
        <pt x="728" y="350" on="1"/>
        <pt x="728" y="186" on="0"/>
      </contour>
      <contour>
        <pt x="552" y="541" on="1"/>
        <pt x="493" y="615" on="0"/>
        <pt x="383" y="615" on="1"/>
        <pt x="328" y="615" on="0"/>
        <pt x="243" y="576" on="0"/>
        <pt x="184" y="505" on="0"/>
        <pt x="154" y="408" on="0"/>
        <pt x="154" y="350" on="1"/>
        <pt x="154" y="291" on="0"/>
        <pt x="184" y="194" on="0"/>
        <pt x="243" y="124" on="0"/>
        <pt x="328" y="85" on="0"/>
        <pt x="383" y="85" on="1"/>
        <pt x="438" y="85" on="0"/>
        <pt x="524" y="125" on="0"/>
        <pt x="582" y="195" on="0"/>
        <pt x="612" y="293" on="0"/>
        <pt x="612" y="350" on="1"/>
        <pt x="612" y="467" on="0"/>
      </contour>
    </TTGlyph>
    <TTGlyph name="O.sc" xMin="38" yMin="-11" xMax="632" yMax="579">
      <contour>
        <pt x="38" y="284" on="1"/>
        <pt x="38" y="350" on="0"/>
        <pt x="83" y="459" on="0"/>
        <pt x="162" y="537" on="0"/>
        <pt x="271" y="579" on="0"/>
        <pt x="335" y="579" on="1"/>
        <pt x="399" y="579" on="0"/>
        <pt x="508" y="536" on="0"/>
        <pt x="588" y="458" on="0"/>
        <pt x="632" y="349" on="0"/>
        <pt x="632" y="284" on="1"/>
        <pt x="632" y="218" on="0"/>
        <pt x="588" y="109" on="0"/>
        <pt x="509" y="32" on="0"/>
        <pt x="400" y="-11" on="0"/>
        <pt x="335" y="-11" on="1"/>
        <pt x="270" y="-11" on="0"/>
        <pt x="162" y="31" on="0"/>
        <pt x="82" y="108" on="0"/>
        <pt x="38" y="217" on="0"/>
      </contour>
      <contour>
        <pt x="152" y="284" on="1"/>
        <pt x="152" y="194" on="0"/>
        <pt x="245" y="87" on="0"/>
        <pt x="335" y="87" on="1"/>
        <pt x="425" y="87" on="0"/>
        <pt x="518" y="194" on="0"/>
        <pt x="518" y="284" on="1"/>
        <pt x="518" y="372" on="0"/>
        <pt x="425" y="480" on="0"/>
        <pt x="335" y="480" on="1"/>
        <pt x="245" y="480" on="0"/>
        <pt x="152" y="372" on="0"/>
      </contour>
    </TTGlyph>
    <TTGlyph name="OE" xMin="38" yMin="-14" xMax="1032" yMax="714">
      <contour>
        <pt x="1032" y="0" on="1"/>
        <pt x="613" y="0" on="1"/>
        <pt x="613" y="73" on="1"/>
        <pt x="497" y="-14" on="0"/>
        <pt x="378" y="-14" on="1"/>
        <pt x="304" y="-14" on="0"/>
        <pt x="179" y="38" on="0"/>
        <pt x="89" y="134" on="0"/>
        <pt x="38" y="268" on="0"/>
        <pt x="38" y="350" on="1"/>
        <pt x="38" y="432" on="0"/>
        <pt x="89" y="566" on="0"/>
        <pt x="179" y="662" on="0"/>
        <pt x="304" y="714" on="0"/>
        <pt x="378" y="714" on="1"/>
        <pt x="497" y="714" on="0"/>
        <pt x="613" y="627" on="1"/>
        <pt x="613" y="699" on="1"/>
        <pt x="1023" y="699" on="1"/>
        <pt x="1023" y="601" on="1"/>
        <pt x="718" y="601" on="1"/>
        <pt x="718" y="415" on="1"/>
        <pt x="952" y="415" on="1"/>
        <pt x="952" y="316" on="1"/>
        <pt x="718" y="316" on="1"/>
        <pt x="718" y="99" on="1"/>
        <pt x="1032" y="99" on="1"/>
      </contour>
      <contour>
        <pt x="545" y="541" on="1"/>
        <pt x="486" y="615" on="0"/>
        <pt x="378" y="615" on="1"/>
        <pt x="323" y="615" on="0"/>
        <pt x="238" y="576" on="0"/>
        <pt x="181" y="505" on="0"/>
        <pt x="152" y="408" on="0"/>
        <pt x="152" y="350" on="1"/>
        <pt x="152" y="291" on="0"/>
        <pt x="181" y="194" on="0"/>
        <pt x="238" y="124" on="0"/>
        <pt x="322" y="85" on="0"/>
        <pt x="378" y="85" on="1"/>
        <pt x="433" y="85" on="0"/>
        <pt x="517" y="124" on="0"/>
        <pt x="574" y="195" on="0"/>
        <pt x="604" y="292" on="0"/>
        <pt x="604" y="350" on="1"/>
        <pt x="604" y="467" on="0"/>
      </contour>
    </TTGlyph>
    <TTGlyph name="OE.sc" xMin="38" yMin="-11" xMax="894" yMax="579">
      <contour>
        <pt x="894" y="0" on="1"/>
        <pt x="523" y="0" on="1"/>
        <pt x="523" y="45" on="1"/>
        <pt x="434" y="-11" on="0"/>
        <pt x="334" y="-11" on="1"/>
        <pt x="269" y="-11" on="0"/>
        <pt x="160" y="31" on="0"/>
        <pt x="82" y="109" on="0"/>
        <pt x="38" y="218" on="0"/>
        <pt x="38" y="284" on="1"/>
        <pt x="38" y="350" on="0"/>
        <pt x="82" y="458" on="0"/>
        <pt x="161" y="536" on="0"/>
        <pt x="269" y="579" on="0"/>
        <pt x="334" y="579" on="1"/>
        <pt x="433" y="579" on="0"/>
        <pt x="523" y="522" on="1"/>
        <pt x="523" y="567" on="1"/>
        <pt x="886" y="567" on="1"/>
        <pt x="886" y="468" on="1"/>
        <pt x="628" y="468" on="1"/>
        <pt x="628" y="345" on="1"/>
        <pt x="827" y="345" on="1"/>
        <pt x="827" y="246" on="1"/>
        <pt x="628" y="246" on="1"/>
        <pt x="628" y="99" on="1"/>
        <pt x="894" y="99" on="1"/>
      </contour>
      <contour>
        <pt x="334" y="480" on="1"/>
        <pt x="244" y="480" on="0"/>
        <pt x="151" y="374" on="0"/>
        <pt x="151" y="284" on="1"/>
        <pt x="151" y="194" on="0"/>
        <pt x="244" y="87" on="0"/>
        <pt x="334" y="87" on="1"/>
        <pt x="422" y="87" on="0"/>
        <pt x="516" y="194" on="0"/>
        <pt x="516" y="284" on="1"/>
        <pt x="516" y="374" on="0"/>
        <pt x="422" y="480" on="0"/>
      </contour>
    </TTGlyph>
    <TTGlyph name="Oacute" xMin="38" yMin="-14" xMax="728" yMax="945">
      <component glyphName="O" x="0" y="0" flags="0x204"/>
      <component glyphName="acute" x="231" y="207" flags="0x4"/>
    </TTGlyph>
    <TTGlyph name="Ocircumflex" xMin="38" yMin="-14" xMax="728" yMax="954">
      <component glyphName="O" x="0" y="0" flags="0x204"/>
      <component glyphName="circumflex" x="160" y="207" flags="0x4"/>
    </TTGlyph>
    <TTGlyph name="Odieresis" xMin="38" yMin="-14" xMax="728" yMax="907">
      <component glyphName="O" x="0" y="0" flags="0x204"/>
      <component glyphName="dieresis" x="172" y="207" flags="0x4"/>
    </TTGlyph>
    <TTGlyph name="Ograve" xMin="38" yMin="-14" xMax="728" yMax="945">
      <component glyphName="O" x="0" y="0" flags="0x204"/>
      <component glyphName="grave" x="231" y="207" flags="0x4"/>
    </TTGlyph>
    <TTGlyph name="Oslash" xMin="38" yMin="-30" xMax="728" yMax="716">
      <contour>
        <pt x="382" y="-13" on="1"/>
        <pt x="296" y="-13" on="0"/>
        <pt x="212" y="28" on="1"/>
        <pt x="172" y="-30" on="1"/>
        <pt x="64" y="-30" on="1"/>
        <pt x="140" y="79" on="1"/>
        <pt x="38" y="188" on="0"/>
        <pt x="38" y="350" on="1"/>
        <pt x="38" y="432" on="0"/>
        <pt x="89" y="566" on="0"/>
        <pt x="181" y="662" on="0"/>
        <pt x="308" y="714" on="0"/>
        <pt x="383" y="714" on="1"/>
        <pt x="469" y="714" on="0"/>
        <pt x="549" y="675" on="1"/>
        <pt x="578" y="716" on="1"/>
        <pt x="685" y="716" on="1"/>
        <pt x="621" y="623" on="1"/>
        <pt x="728" y="513" on="0"/>
        <pt x="728" y="349" on="1"/>
        <pt x="728" y="268" on="0"/>
        <pt x="677" y="135" on="0"/>
        <pt x="585" y="39" on="0"/>
        <pt x="458" y="-13" on="0"/>
      </contour>
      <contour>
        <pt x="558" y="532" on="1"/>
        <pt x="271" y="112" on="1"/>
        <pt x="328" y="87" on="0"/>
        <pt x="383" y="87" on="1"/>
        <pt x="438" y="87" on="0"/>
        <pt x="523" y="126" on="0"/>
        <pt x="580" y="197" on="0"/>
        <pt x="609" y="294" on="0"/>
        <pt x="609" y="351" on="1"/>
        <pt x="609" y="464" on="0"/>
      </contour>
      <contour>
        <pt x="382" y="613" on="1"/>
        <pt x="327" y="613" on="0"/>
        <pt x="243" y="574" on="0"/>
        <pt x="186" y="504" on="0"/>
        <pt x="157" y="407" on="0"/>
        <pt x="157" y="349" on="1"/>
        <pt x="157" y="256" on="0"/>
        <pt x="205" y="172" on="1"/>
        <pt x="490" y="589" on="1"/>
        <pt x="434" y="613" on="0"/>
      </contour>
    </TTGlyph>
    <TTGlyph name="Otilde" xMin="38" yMin="-14" xMax="728" yMax="916">
      <component glyphName="O" x="0" y="0" flags="0x204"/>
      <component glyphName="tilde" x="118" y="207" flags="0x4"/>
    </TTGlyph>
    <TTGlyph name="P" xMin="79" yMin="0" xMax="558" yMax="700">
      <contour>
        <pt x="332" y="240" on="1"/>
        <pt x="189" y="240" on="1"/>
        <pt x="189" y="0" on="1"/>
        <pt x="79" y="0" on="1"/>
        <pt x="79" y="700" on="1"/>
        <pt x="295" y="700" on="1"/>
        <pt x="351" y="700" on="0"/>
        <pt x="447" y="685" on="0"/>
        <pt x="518" y="638" on="0"/>
        <pt x="558" y="552" on="0"/>
        <pt x="558" y="481" on="1"/>
        <pt x="558" y="413" on="0"/>
        <pt x="516" y="320" on="0"/>
        <pt x="450" y="264" on="0"/>
        <pt x="370" y="240" on="0"/>
      </contour>
      <contour>
        <pt x="295" y="607" on="1"/>
        <pt x="189" y="607" on="1"/>
        <pt x="189" y="337" on="1"/>
        <pt x="314" y="337" on="1"/>
        <pt x="386" y="337" on="0"/>
        <pt x="448" y="406" on="0"/>
        <pt x="448" y="478" on="1"/>
        <pt x="448" y="514" on="0"/>
        <pt x="433" y="563" on="0"/>
        <pt x="397" y="593" on="0"/>
        <pt x="338" y="607" on="0"/>
      </contour>
    </TTGlyph>
    <TTGlyph name="P.sc" xMin="72" yMin="0" xMax="494" yMax="567">
      <contour>
        <pt x="289" y="187" on="1"/>
        <pt x="177" y="187" on="1"/>
        <pt x="177" y="0" on="1"/>
        <pt x="72" y="0" on="1"/>
        <pt x="72" y="567" on="1"/>
        <pt x="247" y="567" on="1"/>
        <pt x="308" y="567" on="0"/>
        <pt x="401" y="552" on="0"/>
        <pt x="463" y="513" on="0"/>
        <pt x="494" y="443" on="0"/>
        <pt x="494" y="388" on="1"/>
        <pt x="494" y="329" on="0"/>
        <pt x="456" y="252" on="0"/>
        <pt x="396" y="206" on="0"/>
        <pt x="323" y="187" on="0"/>
      </contour>
      <contour>
        <pt x="267" y="481" on="1"/>
        <pt x="177" y="481" on="1"/>
        <pt x="177" y="283" on="1"/>
        <pt x="274" y="283" on="1"/>
        <pt x="337" y="283" on="0"/>
        <pt x="388" y="329" on="0"/>
        <pt x="388" y="386" on="1"/>
        <pt x="388" y="437" on="0"/>
        <pt x="336" y="481" on="0"/>
      </contour>
    </TTGlyph>
    <TTGlyph name="Q" xMin="38" yMin="-14" xMax="728" yMax="714">
      <contour>
        <pt x="719" y="68" on="1"/>
        <pt x="661" y="-1" on="1"/>
        <pt x="594" y="54" on="1"/>
        <pt x="500" y="-14" on="0"/>
        <pt x="383" y="-14" on="1"/>
        <pt x="308" y="-14" on="0"/>
        <pt x="181" y="38" on="0"/>
        <pt x="89" y="134" on="0"/>
        <pt x="38" y="268" on="0"/>
        <pt x="38" y="350" on="1"/>
        <pt x="38" y="432" on="0"/>
        <pt x="89" y="566" on="0"/>
        <pt x="181" y="662" on="0"/>
        <pt x="308" y="714" on="0"/>
        <pt x="383" y="714" on="1"/>
        <pt x="459" y="714" on="0"/>
        <pt x="585" y="661" on="0"/>
        <pt x="677" y="565" on="0"/>
        <pt x="728" y="431" on="0"/>
        <pt x="728" y="350" on="1"/>
        <pt x="728" y="221" on="0"/>
        <pt x="658" y="118" on="1"/>
      </contour>
      <contour>
        <pt x="383" y="85" on="1"/>
        <pt x="467" y="85" on="0"/>
        <pt x="516" y="119" on="1"/>
        <pt x="420" y="198" on="1"/>
        <pt x="478" y="269" on="1"/>
        <pt x="577" y="183" on="1"/>
        <pt x="618" y="251" on="0"/>
        <pt x="618" y="350" on="1"/>
        <pt x="618" y="408" on="0"/>
        <pt x="586" y="505" on="0"/>
        <pt x="526" y="575" on="0"/>
        <pt x="439" y="615" on="0"/>
        <pt x="383" y="615" on="1"/>
        <pt x="327" y="615" on="0"/>
        <pt x="242" y="576" on="0"/>
        <pt x="184" y="505" on="0"/>
        <pt x="154" y="408" on="0"/>
        <pt x="154" y="350" on="1"/>
        <pt x="154" y="291" on="0"/>
        <pt x="183" y="194" on="0"/>
        <pt x="241" y="124" on="0"/>
        <pt x="327" y="85" on="0"/>
      </contour>
    </TTGlyph>
    <TTGlyph name="Q.sc" xMin="38" yMin="-11" xMax="632" yMax="579">
      <contour>
        <pt x="629" y="63" on="1"/>
        <pt x="570" y="-7" on="1"/>
        <pt x="511" y="38" on="1"/>
        <pt x="437" y="-11" on="0"/>
        <pt x="335" y="-11" on="1"/>
        <pt x="270" y="-11" on="0"/>
        <pt x="162" y="31" on="0"/>
        <pt x="82" y="108" on="0"/>
        <pt x="38" y="217" on="0"/>
        <pt x="38" y="284" on="1"/>
        <pt x="38" y="350" on="0"/>
        <pt x="83" y="459" on="0"/>
        <pt x="162" y="537" on="0"/>
        <pt x="271" y="579" on="0"/>
        <pt x="335" y="579" on="1"/>
        <pt x="399" y="579" on="0"/>
        <pt x="508" y="536" on="0"/>
        <pt x="588" y="458" on="0"/>
        <pt x="632" y="349" on="0"/>
        <pt x="632" y="284" on="1"/>
        <pt x="632" y="181" on="0"/>
        <pt x="576" y="105" on="1"/>
      </contour>
      <contour>
        <pt x="335" y="87" on="1"/>
        <pt x="388" y="87" on="0"/>
        <pt x="431" y="107" on="1"/>
        <pt x="355" y="164" on="1"/>
        <pt x="414" y="236" on="1"/>
        <pt x="493" y="175" on="1"/>
        <pt x="520" y="215" on="0"/>
        <pt x="520" y="284" on="1"/>
        <pt x="520" y="327" on="0"/>
        <pt x="496" y="400" on="0"/>
        <pt x="449" y="451" on="0"/>
        <pt x="380" y="480" on="0"/>
        <pt x="335" y="480" on="1"/>
        <pt x="246" y="480" on="0"/>
        <pt x="152" y="373" on="0"/>
        <pt x="152" y="284" on="1"/>
        <pt x="152" y="194" on="0"/>
        <pt x="245" y="87" on="0"/>
      </contour>
    </TTGlyph>
    <TTGlyph name="R" xMin="79" yMin="0" xMax="594" yMax="700">
      <contour>
        <pt x="594" y="0" on="1"/>
        <pt x="481" y="0" on="1"/>
        <pt x="329" y="269" on="1"/>
        <pt x="188" y="269" on="1"/>
        <pt x="188" y="0" on="1"/>
        <pt x="79" y="0" on="1"/>
        <pt x="79" y="700" on="1"/>
        <pt x="316" y="700" on="1"/>
        <pt x="431" y="700" on="0"/>
        <pt x="557" y="606" on="0"/>
        <pt x="557" y="496" on="1"/>
        <pt x="557" y="362" on="0"/>
        <pt x="432" y="297" on="1"/>
      </contour>
      <contour>
        <pt x="305" y="613" on="1"/>
        <pt x="188" y="613" on="1"/>
        <pt x="188" y="370" on="1"/>
        <pt x="320" y="370" on="1"/>
        <pt x="378" y="370" on="0"/>
        <pt x="446" y="430" on="0"/>
        <pt x="446" y="493" on="1"/>
        <pt x="446" y="613" on="0"/>
      </contour>
    </TTGlyph>
    <TTGlyph name="R.sc" xMin="72" yMin="0" xMax="527" yMax="567">
      <contour>
        <pt x="527" y="0" on="1"/>
        <pt x="418" y="0" on="1"/>
        <pt x="291" y="211" on="1"/>
        <pt x="177" y="211" on="1"/>
        <pt x="177" y="0" on="1"/>
        <pt x="72" y="0" on="1"/>
        <pt x="72" y="567" on="1"/>
        <pt x="286" y="567" on="1"/>
        <pt x="493" y="567" on="0"/>
        <pt x="493" y="404" on="1"/>
        <pt x="493" y="342" on="0"/>
        <pt x="439" y="266" on="0"/>
        <pt x="389" y="238" on="1"/>
      </contour>
      <contour>
        <pt x="266" y="482" on="1"/>
        <pt x="177" y="482" on="1"/>
        <pt x="177" y="308" on="1"/>
        <pt x="268" y="308" on="1"/>
        <pt x="385" y="308" on="0"/>
        <pt x="385" y="396" on="1"/>
        <pt x="385" y="439" on="0"/>
        <pt x="332" y="482" on="0"/>
      </contour>
    </TTGlyph>
    <TTGlyph name="S" xMin="39" yMin="-14" xMax="553" yMax="714">
      <contour>
        <pt x="281" y="-14" on="1"/>
        <pt x="134" y="-14" on="0"/>
        <pt x="51" y="33" on="1"/>
        <pt x="64" y="156" on="1"/>
        <pt x="153" y="85" on="0"/>
        <pt x="283" y="85" on="1"/>
        <pt x="352" y="85" on="0"/>
        <pt x="436" y="131" on="0"/>
        <pt x="436" y="182" on="1"/>
        <pt x="436" y="205" on="0"/>
        <pt x="416" y="241" on="0"/>
        <pt x="383" y="269" on="0"/>
        <pt x="340" y="290" on="0"/>
        <pt x="316" y="298" on="1"/>
        <pt x="205" y="335" on="1"/>
        <pt x="156" y="355" on="1"/>
        <pt x="137" y="363" on="0"/>
        <pt x="96" y="388" on="0"/>
        <pt x="61" y="424" on="0"/>
        <pt x="39" y="470" on="0"/>
        <pt x="39" y="499" on="1"/>
        <pt x="39" y="537" on="0"/>
        <pt x="64" y="614" on="0"/>
        <pt x="123" y="675" on="0"/>
        <pt x="220" y="714" on="0"/>
        <pt x="292" y="714" on="1"/>
        <pt x="323" y="714" on="0"/>
        <pt x="389" y="705" on="0"/>
        <pt x="449" y="691" on="0"/>
        <pt x="498" y="673" on="0"/>
        <pt x="513" y="664" on="1"/>
        <pt x="502" y="553" on="1"/>
        <pt x="380" y="616" on="0"/>
        <pt x="300" y="616" on="1"/>
        <pt x="272" y="616" on="0"/>
        <pt x="219" y="605" on="0"/>
        <pt x="178" y="583" on="0"/>
        <pt x="153" y="547" on="0"/>
        <pt x="153" y="523" on="1"/>
        <pt x="153" y="492" on="0"/>
        <pt x="185" y="457" on="0"/>
        <pt x="247" y="430" on="0"/>
        <pt x="340" y="402" on="0"/>
        <pt x="401" y="377" on="1"/>
        <pt x="428" y="366" on="0"/>
        <pt x="482" y="338" on="0"/>
        <pt x="525" y="294" on="0"/>
        <pt x="553" y="230" on="0"/>
        <pt x="553" y="184" on="1"/>
        <pt x="553" y="152" on="0"/>
        <pt x="533" y="82" on="0"/>
        <pt x="474" y="24" on="0"/>
        <pt x="367" y="-14" on="0"/>
      </contour>
    </TTGlyph>
    <TTGlyph name="S.sc" xMin="40" yMin="-11" xMax="482" yMax="579">
      <contour>
        <pt x="248" y="-11" on="1"/>
        <pt x="117" y="-11" on="0"/>
        <pt x="49" y="30" on="1"/>
        <pt x="62" y="147" on="1"/>
        <pt x="129" y="87" on="0"/>
        <pt x="251" y="87" on="1"/>
        <pt x="366" y="87" on="0"/>
        <pt x="366" y="150" on="1"/>
        <pt x="366" y="178" on="0"/>
        <pt x="327" y="214" on="0"/>
        <pt x="268" y="239" on="0"/>
        <pt x="199" y="258" on="0"/>
        <pt x="169" y="268" on="1"/>
        <pt x="121" y="289" on="1"/>
        <pt x="86" y="307" on="0"/>
        <pt x="40" y="361" on="0"/>
        <pt x="40" y="409" on="1"/>
        <pt x="40" y="437" on="0"/>
        <pt x="63" y="497" on="0"/>
        <pt x="114" y="547" on="0"/>
        <pt x="197" y="579" on="0"/>
        <pt x="258" y="579" on="1"/>
        <pt x="285" y="579" on="0"/>
        <pt x="342" y="571" on="0"/>
        <pt x="393" y="559" on="0"/>
        <pt x="435" y="543" on="0"/>
        <pt x="449" y="535" on="1"/>
        <pt x="439" y="430" on="1"/>
        <pt x="341" y="481" on="0"/>
        <pt x="263" y="481" on="1"/>
        <pt x="239" y="481" on="0"/>
        <pt x="197" y="474" on="0"/>
        <pt x="166" y="460" on="0"/>
        <pt x="147" y="436" on="0"/>
        <pt x="147" y="420" on="1"/>
        <pt x="147" y="393" on="0"/>
        <pt x="178" y="369" on="0"/>
        <pt x="238" y="351" on="0"/>
        <pt x="327" y="326" on="0"/>
        <pt x="385" y="297" on="1"/>
        <pt x="425" y="280" on="0"/>
        <pt x="482" y="211" on="0"/>
        <pt x="482" y="153" on="1"/>
        <pt x="482" y="126" on="0"/>
        <pt x="464" y="68" on="0"/>
        <pt x="413" y="20" on="0"/>
        <pt x="321" y="-11" on="0"/>
      </contour>
    </TTGlyph>
    <TTGlyph name="Scaron" xMin="39" yMin="-14" xMax="553" yMax="950">
      <component glyphName="S" x="0" y="0" flags="0x204"/>
      <component glyphName="caron" x="69" y="207" flags="0x4"/>
    </TTGlyph>
    <TTGlyph name="T" xMin="19" yMin="0" xMax="529" yMax="700">
      <contour>
        <pt x="529" y="601" on="1"/>
        <pt x="327" y="601" on="1"/>
        <pt x="327" y="0" on="1"/>
        <pt x="220" y="0" on="1"/>
        <pt x="220" y="601" on="1"/>
        <pt x="19" y="601" on="1"/>
        <pt x="19" y="700" on="1"/>
        <pt x="529" y="700" on="1"/>
      </contour>
    </TTGlyph>
    <TTGlyph name="T.sc" xMin="17" yMin="0" xMax="464" yMax="567">
      <contour>
        <pt x="464" y="468" on="1"/>
        <pt x="292" y="468" on="1"/>
        <pt x="292" y="0" on="1"/>
        <pt x="188" y="0" on="1"/>
        <pt x="188" y="468" on="1"/>
        <pt x="17" y="468" on="1"/>
        <pt x="17" y="567" on="1"/>
        <pt x="464" y="567" on="1"/>
      </contour>
    </TTGlyph>
    <TTGlyph name="Thorn" xMin="79" yMin="0" xMax="558" yMax="700">
      <contour>
        <pt x="189" y="121" on="1"/>
        <pt x="189" y="0" on="1"/>
        <pt x="79" y="0" on="1"/>
        <pt x="79" y="700" on="1"/>
        <pt x="189" y="700" on="1"/>
        <pt x="189" y="581" on="1"/>
        <pt x="295" y="581" on="1"/>
        <pt x="352" y="581" on="0"/>
        <pt x="448" y="566" on="0"/>
        <pt x="519" y="519" on="0"/>
        <pt x="558" y="433" on="0"/>
        <pt x="558" y="362" on="1"/>
        <pt x="558" y="291" on="0"/>
        <pt x="514" y="198" on="0"/>
        <pt x="447" y="143" on="0"/>
        <pt x="368" y="121" on="0"/>
        <pt x="332" y="121" on="1"/>
      </contour>
      <contour>
        <pt x="189" y="489" on="1"/>
        <pt x="189" y="218" on="1"/>
        <pt x="314" y="218" on="1"/>
        <pt x="386" y="218" on="0"/>
        <pt x="448" y="288" on="0"/>
        <pt x="448" y="359" on="1"/>
        <pt x="448" y="394" on="0"/>
        <pt x="433" y="443" on="0"/>
        <pt x="398" y="475" on="0"/>
        <pt x="339" y="489" on="0"/>
        <pt x="295" y="489" on="1"/>
      </contour>
    </TTGlyph>
    <TTGlyph name="U" xMin="71" yMin="-14" xMax="651" yMax="700">
      <contour>
        <pt x="71" y="298" on="1"/>
        <pt x="71" y="700" on="1"/>
        <pt x="177" y="700" on="1"/>
        <pt x="177" y="343" on="1"/>
        <pt x="177" y="290" on="0"/>
        <pt x="192" y="196" on="0"/>
        <pt x="232" y="126" on="0"/>
        <pt x="304" y="85" on="0"/>
        <pt x="361" y="85" on="1"/>
        <pt x="418" y="85" on="0"/>
        <pt x="490" y="127" on="0"/>
        <pt x="530" y="197" on="0"/>
        <pt x="545" y="291" on="0"/>
        <pt x="545" y="343" on="1"/>
        <pt x="545" y="700" on="1"/>
        <pt x="651" y="700" on="1"/>
        <pt x="651" y="298" on="1"/>
        <pt x="651" y="151" on="0"/>
        <pt x="505" y="-14" on="0"/>
        <pt x="361" y="-14" on="1"/>
        <pt x="217" y="-14" on="0"/>
        <pt x="71" y="151" on="0"/>
      </contour>
    </TTGlyph>
    <TTGlyph name="U.sc" xMin="66" yMin="-11" xMax="565" yMax="567">
      <contour>
        <pt x="66" y="243" on="1"/>
        <pt x="66" y="567" on="1"/>
        <pt x="169" y="567" on="1"/>
        <pt x="169" y="278" on="1"/>
        <pt x="169" y="233" on="0"/>
        <pt x="183" y="162" on="0"/>
        <pt x="217" y="113" on="0"/>
        <pt x="273" y="87" on="0"/>
        <pt x="315" y="87" on="1"/>
        <pt x="358" y="87" on="0"/>
        <pt x="415" y="113" on="0"/>
        <pt x="448" y="163" on="0"/>
        <pt x="461" y="233" on="0"/>
        <pt x="461" y="278" on="1"/>
        <pt x="461" y="567" on="1"/>
        <pt x="565" y="567" on="1"/>
        <pt x="565" y="243" on="1"/>
        <pt x="565" y="123" on="0"/>
        <pt x="440" y="-11" on="0"/>
        <pt x="315" y="-11" on="1"/>
        <pt x="191" y="-11" on="0"/>
        <pt x="66" y="124" on="0"/>
      </contour>
    </TTGlyph>
    <TTGlyph name="Uacute" xMin="71" yMin="-14" xMax="651" yMax="945">
      <component glyphName="U" x="0" y="0" flags="0x204"/>
      <component glyphName="acute" x="209" y="207" flags="0x4"/>
    </TTGlyph>
    <TTGlyph name="Ucircumflex" xMin="71" yMin="-14" xMax="651" yMax="954">
      <component glyphName="U" x="0" y="0" flags="0x204"/>
      <component glyphName="circumflex" x="138" y="207" flags="0x4"/>
    </TTGlyph>
    <TTGlyph name="Udieresis" xMin="71" yMin="-14" xMax="651" yMax="907">
      <component glyphName="U" x="0" y="0" flags="0x204"/>
      <component glyphName="dieresis" x="150" y="207" flags="0x4"/>
    </TTGlyph>
    <TTGlyph name="Ugrave" xMin="71" yMin="-14" xMax="651" yMax="945">
      <component glyphName="U" x="0" y="0" flags="0x204"/>
      <component glyphName="grave" x="209" y="207" flags="0x4"/>
    </TTGlyph>
    <TTGlyph name="V" xMin="3" yMin="0" xMax="645" yMax="700">
      <contour>
        <pt x="645" y="700" on="1"/>
        <pt x="384" y="0" on="1"/>
        <pt x="265" y="0" on="1"/>
        <pt x="3" y="700" on="1"/>
        <pt x="114" y="700" on="1"/>
        <pt x="325" y="130" on="1"/>
        <pt x="534" y="700" on="1"/>
      </contour>
    </TTGlyph>
    <TTGlyph name="V.sc" xMin="4" yMin="0" xMax="563" yMax="567">
      <contour>
        <pt x="563" y="567" on="1"/>
        <pt x="347" y="0" on="1"/>
        <pt x="224" y="0" on="1"/>
        <pt x="4" y="567" on="1"/>
        <pt x="112" y="567" on="1"/>
        <pt x="285" y="135" on="1"/>
        <pt x="455" y="567" on="1"/>
      </contour>
    </TTGlyph>
    <TTGlyph name="W" xMin="13" yMin="0" xMax="960" yMax="700">
      <contour>
        <pt x="960" y="700" on="1"/>
        <pt x="755" y="0" on="1"/>
        <pt x="647" y="0" on="1"/>
        <pt x="485" y="537" on="1"/>
        <pt x="320" y="0" on="1"/>
        <pt x="209" y="0" on="1"/>
        <pt x="13" y="700" on="1"/>
        <pt x="124" y="700" on="1"/>
        <pt x="274" y="141" on="1"/>
        <pt x="443" y="691" on="1"/>
        <pt x="530" y="691" on="1"/>
        <pt x="702" y="146" on="1"/>
        <pt x="849" y="700" on="1"/>
      </contour>
    </TTGlyph>
    <TTGlyph name="W.sc" xMin="14" yMin="0" xMax="829" yMax="567">
      <contour>
        <pt x="829" y="567" on="1"/>
        <pt x="653" y="0" on="1"/>
        <pt x="557" y="0" on="1"/>
        <pt x="422" y="382" on="1"/>
        <pt x="284" y="0" on="1"/>
        <pt x="184" y="0" on="1"/>
        <pt x="14" y="567" on="1"/>
        <pt x="123" y="567" on="1"/>
        <pt x="246" y="161" on="1"/>
        <pt x="383" y="567" on="1"/>
        <pt x="459" y="567" on="1"/>
        <pt x="602" y="171" on="1"/>
        <pt x="721" y="567" on="1"/>
      </contour>
    </TTGlyph>
    <TTGlyph name="X" xMin="6" yMin="0" xMax="607" yMax="700">
      <contour>
        <pt x="607" y="0" on="1"/>
        <pt x="490" y="0" on="1"/>
        <pt x="299" y="276" on="1"/>
        <pt x="123" y="0" on="1"/>
        <pt x="6" y="0" on="1"/>
        <pt x="245" y="349" on="1"/>
        <pt x="10" y="700" on="1"/>
        <pt x="133" y="700" on="1"/>
        <pt x="307" y="436" on="1"/>
        <pt x="485" y="700" on="1"/>
        <pt x="601" y="700" on="1"/>
        <pt x="358" y="362" on="1"/>
      </contour>
    </TTGlyph>
    <TTGlyph name="X.sc" xMin="8" yMin="0" xMax="542" yMax="567">
      <contour>
        <pt x="542" y="0" on="1"/>
        <pt x="424" y="0" on="1"/>
        <pt x="271" y="209" on="1"/>
        <pt x="126" y="0" on="1"/>
        <pt x="8" y="0" on="1"/>
        <pt x="218" y="283" on="1"/>
        <pt x="16" y="567" on="1"/>
        <pt x="136" y="567" on="1"/>
        <pt x="278" y="367" on="1"/>
        <pt x="415" y="567" on="1"/>
        <pt x="532" y="567" on="1"/>
        <pt x="330" y="294" on="1"/>
      </contour>
    </TTGlyph>
    <TTGlyph name="Y" xMin="-5" yMin="0" xMax="581" yMax="700">
      <contour>
        <pt x="581" y="700" on="1"/>
        <pt x="343" y="319" on="1"/>
        <pt x="343" y="0" on="1"/>
        <pt x="234" y="0" on="1"/>
        <pt x="234" y="319" on="1"/>
        <pt x="-5" y="700" on="1"/>
        <pt x="108" y="700" on="1"/>
        <pt x="288" y="414" on="1"/>
        <pt x="468" y="700" on="1"/>
      </contour>
    </TTGlyph>
    <TTGlyph name="Y.sc" xMin="-4" yMin="0" xMax="515" yMax="567">
      <contour>
        <pt x="515" y="567" on="1"/>
        <pt x="308" y="252" on="1"/>
        <pt x="308" y="0" on="1"/>
        <pt x="204" y="0" on="1"/>
        <pt x="204" y="252" on="1"/>
        <pt x="-4" y="567" on="1"/>
        <pt x="107" y="567" on="1"/>
        <pt x="256" y="343" on="1"/>
        <pt x="405" y="567" on="1"/>
      </contour>
    </TTGlyph>
    <TTGlyph name="Yacute" xMin="-5" yMin="0" xMax="581" yMax="945">
      <component glyphName="Y" x="0" y="0" flags="0x204"/>
      <component glyphName="acute" x="146" y="207" flags="0x4"/>
    </TTGlyph>
    <TTGlyph name="Ydieresis" xMin="-5" yMin="0" xMax="581" yMax="907">
      <component glyphName="Y" x="0" y="0" flags="0x204"/>
      <component glyphName="dieresis" x="86" y="207" flags="0x4"/>
    </TTGlyph>
    <TTGlyph name="Z" xMin="9" yMin="0" xMax="542" yMax="700">
      <contour>
        <pt x="542" y="700" on="1"/>
        <pt x="184" y="99" on="1"/>
        <pt x="497" y="99" on="1"/>
        <pt x="497" y="0" on="1"/>
        <pt x="9" y="0" on="1"/>
        <pt x="366" y="601" on="1"/>
        <pt x="54" y="601" on="1"/>
        <pt x="54" y="700" on="1"/>
      </contour>
    </TTGlyph>
    <TTGlyph name="Z.sc" xMin="14" yMin="0" xMax="473" yMax="567">
      <contour>
        <pt x="473" y="567" on="1"/>
        <pt x="185" y="99" on="1"/>
        <pt x="434" y="99" on="1"/>
        <pt x="434" y="0" on="1"/>
        <pt x="14" y="0" on="1"/>
        <pt x="302" y="468" on="1"/>
        <pt x="53" y="468" on="1"/>
        <pt x="53" y="567" on="1"/>
      </contour>
    </TTGlyph>
    <TTGlyph name="Zcaron" xMin="9" yMin="0" xMax="542" yMax="950">
      <component glyphName="Z" x="0" y="0" flags="0x204"/>
      <component glyphName="caron" x="59" y="207" flags="0x4"/>
    </TTGlyph>
    <TTGlyph name="a" xMin="24" yMin="-10" xMax="478" yMax="503">
      <contour>
        <pt x="478" y="72" on="1"/>
        <pt x="465" y="-10" on="1"/>
        <pt x="445" y="-10" on="1"/>
        <pt x="391" y="-10" on="0"/>
        <pt x="340" y="22" on="0"/>
        <pt x="323" y="57" on="1"/>
        <pt x="266" y="-10" on="0"/>
        <pt x="172" y="-10" on="1"/>
        <pt x="139" y="-10" on="0"/>
        <pt x="84" y="11" on="0"/>
        <pt x="45" y="49" on="0"/>
        <pt x="24" y="102" on="0"/>
        <pt x="24" y="135" on="1"/>
        <pt x="24" y="185" on="0"/>
        <pt x="80" y="252" on="0"/>
        <pt x="166" y="293" on="0"/>
        <pt x="267" y="310" on="0"/>
        <pt x="312" y="311" on="1"/>
        <pt x="311" y="370" on="0"/>
        <pt x="264" y="413" on="0"/>
        <pt x="211" y="413" on="1"/>
        <pt x="147" y="413" on="0"/>
        <pt x="79" y="372" on="1"/>
        <pt x="67" y="454" on="1"/>
        <pt x="141" y="503" on="0"/>
        <pt x="239" y="503" on="1"/>
        <pt x="331" y="503" on="0"/>
        <pt x="414" y="401" on="0"/>
        <pt x="414" y="279" on="1"/>
        <pt x="414" y="167" on="1"/>
        <pt x="414" y="139" on="0"/>
        <pt x="418" y="102" on="0"/>
        <pt x="429" y="81" on="0"/>
        <pt x="449" y="72" on="0"/>
        <pt x="466" y="72" on="1"/>
      </contour>
      <contour>
        <pt x="313" y="126" on="1"/>
        <pt x="313" y="242" on="1"/>
        <pt x="129" y="235" on="0"/>
        <pt x="129" y="140" on="1"/>
        <pt x="129" y="70" on="0"/>
        <pt x="202" y="70" on="1"/>
        <pt x="268" y="70" on="0"/>
      </contour>
    </TTGlyph>
    <TTGlyph name="aacute" xMin="24" yMin="-10" xMax="478" yMax="738">
      <component glyphName="a" x="0" y="0" flags="0x204"/>
      <component glyphName="acute" x="92" y="0" flags="0x4"/>
    </TTGlyph>
    <TTGlyph name="acircumflex" xMin="24" yMin="-10" xMax="478" yMax="747">
      <component glyphName="a" x="0" y="0" flags="0x204"/>
      <component glyphName="circumflex" x="21" y="0" flags="0x4"/>
    </TTGlyph>
    <TTGlyph name="acute" xMin="58" yMin="592" xMax="245" yMax="738">
      <contour>
        <pt x="245" y="655" on="1"/>
        <pt x="58" y="592" on="1"/>
        <pt x="58" y="645" on="1"/>
        <pt x="245" y="738" on="1"/>
      </contour>
    </TTGlyph>
    <TTGlyph name="adieresis" xMin="24" yMin="-10" xMax="478" yMax="700">
      <component glyphName="a" x="0" y="0" flags="0x204"/>
      <component glyphName="dieresis" x="33" y="0" flags="0x4"/>
    </TTGlyph>
    <TTGlyph name="ae" xMin="22" yMin="-14" xMax="768" yMax="503">
      <contour>
        <pt x="763" y="237" on="1"/>
        <pt x="433" y="237" on="1"/>
        <pt x="437" y="156" on="0"/>
        <pt x="522" y="72" on="0"/>
        <pt x="591" y="72" on="1"/>
        <pt x="648" y="72" on="0"/>
        <pt x="731" y="111" on="1"/>
        <pt x="745" y="29" on="1"/>
        <pt x="659" y="-10" on="0"/>
        <pt x="581" y="-10" on="1"/>
        <pt x="432" y="-10" on="0"/>
        <pt x="380" y="96" on="1"/>
        <pt x="351" y="42" on="0"/>
        <pt x="246" y="-14" on="0"/>
        <pt x="177" y="-14" on="1"/>
        <pt x="101" y="-14" on="0"/>
        <pt x="22" y="58" on="0"/>
        <pt x="22" y="121" on="1"/>
        <pt x="22" y="179" on="0"/>
        <pt x="83" y="251" on="0"/>
        <pt x="173" y="291" on="0"/>
        <pt x="275" y="307" on="0"/>
        <pt x="316" y="309" on="1"/>
        <pt x="310" y="366" on="0"/>
        <pt x="262" y="413" on="0"/>
        <pt x="208" y="413" on="1"/>
        <pt x="150" y="413" on="0"/>
        <pt x="81" y="381" on="1"/>
        <pt x="72" y="462" on="1"/>
        <pt x="160" y="503" on="0"/>
        <pt x="236" y="503" on="1"/>
        <pt x="257" y="503" on="0"/>
        <pt x="306" y="494" on="0"/>
        <pt x="350" y="469" on="0"/>
        <pt x="385" y="426" on="0"/>
        <pt x="392" y="393" on="1"/>
        <pt x="410" y="447" on="0"/>
        <pt x="512" y="503" on="0"/>
        <pt x="575" y="503" on="1"/>
        <pt x="618" y="503" on="0"/>
        <pt x="690" y="475" on="0"/>
        <pt x="740" y="422" on="0"/>
        <pt x="768" y="346" on="0"/>
        <pt x="768" y="298" on="1"/>
        <pt x="768" y="284" on="0"/>
        <pt x="765" y="253" on="0"/>
      </contour>
      <contour>
        <pt x="571" y="415" on="1"/>
        <pt x="466" y="415" on="0"/>
        <pt x="439" y="307" on="1"/>
        <pt x="673" y="307" on="1"/>
        <pt x="673" y="358" on="0"/>
        <pt x="622" y="415" on="0"/>
      </contour>
      <contour>
        <pt x="324" y="240" on="1"/>
        <pt x="293" y="239" on="0"/>
        <pt x="224" y="228" on="0"/>
        <pt x="165" y="202" on="0"/>
        <pt x="127" y="161" on="0"/>
        <pt x="127" y="130" on="1"/>
        <pt x="127" y="99" on="0"/>
        <pt x="167" y="69" on="0"/>
        <pt x="199" y="69" on="1"/>
        <pt x="223" y="69" on="0"/>
        <pt x="269" y="85" on="0"/>
        <pt x="304" y="118" on="0"/>
        <pt x="326" y="167" on="0"/>
        <pt x="326" y="199" on="1"/>
        <pt x="326" y="212" on="0"/>
        <pt x="325" y="232" on="0"/>
      </contour>
    </TTGlyph>
    <TTGlyph name="agrave" xMin="24" yMin="-10" xMax="478" yMax="738">
      <component glyphName="a" x="0" y="0" flags="0x204"/>
      <component glyphName="grave" x="92" y="0" flags="0x4"/>
    </TTGlyph>
    <TTGlyph name="ampersand" xMin="34" yMin="-23" xMax="603" yMax="703">
      <contour>
        <pt x="603" y="0" on="1"/>
        <pt x="493" y="0" on="1"/>
        <pt x="454" y="42" on="1"/>
        <pt x="375" y="-23" on="0"/>
        <pt x="267" y="-23" on="1"/>
        <pt x="208" y="-23" on="0"/>
        <pt x="121" y="5" on="0"/>
        <pt x="63" y="54" on="0"/>
        <pt x="34" y="123" on="0"/>
        <pt x="34" y="164" on="1"/>
        <pt x="34" y="277" on="0"/>
        <pt x="159" y="366" on="1"/>
        <pt x="84" y="457" on="0"/>
        <pt x="84" y="537" on="1"/>
        <pt x="84" y="575" on="0"/>
        <pt x="116" y="637" on="0"/>
        <pt x="170" y="680" on="0"/>
        <pt x="242" y="703" on="0"/>
        <pt x="281" y="703" on="1"/>
        <pt x="354" y="703" on="0"/>
        <pt x="430" y="631" on="0"/>
        <pt x="430" y="571" on="1"/>
        <pt x="430" y="507" on="0"/>
        <pt x="345" y="409" on="0"/>
        <pt x="273" y="361" on="1"/>
        <pt x="446" y="178" on="1"/>
        <pt x="472" y="225" on="0"/>
        <pt x="475" y="351" on="1"/>
        <pt x="569" y="351" on="1"/>
        <pt x="566" y="204" on="0"/>
        <pt x="510" y="107" on="1"/>
      </contour>
      <contour>
        <pt x="271" y="624" on="1"/>
        <pt x="232" y="624" on="0"/>
        <pt x="179" y="577" on="0"/>
        <pt x="179" y="534" on="1"/>
        <pt x="179" y="476" on="0"/>
        <pt x="231" y="415" on="1"/>
        <pt x="278" y="452" on="1"/>
        <pt x="312" y="478" on="0"/>
        <pt x="343" y="527" on="0"/>
        <pt x="343" y="555" on="1"/>
        <pt x="343" y="589" on="0"/>
        <pt x="305" y="624" on="0"/>
      </contour>
      <contour>
        <pt x="402" y="105" on="1"/>
        <pt x="206" y="309" on="1"/>
        <pt x="135" y="252" on="0"/>
        <pt x="135" y="172" on="1"/>
        <pt x="135" y="121" on="0"/>
        <pt x="202" y="54" on="0"/>
        <pt x="274" y="54" on="1"/>
        <pt x="355" y="54" on="0"/>
      </contour>
    </TTGlyph>
    <TTGlyph name="aring" xMin="24" yMin="-10" xMax="478" yMax="755">
      <component glyphName="a" x="0" y="0" flags="0x204"/>
      <component glyphName="ring" x="98" y="0" flags="0x4"/>
    </TTGlyph>
    <TTGlyph name="asciicircum" xMin="49" yMin="424" xMax="461" yMax="759">
      <contour>
        <pt x="461" y="424" on="1"/>
        <pt x="255" y="639" on="1"/>
        <pt x="49" y="424" on="1"/>
        <pt x="49" y="544" on="1"/>
        <pt x="255" y="759" on="1"/>
        <pt x="461" y="544" on="1"/>
      </contour>
    </TTGlyph>
    <TTGlyph name="asciitilde" xMin="52" yMin="178" xMax="409" yMax="288">
      <contour>
        <pt x="298" y="178" on="1"/>
        <pt x="289" y="178" on="0"/>
        <pt x="250" y="193" on="0"/>
        <pt x="209" y="211" on="0"/>
        <pt x="174" y="226" on="0"/>
        <pt x="168" y="226" on="1"/>
        <pt x="120" y="226" on="0"/>
        <pt x="105" y="178" on="1"/>
        <pt x="52" y="190" on="1"/>
        <pt x="61" y="236" on="0"/>
        <pt x="127" y="284" on="0"/>
        <pt x="163" y="284" on="1"/>
        <pt x="173" y="284" on="0"/>
        <pt x="213" y="270" on="0"/>
        <pt x="254" y="252" on="0"/>
        <pt x="289" y="238" on="0"/>
        <pt x="295" y="238" on="1"/>
        <pt x="339" y="238" on="0"/>
        <pt x="360" y="288" on="1"/>
        <pt x="409" y="275" on="1"/>
        <pt x="399" y="232" on="0"/>
        <pt x="340" y="178" on="0"/>
      </contour>
    </TTGlyph>
    <TTGlyph name="asterisk" xMin="32" yMin="419" xMax="400" yMax="749">
      <contour>
        <pt x="312" y="422" on="1"/>
        <pt x="217" y="556" on="1"/>
        <pt x="122" y="419" on="1"/>
        <pt x="77" y="462" on="1"/>
        <pt x="190" y="570" on="1"/>
        <pt x="32" y="631" on="1"/>
        <pt x="63" y="686" on="1"/>
        <pt x="206" y="593" on="1"/>
        <pt x="185" y="749" on="1"/>
        <pt x="248" y="749" on="1"/>
        <pt x="225" y="593" on="1"/>
        <pt x="369" y="686" on="1"/>
        <pt x="400" y="630" on="1"/>
        <pt x="242" y="572" on="1"/>
        <pt x="357" y="465" on="1"/>
      </contour>
    </TTGlyph>
    <TTGlyph name="at" xMin="47" yMin="-87" xMax="673" yMax="553">
      <contour>
        <pt x="543" y="379" on="1"/>
        <pt x="492" y="432" on="0"/>
        <pt x="421" y="432" on="1"/>
        <pt x="375" y="432" on="0"/>
        <pt x="284" y="382" on="0"/>
        <pt x="212" y="303" on="0"/>
        <pt x="167" y="202" on="0"/>
        <pt x="167" y="151" on="1"/>
        <pt x="167" y="103" on="0"/>
        <pt x="211" y="40" on="0"/>
        <pt x="262" y="40" on="1"/>
        <pt x="283" y="40" on="0"/>
        <pt x="333" y="57" on="0"/>
        <pt x="381" y="88" on="0"/>
        <pt x="424" y="130" on="0"/>
        <pt x="438" y="156" on="1"/>
        <pt x="438" y="155" on="0"/>
        <pt x="437" y="146" on="0"/>
        <pt x="436" y="136" on="0"/>
        <pt x="435" y="126" on="0"/>
        <pt x="435" y="125" on="1"/>
        <pt x="435" y="93" on="0"/>
        <pt x="461" y="42" on="0"/>
        <pt x="490" y="42" on="1"/>
        <pt x="505" y="42" on="0"/>
        <pt x="541" y="53" on="0"/>
        <pt x="577" y="71" on="0"/>
        <pt x="611" y="94" on="0"/>
        <pt x="623" y="106" on="1"/>
        <pt x="599" y="63" on="0"/>
        <pt x="529" y="-8" on="0"/>
        <pt x="443" y="-59" on="0"/>
        <pt x="346" y="-87" on="0"/>
        <pt x="295" y="-87" on="1"/>
        <pt x="238" y="-87" on="0"/>
        <pt x="146" y="-52" on="0"/>
        <pt x="81" y="14" on="0"/>
        <pt x="47" y="110" on="0"/>
        <pt x="47" y="170" on="1"/>
        <pt x="47" y="250" on="0"/>
        <pt x="107" y="390" on="0"/>
        <pt x="211" y="493" on="0"/>
        <pt x="347" y="553" on="0"/>
        <pt x="424" y="553" on="1"/>
        <pt x="482" y="553" on="0"/>
        <pt x="575" y="517" on="0"/>
        <pt x="639" y="451" on="0"/>
        <pt x="673" y="357" on="0"/>
        <pt x="673" y="299" on="1"/>
        <pt x="673" y="273" on="0"/>
        <pt x="668" y="217" on="0"/>
        <pt x="652" y="166" on="0"/>
        <pt x="619" y="124" on="0"/>
        <pt x="591" y="111" on="1"/>
        <pt x="552" y="94" on="0"/>
        <pt x="525" y="94" on="1"/>
        <pt x="488" y="94" on="0"/>
        <pt x="488" y="147" on="1"/>
        <pt x="488" y="160" on="0"/>
        <pt x="498" y="208" on="0"/>
        <pt x="514" y="269" on="0"/>
        <pt x="533" y="341" on="0"/>
      </contour>
      <contour>
        <pt x="422" y="371" on="1"/>
        <pt x="469" y="371" on="0"/>
        <pt x="476" y="349" on="1"/>
        <pt x="470" y="310" on="0"/>
        <pt x="429" y="225" on="0"/>
        <pt x="375" y="153" on="0"/>
        <pt x="316" y="106" on="0"/>
        <pt x="291" y="106" on="1"/>
        <pt x="269" y="106" on="0"/>
        <pt x="247" y="142" on="0"/>
        <pt x="247" y="170" on="1"/>
        <pt x="247" y="209" on="0"/>
        <pt x="281" y="282" on="0"/>
        <pt x="334" y="337" on="0"/>
        <pt x="395" y="371" on="0"/>
      </contour>
    </TTGlyph>
    <TTGlyph name="atilde" xMin="24" yMin="-10" xMax="478" yMax="709">
      <component glyphName="a" x="0" y="0" flags="0x204"/>
      <component glyphName="tilde" x="-23" y="0" flags="0x4"/>
    </TTGlyph>
    <TTGlyph name="b" xMin="60" yMin="-10" xMax="531" yMax="750">
      <contour>
        <pt x="301" y="-10" on="1"/>
        <pt x="264" y="-10" on="0"/>
        <pt x="186" y="22" on="0"/>
        <pt x="160" y="50" on="1"/>
        <pt x="152" y="0" on="1"/>
        <pt x="60" y="0" on="1"/>
        <pt x="60" y="750" on="1"/>
        <pt x="162" y="750" on="1"/>
        <pt x="162" y="450" on="1"/>
        <pt x="212" y="503" on="0"/>
        <pt x="302" y="503" on="1"/>
        <pt x="355" y="503" on="0"/>
        <pt x="440" y="462" on="0"/>
        <pt x="499" y="391" on="0"/>
        <pt x="531" y="298" on="0"/>
        <pt x="531" y="246" on="1"/>
        <pt x="531" y="193" on="0"/>
        <pt x="497" y="99" on="0"/>
        <pt x="436" y="30" on="0"/>
        <pt x="351" y="-10" on="0"/>
      </contour>
      <contour>
        <pt x="292" y="415" on="1"/>
        <pt x="232" y="415" on="0"/>
        <pt x="156" y="327" on="0"/>
        <pt x="156" y="246" on="1"/>
        <pt x="156" y="165" on="0"/>
        <pt x="232" y="78" on="0"/>
        <pt x="292" y="78" on="1"/>
        <pt x="323" y="78" on="0"/>
        <pt x="373" y="103" on="0"/>
        <pt x="408" y="148" on="0"/>
        <pt x="427" y="210" on="0"/>
        <pt x="427" y="246" on="1"/>
        <pt x="427" y="283" on="0"/>
        <pt x="408" y="346" on="0"/>
        <pt x="373" y="390" on="0"/>
        <pt x="323" y="415" on="0"/>
      </contour>
    </TTGlyph>
    <TTGlyph name="backslash" xMin="33" yMin="-85" xMax="514" yMax="700">
      <contour>
        <pt x="514" y="-85" on="1"/>
        <pt x="407" y="-85" on="1"/>
        <pt x="33" y="700" on="1"/>
        <pt x="140" y="700" on="1"/>
      </contour>
    </TTGlyph>
    <TTGlyph name="bar" xMin="69" yMin="-209" xMax="162" yMax="750">
      <contour>
        <pt x="162" y="-209" on="1"/>
        <pt x="69" y="-209" on="1"/>
        <pt x="69" y="750" on="1"/>
        <pt x="162" y="750" on="1"/>
      </contour>
    </TTGlyph>
    <TTGlyph name="braceleft" xMin="17" yMin="-135" xMax="300" yMax="750">
      <contour>
        <pt x="85" y="19" on="1"/>
        <pt x="85" y="26" on="0"/>
        <pt x="87" y="65" on="0"/>
        <pt x="90" y="109" on="0"/>
        <pt x="92" y="151" on="0"/>
        <pt x="92" y="161" on="1"/>
        <pt x="92" y="215" on="0"/>
        <pt x="59" y="282" on="0"/>
        <pt x="17" y="307" on="1"/>
        <pt x="58" y="332" on="0"/>
        <pt x="92" y="398" on="0"/>
        <pt x="92" y="454" on="1"/>
        <pt x="92" y="463" on="0"/>
        <pt x="90" y="504" on="0"/>
        <pt x="87" y="549" on="0"/>
        <pt x="85" y="588" on="0"/>
        <pt x="85" y="595" on="1"/>
        <pt x="85" y="632" on="0"/>
        <pt x="108" y="689" on="0"/>
        <pt x="159" y="728" on="0"/>
        <pt x="241" y="749" on="0"/>
        <pt x="300" y="750" on="1"/>
        <pt x="300" y="667" on="1"/>
        <pt x="254" y="666" on="0"/>
        <pt x="200" y="654" on="0"/>
        <pt x="173" y="620" on="0"/>
        <pt x="166" y="558" on="0"/>
        <pt x="166" y="507" on="1"/>
        <pt x="166" y="501" on="0"/>
        <pt x="167" y="478" on="0"/>
        <pt x="168" y="451" on="0"/>
        <pt x="169" y="428" on="0"/>
        <pt x="169" y="422" on="1"/>
        <pt x="169" y="404" on="0"/>
        <pt x="163" y="373" on="0"/>
        <pt x="147" y="346" on="0"/>
        <pt x="119" y="320" on="0"/>
        <pt x="97" y="307" on="1"/>
        <pt x="141" y="282" on="0"/>
        <pt x="169" y="235" on="0"/>
        <pt x="169" y="201" on="1"/>
        <pt x="169" y="196" on="0"/>
        <pt x="168" y="171" on="0"/>
        <pt x="167" y="143" on="0"/>
        <pt x="166" y="116" on="0"/>
        <pt x="166" y="108" on="1"/>
        <pt x="166" y="56" on="0"/>
        <pt x="175" y="-7" on="0"/>
        <pt x="203" y="-41" on="0"/>
        <pt x="256" y="-52" on="0"/>
        <pt x="300" y="-53" on="1"/>
        <pt x="300" y="-135" on="1"/>
        <pt x="184" y="-133" on="0"/>
        <pt x="85" y="-57" on="0"/>
      </contour>
    </TTGlyph>
    <TTGlyph name="braceright" xMin="6" yMin="-135" xMax="289" yMax="750">
      <contour>
        <pt x="221" y="19" on="1"/>
        <pt x="221" y="-57" on="0"/>
        <pt x="122" y="-133" on="0"/>
        <pt x="6" y="-135" on="1"/>
        <pt x="6" y="-53" on="1"/>
        <pt x="55" y="-52" on="0"/>
        <pt x="110" y="-36" on="0"/>
        <pt x="135" y="1" on="0"/>
        <pt x="140" y="62" on="0"/>
        <pt x="140" y="108" on="1"/>
        <pt x="140" y="116" on="0"/>
        <pt x="139" y="143" on="0"/>
        <pt x="138" y="171" on="0"/>
        <pt x="137" y="196" on="0"/>
        <pt x="137" y="201" on="1"/>
        <pt x="137" y="235" on="0"/>
        <pt x="165" y="282" on="0"/>
        <pt x="209" y="307" on="1"/>
        <pt x="187" y="320" on="0"/>
        <pt x="159" y="346" on="0"/>
        <pt x="143" y="373" on="0"/>
        <pt x="137" y="404" on="0"/>
        <pt x="137" y="422" on="1"/>
        <pt x="137" y="428" on="0"/>
        <pt x="138" y="451" on="0"/>
        <pt x="139" y="478" on="0"/>
        <pt x="140" y="501" on="0"/>
        <pt x="140" y="507" on="1"/>
        <pt x="140" y="561" on="0"/>
        <pt x="130" y="624" on="0"/>
        <pt x="102" y="657" on="0"/>
        <pt x="49" y="666" on="0"/>
        <pt x="6" y="667" on="1"/>
        <pt x="6" y="750" on="1"/>
        <pt x="65" y="749" on="0"/>
        <pt x="147" y="728" on="0"/>
        <pt x="198" y="689" on="0"/>
        <pt x="221" y="632" on="0"/>
        <pt x="221" y="595" on="1"/>
        <pt x="221" y="588" on="0"/>
        <pt x="219" y="549" on="0"/>
        <pt x="216" y="504" on="0"/>
        <pt x="214" y="463" on="0"/>
        <pt x="214" y="454" on="1"/>
        <pt x="214" y="398" on="0"/>
        <pt x="248" y="332" on="0"/>
        <pt x="289" y="307" on="1"/>
        <pt x="247" y="282" on="0"/>
        <pt x="214" y="215" on="0"/>
        <pt x="214" y="161" on="1"/>
        <pt x="214" y="151" on="0"/>
        <pt x="216" y="109" on="0"/>
        <pt x="219" y="65" on="0"/>
        <pt x="221" y="26" on="0"/>
      </contour>
    </TTGlyph>
    <TTGlyph name="bracketleft" xMin="69" yMin="-135" xMax="326" yMax="750">
      <contour>
        <pt x="326" y="-135" on="1"/>
        <pt x="69" y="-135" on="1"/>
        <pt x="69" y="750" on="1"/>
        <pt x="326" y="750" on="1"/>
        <pt x="326" y="668" on="1"/>
        <pt x="162" y="668" on="1"/>
        <pt x="162" y="-53" on="1"/>
        <pt x="326" y="-53" on="1"/>
      </contour>
    </TTGlyph>
    <TTGlyph name="bracketright" xMin="4" yMin="-135" xMax="261" yMax="750">
      <contour>
        <pt x="4" y="750" on="1"/>
        <pt x="261" y="750" on="1"/>
        <pt x="261" y="-135" on="1"/>
        <pt x="4" y="-135" on="1"/>
        <pt x="4" y="-53" on="1"/>
        <pt x="168" y="-53" on="1"/>
        <pt x="168" y="668" on="1"/>
        <pt x="4" y="668" on="1"/>
      </contour>
    </TTGlyph>
    <TTGlyph name="brokenbar" xMin="70" yMin="-210" xMax="158" yMax="750">
      <contour>
        <pt x="158" y="300" on="1"/>
        <pt x="70" y="300" on="1"/>
        <pt x="70" y="750" on="1"/>
        <pt x="158" y="750" on="1"/>
      </contour>
      <contour>
        <pt x="158" y="-210" on="1"/>
        <pt x="70" y="-210" on="1"/>
        <pt x="70" y="172" on="1"/>
        <pt x="158" y="172" on="1"/>
      </contour>
    </TTGlyph>
    <TTGlyph name="bullet" xMin="43" yMin="169" xMax="261" yMax="387">
      <contour>
        <pt x="229" y="201" on="1"/>
        <pt x="212" y="184" on="0"/>
        <pt x="173" y="169" on="0"/>
        <pt x="152" y="169" on="1"/>
        <pt x="130" y="169" on="0"/>
        <pt x="91" y="187" on="0"/>
        <pt x="61" y="217" on="0"/>
        <pt x="43" y="256" on="0"/>
        <pt x="43" y="278" on="1"/>
        <pt x="43" y="300" on="0"/>
        <pt x="61" y="339" on="0"/>
        <pt x="91" y="369" on="0"/>
        <pt x="130" y="387" on="0"/>
        <pt x="152" y="387" on="1"/>
        <pt x="174" y="387" on="0"/>
        <pt x="213" y="369" on="0"/>
        <pt x="243" y="339" on="0"/>
        <pt x="261" y="300" on="0"/>
        <pt x="261" y="278" on="1"/>
        <pt x="261" y="257" on="0"/>
        <pt x="245" y="217" on="0"/>
      </contour>
    </TTGlyph>
    <TTGlyph name="c" xMin="31" yMin="-10" xMax="425" yMax="503">
      <contour>
        <pt x="275" y="-10" on="1"/>
        <pt x="217" y="-10" on="0"/>
        <pt x="126" y="29" on="0"/>
        <pt x="64" y="98" on="0"/>
        <pt x="31" y="192" on="0"/>
        <pt x="31" y="247" on="1"/>
        <pt x="31" y="302" on="0"/>
        <pt x="63" y="396" on="0"/>
        <pt x="125" y="465" on="0"/>
        <pt x="215" y="503" on="0"/>
        <pt x="274" y="503" on="1"/>
        <pt x="369" y="503" on="0"/>
        <pt x="425" y="471" on="1"/>
        <pt x="412" y="381" on="1"/>
        <pt x="351" y="415" on="0"/>
        <pt x="284" y="415" on="1"/>
        <pt x="211" y="415" on="0"/>
        <pt x="135" y="326" on="0"/>
        <pt x="135" y="247" on="1"/>
        <pt x="135" y="168" on="0"/>
        <pt x="211" y="77" on="0"/>
        <pt x="284" y="77" on="1"/>
        <pt x="353" y="77" on="0"/>
        <pt x="412" y="111" on="1"/>
        <pt x="424" y="27" on="1"/>
        <pt x="366" y="-10" on="0"/>
      </contour>
    </TTGlyph>
    <TTGlyph name="caron" xMin="76" yMin="595" xMax="370" yMax="743">
      <contour>
        <pt x="370" y="691" on="1"/>
        <pt x="223" y="595" on="1"/>
        <pt x="76" y="691" on="1"/>
        <pt x="76" y="743" on="1"/>
        <pt x="223" y="669" on="1"/>
        <pt x="370" y="743" on="1"/>
      </contour>
    </TTGlyph>
    <TTGlyph name="ccaron" xMin="31" yMin="-10" xMax="425" yMax="743">
      <component glyphName="c" x="0" y="0" flags="0x204"/>
      <component glyphName="caron" x="49" y="0" flags="0x4"/>
    </TTGlyph>
    <TTGlyph name="ccedilla" xMin="31" yMin="-193" xMax="425" yMax="503">
      <component glyphName="c" x="0" y="0" flags="0x204"/>
      <component glyphName="cedilla" x="43" y="0" flags="0x4"/>
    </TTGlyph>
    <TTGlyph name="cedilla" xMin="139" yMin="-193" xMax="287" yMax="-53">
      <contour>
        <pt x="287" y="-53" on="1"/>
        <pt x="194" y="-186" on="1"/>
        <pt x="139" y="-193" on="1"/>
        <pt x="208" y="-60" on="1"/>
      </contour>
    </TTGlyph>
    <TTGlyph name="cent" xMin="34" yMin="-31" xMax="426" yMax="748">
      <contour>
        <pt x="321" y="-31" on="1"/>
        <pt x="225" y="-31" on="1"/>
        <pt x="242" y="90" on="1"/>
        <pt x="195" y="96" on="0"/>
        <pt x="118" y="139" on="0"/>
        <pt x="64" y="206" on="0"/>
        <pt x="34" y="294" on="0"/>
        <pt x="34" y="346" on="1"/>
        <pt x="34" y="395" on="0"/>
        <pt x="61" y="484" on="0"/>
        <pt x="114" y="553" on="0"/>
        <pt x="192" y="599" on="0"/>
        <pt x="242" y="606" on="1"/>
        <pt x="225" y="748" on="1"/>
        <pt x="321" y="748" on="1"/>
        <pt x="305" y="607" on="1"/>
        <pt x="348" y="605" on="0"/>
        <pt x="403" y="588" on="0"/>
        <pt x="426" y="574" on="1"/>
        <pt x="417" y="486" on="1"/>
        <pt x="387" y="503" on="0"/>
        <pt x="325" y="522" on="0"/>
        <pt x="293" y="522" on="1"/>
        <pt x="255" y="522" on="0"/>
        <pt x="198" y="495" on="0"/>
        <pt x="160" y="448" on="0"/>
        <pt x="141" y="384" on="0"/>
        <pt x="141" y="347" on="1"/>
        <pt x="141" y="269" on="0"/>
        <pt x="221" y="174" on="0"/>
        <pt x="295" y="174" on="1"/>
        <pt x="356" y="174" on="0"/>
        <pt x="417" y="209" on="1"/>
        <pt x="426" y="121" on="1"/>
        <pt x="408" y="109" on="0"/>
        <pt x="358" y="91" on="0"/>
        <pt x="305" y="88" on="1"/>
      </contour>
    </TTGlyph>
    <TTGlyph name="circumflex" xMin="76" yMin="597" xMax="370" yMax="747">
      <contour>
        <pt x="370" y="597" on="1"/>
        <pt x="223" y="675" on="1"/>
        <pt x="76" y="597" on="1"/>
        <pt x="76" y="646" on="1"/>
        <pt x="223" y="747" on="1"/>
        <pt x="370" y="646" on="1"/>
      </contour>
    </TTGlyph>
    <TTGlyph name="colon" xMin="56" yMin="0" xMax="158" yMax="440">
      <contour>
        <pt x="158" y="339" on="1"/>
        <pt x="56" y="339" on="1"/>
        <pt x="56" y="440" on="1"/>
        <pt x="158" y="440" on="1"/>
      </contour>
      <contour>
        <pt x="158" y="0" on="1"/>
        <pt x="56" y="0" on="1"/>
        <pt x="56" y="101" on="1"/>
        <pt x="158" y="101" on="1"/>
      </contour>
    </TTGlyph>
    <TTGlyph name="comma" xMin="56" yMin="-109" xMax="165" yMax="101">
      <contour>
        <pt x="165" y="0" on="1"/>
        <pt x="80" y="-109" on="1"/>
        <pt x="56" y="-96" on="1"/>
        <pt x="90" y="-9" on="1"/>
        <pt x="57" y="0" on="1"/>
        <pt x="57" y="101" on="1"/>
        <pt x="165" y="101" on="1"/>
      </contour>
    </TTGlyph>
    <TTGlyph name="copyright" xMin="40" yMin="37" xMax="661" yMax="693">
      <contour>
        <pt x="40" y="365" on="1"/>
        <pt x="40" y="439" on="0"/>
        <pt x="86" y="560" on="0"/>
        <pt x="169" y="646" on="0"/>
        <pt x="283" y="693" on="0"/>
        <pt x="351" y="693" on="1"/>
        <pt x="419" y="693" on="0"/>
        <pt x="533" y="646" on="0"/>
        <pt x="615" y="559" on="0"/>
        <pt x="661" y="438" on="0"/>
        <pt x="661" y="365" on="1"/>
        <pt x="661" y="292" on="0"/>
        <pt x="615" y="172" on="0"/>
        <pt x="533" y="85" on="0"/>
        <pt x="419" y="37" on="0"/>
        <pt x="351" y="37" on="1"/>
        <pt x="283" y="37" on="0"/>
        <pt x="168" y="85" on="0"/>
        <pt x="86" y="171" on="0"/>
        <pt x="40" y="292" on="0"/>
      </contour>
      <contour>
        <pt x="351" y="639" on="1"/>
        <pt x="289" y="639" on="0"/>
        <pt x="196" y="598" on="0"/>
        <pt x="133" y="526" on="0"/>
        <pt x="101" y="425" on="0"/>
        <pt x="101" y="365" on="1"/>
        <pt x="101" y="305" on="0"/>
        <pt x="133" y="204" on="0"/>
        <pt x="196" y="131" on="0"/>
        <pt x="289" y="90" on="0"/>
        <pt x="351" y="90" on="1"/>
        <pt x="412" y="90" on="0"/>
        <pt x="505" y="131" on="0"/>
        <pt x="568" y="204" on="0"/>
        <pt x="600" y="305" on="0"/>
        <pt x="600" y="365" on="1"/>
        <pt x="600" y="425" on="0"/>
        <pt x="568" y="526" on="0"/>
        <pt x="505" y="598" on="0"/>
        <pt x="412" y="639" on="0"/>
      </contour>
      <contour>
        <pt x="360" y="195" on="1"/>
        <pt x="325" y="195" on="0"/>
        <pt x="266" y="219" on="0"/>
        <pt x="224" y="263" on="0"/>
        <pt x="200" y="325" on="0"/>
        <pt x="200" y="363" on="1"/>
        <pt x="200" y="441" on="0"/>
        <pt x="288" y="532" on="0"/>
        <pt x="360" y="532" on="1"/>
        <pt x="409" y="532" on="0"/>
        <pt x="454" y="512" on="1"/>
        <pt x="446" y="443" on="1"/>
        <pt x="395" y="464" on="0"/>
        <pt x="360" y="464" on="1"/>
        <pt x="318" y="464" on="0"/>
        <pt x="275" y="409" on="0"/>
        <pt x="275" y="363" on="1"/>
        <pt x="275" y="318" on="0"/>
        <pt x="318" y="262" on="0"/>
        <pt x="360" y="262" on="1"/>
        <pt x="398" y="262" on="0"/>
        <pt x="446" y="284" on="1"/>
        <pt x="454" y="216" on="1"/>
        <pt x="415" y="195" on="0"/>
      </contour>
    </TTGlyph>
    <TTGlyph name="currency" xMin="60" yMin="26" xMax="567" yMax="670">
      <contour>
        <pt x="567" y="59" on="1"/>
        <pt x="527" y="26" on="1"/>
        <pt x="450" y="127" on="1"/>
        <pt x="418" y="109" on="0"/>
        <pt x="348" y="92" on="0"/>
        <pt x="313" y="92" on="1"/>
        <pt x="278" y="92" on="0"/>
        <pt x="208" y="109" on="0"/>
        <pt x="176" y="127" on="1"/>
        <pt x="99" y="26" on="1"/>
        <pt x="60" y="59" on="1"/>
        <pt x="135" y="159" on="1"/>
        <pt x="61" y="239" on="0"/>
        <pt x="61" y="348" on="1"/>
        <pt x="61" y="457" on="0"/>
        <pt x="136" y="537" on="1"/>
        <pt x="60" y="637" on="1"/>
        <pt x="99" y="670" on="1"/>
        <pt x="176" y="569" on="1"/>
        <pt x="244" y="604" on="0"/>
        <pt x="313" y="604" on="1"/>
        <pt x="384" y="604" on="0"/>
        <pt x="450" y="568" on="1"/>
        <pt x="528" y="670" on="1"/>
        <pt x="567" y="637" on="1"/>
        <pt x="491" y="536" on="1"/>
        <pt x="565" y="456" on="0"/>
        <pt x="565" y="348" on="1"/>
        <pt x="565" y="240" on="0"/>
        <pt x="490" y="158" on="1"/>
      </contour>
      <contour>
        <pt x="423" y="477" on="1"/>
        <pt x="384" y="528" on="0"/>
        <pt x="313" y="528" on="1"/>
        <pt x="278" y="528" on="0"/>
        <pt x="223" y="502" on="0"/>
        <pt x="184" y="454" on="0"/>
        <pt x="163" y="388" on="0"/>
        <pt x="163" y="348" on="1"/>
        <pt x="163" y="309" on="0"/>
        <pt x="183" y="243" on="0"/>
        <pt x="221" y="195" on="0"/>
        <pt x="277" y="168" on="0"/>
        <pt x="313" y="168" on="1"/>
        <pt x="349" y="168" on="0"/>
        <pt x="405" y="196" on="0"/>
        <pt x="443" y="244" on="0"/>
        <pt x="463" y="310" on="0"/>
        <pt x="463" y="348" on="1"/>
        <pt x="463" y="428" on="0"/>
      </contour>
    </TTGlyph>
    <TTGlyph name="d" xMin="31" yMin="-10" xMax="501" yMax="750">
      <contour>
        <pt x="501" y="0" on="1"/>
        <pt x="409" y="0" on="1"/>
        <pt x="401" y="50" on="1"/>
        <pt x="375" y="22" on="0"/>
        <pt x="298" y="-10" on="0"/>
        <pt x="261" y="-10" on="1"/>
        <pt x="210" y="-10" on="0"/>
        <pt x="126" y="30" on="0"/>
        <pt x="65" y="99" on="0"/>
        <pt x="31" y="192" on="0"/>
        <pt x="31" y="246" on="1"/>
        <pt x="31" y="299" on="0"/>
        <pt x="63" y="392" on="0"/>
        <pt x="123" y="462" on="0"/>
        <pt x="208" y="503" on="0"/>
        <pt x="261" y="503" on="1"/>
        <pt x="349" y="503" on="0"/>
        <pt x="400" y="451" on="1"/>
        <pt x="400" y="750" on="1"/>
        <pt x="501" y="750" on="1"/>
      </contour>
      <contour>
        <pt x="268" y="415" on="1"/>
        <pt x="238" y="415" on="0"/>
        <pt x="188" y="390" on="0"/>
        <pt x="154" y="346" on="0"/>
        <pt x="135" y="283" on="0"/>
        <pt x="135" y="246" on="1"/>
        <pt x="135" y="210" on="0"/>
        <pt x="154" y="148" on="0"/>
        <pt x="188" y="103" on="0"/>
        <pt x="238" y="78" on="0"/>
        <pt x="268" y="78" on="1"/>
        <pt x="328" y="78" on="0"/>
        <pt x="408" y="163" on="0"/>
        <pt x="408" y="244" on="1"/>
        <pt x="408" y="283" on="0"/>
        <pt x="386" y="347" on="0"/>
        <pt x="348" y="391" on="0"/>
        <pt x="297" y="415" on="0"/>
      </contour>
    </TTGlyph>
    <TTGlyph name="dagger" xMin="35" yMin="0" xMax="389" yMax="607">
      <contour>
        <pt x="389" y="365" on="1"/>
        <pt x="240" y="393" on="1"/>
        <pt x="277" y="254" on="1"/>
        <pt x="247" y="0" on="1"/>
        <pt x="177" y="0" on="1"/>
        <pt x="147" y="254" on="1"/>
        <pt x="184" y="393" on="1"/>
        <pt x="35" y="365" on="1"/>
        <pt x="35" y="466" on="1"/>
        <pt x="182" y="436" on="1"/>
        <pt x="150" y="607" on="1"/>
        <pt x="274" y="607" on="1"/>
        <pt x="242" y="436" on="1"/>
        <pt x="389" y="466" on="1"/>
      </contour>
    </TTGlyph>
    <TTGlyph name="daggerdbl" xMin="53" yMin="-59" xMax="407" yMax="607">
      <contour>
        <pt x="407" y="81" on="1"/>
        <pt x="260" y="110" on="1"/>
        <pt x="292" y="-59" on="1"/>
        <pt x="168" y="-59" on="1"/>
        <pt x="200" y="110" on="1"/>
        <pt x="53" y="81" on="1"/>
        <pt x="53" y="181" on="1"/>
        <pt x="203" y="153" on="1"/>
        <pt x="165" y="274" on="1"/>
        <pt x="203" y="396" on="1"/>
        <pt x="53" y="367" on="1"/>
        <pt x="53" y="468" on="1"/>
        <pt x="200" y="439" on="1"/>
        <pt x="168" y="607" on="1"/>
        <pt x="292" y="607" on="1"/>
        <pt x="260" y="439" on="1"/>
        <pt x="407" y="468" on="1"/>
        <pt x="407" y="367" on="1"/>
        <pt x="257" y="396" on="1"/>
        <pt x="295" y="274" on="1"/>
        <pt x="257" y="153" on="1"/>
        <pt x="407" y="181" on="1"/>
      </contour>
    </TTGlyph>
    <TTGlyph name="degree" xMin="33" yMin="482" xMax="298" yMax="755">
      <contour>
        <pt x="165" y="482" on="1"/>
        <pt x="135" y="482" on="0"/>
        <pt x="86" y="503" on="0"/>
        <pt x="52" y="539" on="0"/>
        <pt x="33" y="589" on="0"/>
        <pt x="33" y="618" on="1"/>
        <pt x="33" y="647" on="0"/>
        <pt x="52" y="697" on="0"/>
        <pt x="86" y="734" on="0"/>
        <pt x="135" y="755" on="0"/>
        <pt x="165" y="755" on="1"/>
        <pt x="195" y="755" on="0"/>
        <pt x="245" y="734" on="0"/>
        <pt x="279" y="697" on="0"/>
        <pt x="298" y="647" on="0"/>
        <pt x="298" y="618" on="1"/>
        <pt x="298" y="589" on="0"/>
        <pt x="279" y="539" on="0"/>
        <pt x="245" y="503" on="0"/>
        <pt x="195" y="482" on="0"/>
      </contour>
      <contour>
        <pt x="165" y="720" on="1"/>
        <pt x="128" y="720" on="0"/>
        <pt x="85" y="661" on="0"/>
        <pt x="85" y="618" on="1"/>
        <pt x="85" y="576" on="0"/>
        <pt x="128" y="517" on="0"/>
        <pt x="165" y="517" on="1"/>
        <pt x="204" y="517" on="0"/>
        <pt x="245" y="575" on="0"/>
        <pt x="245" y="618" on="1"/>
        <pt x="245" y="661" on="0"/>
        <pt x="203" y="720" on="0"/>
      </contour>
    </TTGlyph>
    <TTGlyph name="dieresis" xMin="87" yMin="598" xMax="335" yMax="700">
      <contour>
        <pt x="335" y="598" on="1"/>
        <pt x="256" y="598" on="1"/>
        <pt x="256" y="700" on="1"/>
        <pt x="335" y="700" on="1"/>
      </contour>
      <contour>
        <pt x="166" y="598" on="1"/>
        <pt x="87" y="598" on="1"/>
        <pt x="87" y="700" on="1"/>
        <pt x="166" y="700" on="1"/>
      </contour>
    </TTGlyph>
    <TTGlyph name="divide" xMin="63" yMin="20" xMax="523" yMax="534">
      <contour>
        <pt x="339" y="428" on="1"/>
        <pt x="238" y="428" on="1"/>
        <pt x="238" y="534" on="1"/>
        <pt x="339" y="534" on="1"/>
      </contour>
      <contour>
        <pt x="523" y="240" on="1"/>
        <pt x="63" y="240" on="1"/>
        <pt x="63" y="321" on="1"/>
        <pt x="523" y="321" on="1"/>
      </contour>
      <contour>
        <pt x="339" y="20" on="1"/>
        <pt x="238" y="20" on="1"/>
        <pt x="238" y="126" on="1"/>
        <pt x="339" y="126" on="1"/>
      </contour>
    </TTGlyph>
    <TTGlyph name="dollar" xMin="41" yMin="-32" xMax="481" yMax="748">
      <contour>
        <pt x="289" y="81" on="1"/>
        <pt x="305" y="-32" on="1"/>
        <pt x="209" y="-32" on="1"/>
        <pt x="226" y="80" on="1"/>
        <pt x="108" y="86" on="0"/>
        <pt x="50" y="119" on="1"/>
        <pt x="64" y="234" on="1"/>
        <pt x="136" y="174" on="0"/>
        <pt x="251" y="174" on="1"/>
        <pt x="358" y="174" on="0"/>
        <pt x="358" y="234" on="1"/>
        <pt x="358" y="262" on="0"/>
        <pt x="311" y="297" on="0"/>
        <pt x="241" y="322" on="0"/>
        <pt x="158" y="346" on="0"/>
        <pt x="88" y="380" on="0"/>
        <pt x="41" y="433" on="0"/>
        <pt x="41" y="475" on="1"/>
        <pt x="41" y="503" on="0"/>
        <pt x="63" y="556" on="0"/>
        <pt x="108" y="599" on="0"/>
        <pt x="178" y="627" on="0"/>
        <pt x="226" y="632" on="1"/>
        <pt x="209" y="748" on="1"/>
        <pt x="305" y="748" on="1"/>
        <pt x="289" y="632" on="1"/>
        <pt x="393" y="626" on="0"/>
        <pt x="449" y="594" on="1"/>
        <pt x="440" y="492" on="1"/>
        <pt x="335" y="542" on="0"/>
        <pt x="271" y="542" on="1"/>
        <pt x="153" y="542" on="0"/>
        <pt x="153" y="487" on="1"/>
        <pt x="153" y="460" on="0"/>
        <pt x="202" y="430" on="0"/>
        <pt x="274" y="407" on="0"/>
        <pt x="360" y="384" on="0"/>
        <pt x="432" y="346" on="0"/>
        <pt x="481" y="285" on="0"/>
        <pt x="481" y="235" on="1"/>
        <pt x="481" y="212" on="0"/>
        <pt x="466" y="162" on="0"/>
        <pt x="424" y="119" on="0"/>
        <pt x="349" y="86" on="0"/>
      </contour>
    </TTGlyph>
    <TTGlyph name="dotlessi" xMin="60" yMin="0" xMax="162" yMax="493">
      <contour>
        <pt x="162" y="0" on="1"/>
        <pt x="60" y="0" on="1"/>
        <pt x="60" y="493" on="1"/>
        <pt x="162" y="493" on="1"/>
      </contour>
    </TTGlyph>
    <TTGlyph name="e" xMin="31" yMin="-10" xMax="485" yMax="503">
      <contour>
        <pt x="480" y="237" on="1"/>
        <pt x="136" y="237" on="1"/>
        <pt x="152" y="78" on="0"/>
        <pt x="308" y="78" on="1"/>
        <pt x="385" y="78" on="0"/>
        <pt x="453" y="111" on="1"/>
        <pt x="463" y="28" on="1"/>
        <pt x="382" y="-10" on="0"/>
        <pt x="298" y="-10" on="1"/>
        <pt x="235" y="-10" on="0"/>
        <pt x="135" y="30" on="0"/>
        <pt x="67" y="99" on="0"/>
        <pt x="31" y="194" on="0"/>
        <pt x="31" y="249" on="1"/>
        <pt x="31" y="302" on="0"/>
        <pt x="65" y="395" on="0"/>
        <pt x="127" y="464" on="0"/>
        <pt x="216" y="503" on="0"/>
        <pt x="271" y="503" on="1"/>
        <pt x="318" y="503" on="0"/>
        <pt x="397" y="473" on="0"/>
        <pt x="454" y="418" on="0"/>
        <pt x="485" y="340" on="0"/>
        <pt x="485" y="292" on="1"/>
        <pt x="485" y="277" on="0"/>
        <pt x="482" y="250" on="0"/>
      </contour>
      <contour>
        <pt x="271" y="415" on="1"/>
        <pt x="167" y="415" on="0"/>
        <pt x="142" y="307" on="1"/>
        <pt x="381" y="307" on="1"/>
        <pt x="381" y="356" on="0"/>
        <pt x="326" y="415" on="0"/>
      </contour>
    </TTGlyph>
    <TTGlyph name="eacute" xMin="31" yMin="-10" xMax="485" yMax="738">
      <component glyphName="e" x="0" y="0" flags="0x204"/>
      <component glyphName="acute" x="106" y="0" flags="0x4"/>
    </TTGlyph>
    <TTGlyph name="ecircumflex" xMin="31" yMin="-10" xMax="485" yMax="747">
      <component glyphName="e" x="0" y="0" flags="0x204"/>
      <component glyphName="circumflex" x="34" y="0" flags="0x4"/>
    </TTGlyph>
    <TTGlyph name="edieresis" xMin="31" yMin="-10" xMax="485" yMax="700">
      <component glyphName="e" x="0" y="0" flags="0x204"/>
      <component glyphName="dieresis" x="46" y="0" flags="0x4"/>
    </TTGlyph>
    <TTGlyph name="egrave" xMin="31" yMin="-10" xMax="485" yMax="738">
      <component glyphName="e" x="0" y="0" flags="0x204"/>
      <component glyphName="grave" x="106" y="0" flags="0x4"/>
    </TTGlyph>
    <TTGlyph name="eight" xMin="58" yMin="-14" xMax="548" yMax="713">
      <contour>
        <pt x="294" y="-14" on="1"/>
        <pt x="235" y="-14" on="0"/>
        <pt x="147" y="18" on="0"/>
        <pt x="88" y="74" on="0"/>
        <pt x="58" y="147" on="0"/>
        <pt x="58" y="188" on="1"/>
        <pt x="58" y="302" on="0"/>
        <pt x="183" y="376" on="1"/>
        <pt x="98" y="443" on="0"/>
        <pt x="98" y="539" on="1"/>
        <pt x="98" y="575" on="0"/>
        <pt x="121" y="639" on="0"/>
        <pt x="171" y="686" on="0"/>
        <pt x="251" y="713" on="0"/>
        <pt x="307" y="713" on="1"/>
        <pt x="360" y="713" on="0"/>
        <pt x="436" y="689" on="0"/>
        <pt x="486" y="646" on="0"/>
        <pt x="509" y="588" on="0"/>
        <pt x="509" y="554" on="1"/>
        <pt x="509" y="528" on="0"/>
        <pt x="498" y="485" on="0"/>
        <pt x="472" y="446" on="0"/>
        <pt x="432" y="408" on="0"/>
        <pt x="403" y="387" on="1"/>
        <pt x="548" y="332" on="0"/>
        <pt x="548" y="200" on="1"/>
        <pt x="548" y="160" on="0"/>
        <pt x="516" y="83" on="0"/>
        <pt x="452" y="23" on="0"/>
        <pt x="357" y="-14" on="0"/>
      </contour>
      <contour>
        <pt x="194" y="531" on="1"/>
        <pt x="194" y="497" on="0"/>
        <pt x="246" y="440" on="0"/>
        <pt x="297" y="422" on="1"/>
        <pt x="354" y="438" on="0"/>
        <pt x="406" y="501" on="0"/>
        <pt x="406" y="540" on="1"/>
        <pt x="406" y="578" on="0"/>
        <pt x="354" y="623" on="0"/>
        <pt x="302" y="623" on="1"/>
        <pt x="250" y="623" on="0"/>
        <pt x="194" y="573" on="0"/>
      </contour>
      <contour>
        <pt x="305" y="336" on="1"/>
        <pt x="245" y="325" on="0"/>
        <pt x="168" y="251" on="0"/>
        <pt x="168" y="191" on="1"/>
        <pt x="168" y="136" on="0"/>
        <pt x="236" y="78" on="0"/>
        <pt x="299" y="78" on="1"/>
        <pt x="360" y="78" on="0"/>
        <pt x="438" y="145" on="0"/>
        <pt x="438" y="199" on="1"/>
        <pt x="438" y="251" on="0"/>
        <pt x="363" y="322" on="0"/>
      </contour>
    </TTGlyph>
    <TTGlyph name="ellipsis" xMin="56" yMin="0" xMax="630" yMax="101">
      <contour>
        <pt x="158" y="0" on="1"/>
        <pt x="56" y="0" on="1"/>
        <pt x="56" y="101" on="1"/>
        <pt x="158" y="101" on="1"/>
      </contour>
      <contour>
        <pt x="394" y="0" on="1"/>
        <pt x="292" y="0" on="1"/>
        <pt x="292" y="101" on="1"/>
        <pt x="394" y="101" on="1"/>
      </contour>
      <contour>
        <pt x="630" y="0" on="1"/>
        <pt x="528" y="0" on="1"/>
        <pt x="528" y="101" on="1"/>
        <pt x="630" y="101" on="1"/>
      </contour>
    </TTGlyph>
    <TTGlyph name="emdash" xMin="56" yMin="235" xMax="536" yMax="324">
      <contour>
        <pt x="536" y="235" on="1"/>
        <pt x="56" y="235" on="1"/>
        <pt x="56" y="324" on="1"/>
        <pt x="536" y="324" on="1"/>
      </contour>
    </TTGlyph>
    <TTGlyph name="endash" xMin="56" yMin="235" xMax="444" yMax="324">
      <contour>
        <pt x="444" y="235" on="1"/>
        <pt x="56" y="235" on="1"/>
        <pt x="56" y="324" on="1"/>
        <pt x="444" y="324" on="1"/>
      </contour>
    </TTGlyph>
    <TTGlyph name="equal" xMin="65" yMin="157" xMax="435" yMax="397">
      <contour>
        <pt x="435" y="315" on="1"/>
        <pt x="65" y="315" on="1"/>
        <pt x="65" y="397" on="1"/>
        <pt x="435" y="397" on="1"/>
      </contour>
      <contour>
        <pt x="435" y="157" on="1"/>
        <pt x="65" y="157" on="1"/>
        <pt x="65" y="239" on="1"/>
        <pt x="435" y="239" on="1"/>
      </contour>
    </TTGlyph>
    <TTGlyph name="eth" xMin="22" yMin="-12" xMax="478" yMax="710">
      <contour>
        <pt x="245" y="-12" on="1"/>
        <pt x="197" y="-12" on="0"/>
        <pt x="116" y="20" on="0"/>
        <pt x="56" y="77" on="0"/>
        <pt x="22" y="155" on="0"/>
        <pt x="22" y="202" on="1"/>
        <pt x="22" y="245" on="0"/>
        <pt x="50" y="326" on="0"/>
        <pt x="104" y="388" on="0"/>
        <pt x="183" y="426" on="0"/>
        <pt x="234" y="426" on="1"/>
        <pt x="312" y="426" on="0"/>
        <pt x="362" y="377" on="1"/>
        <pt x="360" y="397" on="0"/>
        <pt x="345" y="449" on="0"/>
        <pt x="323" y="500" on="0"/>
        <pt x="296" y="542" on="0"/>
        <pt x="283" y="552" on="1"/>
        <pt x="209" y="501" on="0"/>
        <pt x="143" y="492" on="1"/>
        <pt x="110" y="553" on="1"/>
        <pt x="172" y="561" on="0"/>
        <pt x="235" y="603" on="1"/>
        <pt x="176" y="655" on="0"/>
        <pt x="115" y="655" on="1"/>
        <pt x="150" y="701" on="1"/>
        <pt x="221" y="701" on="0"/>
        <pt x="298" y="647" on="1"/>
        <pt x="333" y="677" on="0"/>
        <pt x="356" y="710" on="1"/>
        <pt x="409" y="697" on="1"/>
        <pt x="377" y="650" on="0"/>
        <pt x="340" y="610" on="1"/>
        <pt x="371" y="579" on="0"/>
        <pt x="422" y="499" on="0"/>
        <pt x="458" y="408" on="0"/>
        <pt x="478" y="308" on="0"/>
        <pt x="478" y="257" on="1"/>
        <pt x="478" y="177" on="0"/>
        <pt x="433" y="73" on="0"/>
        <pt x="365" y="12" on="0"/>
        <pt x="282" y="-12" on="0"/>
      </contour>
      <contour>
        <pt x="248" y="338" on="1"/>
        <pt x="221" y="338" on="0"/>
        <pt x="177" y="318" on="0"/>
        <pt x="146" y="284" on="0"/>
        <pt x="129" y="238" on="0"/>
        <pt x="129" y="213" on="1"/>
        <pt x="129" y="184" on="0"/>
        <pt x="146" y="135" on="0"/>
        <pt x="177" y="98" on="0"/>
        <pt x="221" y="77" on="0"/>
        <pt x="248" y="77" on="1"/>
        <pt x="299" y="77" on="0"/>
        <pt x="364" y="148" on="0"/>
        <pt x="364" y="208" on="1"/>
        <pt x="364" y="268" on="0"/>
        <pt x="302" y="338" on="0"/>
      </contour>
    </TTGlyph>
    <TTGlyph name="exclam" xMin="60" yMin="0" xMax="184" yMax="750">
      <contour>
        <pt x="184" y="750" on="1"/>
        <pt x="157" y="200" on="1"/>
        <pt x="87" y="200" on="1"/>
        <pt x="60" y="750" on="1"/>
      </contour>
      <contour>
        <pt x="171" y="0" on="1"/>
        <pt x="73" y="0" on="1"/>
        <pt x="73" y="99" on="1"/>
        <pt x="171" y="99" on="1"/>
      </contour>
    </TTGlyph>
    <TTGlyph name="exclamdown" xMin="58" yMin="-250" xMax="182" yMax="500">
      <contour>
        <pt x="58" y="-250" on="1"/>
        <pt x="85" y="300" on="1"/>
        <pt x="155" y="300" on="1"/>
        <pt x="182" y="-250" on="1"/>
      </contour>
      <contour>
        <pt x="71" y="500" on="1"/>
        <pt x="169" y="500" on="1"/>
        <pt x="169" y="401" on="1"/>
        <pt x="71" y="401" on="1"/>
      </contour>
    </TTGlyph>
    <TTGlyph name="f" xMin="12" yMin="0" xMax="318" yMax="750">
      <contour>
        <pt x="318" y="412" on="1"/>
        <pt x="194" y="412" on="1"/>
        <pt x="194" y="0" on="1"/>
        <pt x="92" y="0" on="1"/>
        <pt x="92" y="412" on="1"/>
        <pt x="12" y="412" on="1"/>
        <pt x="23" y="493" on="1"/>
        <pt x="92" y="493" on="1"/>
        <pt x="92" y="616" on="1"/>
        <pt x="92" y="674" on="0"/>
        <pt x="151" y="750" on="0"/>
        <pt x="208" y="750" on="1"/>
        <pt x="270" y="750" on="0"/>
        <pt x="314" y="739" on="1"/>
        <pt x="301" y="654" on="1"/>
        <pt x="271" y="662" on="0"/>
        <pt x="243" y="662" on="1"/>
        <pt x="227" y="662" on="0"/>
        <pt x="208" y="655" on="0"/>
        <pt x="197" y="633" on="0"/>
        <pt x="194" y="591" on="0"/>
        <pt x="194" y="556" on="1"/>
        <pt x="194" y="493" on="1"/>
        <pt x="318" y="493" on="1"/>
      </contour>
    </TTGlyph>
    <TTGlyph name="five" xMin="51" yMin="-14" xMax="489" yMax="700">
      <contour>
        <pt x="224" y="-14" on="1"/>
        <pt x="199" y="-14" on="0"/>
        <pt x="142" y="-5" on="0"/>
        <pt x="92" y="9" on="0"/>
        <pt x="55" y="25" on="0"/>
        <pt x="51" y="31" on="1"/>
        <pt x="76" y="129" on="1"/>
        <pt x="143" y="84" on="0"/>
        <pt x="222" y="84" on="1"/>
        <pt x="254" y="84" on="0"/>
        <pt x="311" y="105" on="0"/>
        <pt x="353" y="143" on="0"/>
        <pt x="378" y="197" on="0"/>
        <pt x="378" y="230" on="1"/>
        <pt x="378" y="288" on="0"/>
        <pt x="288" y="347" on="0"/>
        <pt x="181" y="347" on="1"/>
        <pt x="88" y="347" on="1"/>
        <pt x="131" y="700" on="1"/>
        <pt x="450" y="700" on="1"/>
        <pt x="439" y="601" on="1"/>
        <pt x="214" y="601" on="1"/>
        <pt x="195" y="440" on="1"/>
        <pt x="351" y="439" on="0"/>
        <pt x="489" y="340" on="0"/>
        <pt x="489" y="234" on="1"/>
        <pt x="489" y="178" on="0"/>
        <pt x="446" y="87" on="0"/>
        <pt x="373" y="22" on="0"/>
        <pt x="277" y="-14" on="0"/>
      </contour>
    </TTGlyph>
    <TTGlyph name="florin" xMin="-34" yMin="-241" xMax="374" yMax="714">
      <contour>
        <pt x="374" y="703" on="1"/>
        <pt x="365" y="634" on="1"/>
        <pt x="347" y="642" on="0"/>
        <pt x="328" y="642" on="1"/>
        <pt x="301" y="642" on="0"/>
        <pt x="262" y="627" on="0"/>
        <pt x="235" y="593" on="0"/>
        <pt x="218" y="536" on="0"/>
        <pt x="211" y="493" on="1"/>
        <pt x="351" y="493" on="1"/>
        <pt x="345" y="428" on="1"/>
        <pt x="199" y="428" on="1"/>
        <pt x="116" y="-88" on="1"/>
        <pt x="109" y="-129" on="0"/>
        <pt x="82" y="-186" on="0"/>
        <pt x="49" y="-224" on="0"/>
        <pt x="15" y="-241" on="0"/>
        <pt x="1" y="-241" on="1"/>
        <pt x="-19" y="-241" on="1"/>
        <pt x="-34" y="-165" on="1"/>
        <pt x="-3" y="-161" on="0"/>
        <pt x="28" y="-119" on="0"/>
        <pt x="36" y="-71" on="1"/>
        <pt x="113" y="428" on="1"/>
        <pt x="24" y="428" on="1"/>
        <pt x="32" y="493" on="1"/>
        <pt x="123" y="493" on="1"/>
        <pt x="131" y="547" on="1"/>
        <pt x="137" y="586" on="0"/>
        <pt x="169" y="648" on="0"/>
        <pt x="217" y="691" on="0"/>
        <pt x="279" y="714" on="0"/>
        <pt x="315" y="714" on="1"/>
        <pt x="335" y="714" on="0"/>
      </contour>
    </TTGlyph>
    <TTGlyph name="four" xMin="13" yMin="0" xMax="509" yMax="700">
      <contour>
        <pt x="509" y="190" on="1"/>
        <pt x="424" y="190" on="1"/>
        <pt x="424" y="0" on="1"/>
        <pt x="314" y="0" on="1"/>
        <pt x="314" y="190" on="1"/>
        <pt x="13" y="190" on="1"/>
        <pt x="335" y="700" on="1"/>
        <pt x="424" y="700" on="1"/>
        <pt x="424" y="282" on="1"/>
        <pt x="509" y="282" on="1"/>
      </contour>
      <contour>
        <pt x="314" y="282" on="1"/>
        <pt x="314" y="521" on="1"/>
        <pt x="170" y="282" on="1"/>
      </contour>
    </TTGlyph>
    <TTGlyph name="g" xMin="26" yMin="-250" xMax="501" yMax="503">
      <contour>
        <pt x="257" y="-250" on="1"/>
        <pt x="200" y="-250" on="0"/>
        <pt x="113" y="-226" on="0"/>
        <pt x="55" y="-185" on="0"/>
        <pt x="26" y="-132" on="0"/>
        <pt x="26" y="-102" on="1"/>
        <pt x="26" y="-25" on="0"/>
        <pt x="111" y="9" on="1"/>
        <pt x="63" y="34" on="0"/>
        <pt x="63" y="74" on="1"/>
        <pt x="63" y="120" on="0"/>
        <pt x="118" y="145" on="1"/>
        <pt x="36" y="205" on="0"/>
        <pt x="36" y="306" on="1"/>
        <pt x="36" y="348" on="0"/>
        <pt x="64" y="421" on="0"/>
        <pt x="116" y="473" on="0"/>
        <pt x="190" y="503" on="0"/>
        <pt x="237" y="503" on="1"/>
        <pt x="306" y="503" on="0"/>
        <pt x="358" y="469" on="1"/>
        <pt x="408" y="495" on="0"/>
        <pt x="473" y="495" on="1"/>
        <pt x="489" y="495" on="1"/>
        <pt x="479" y="429" on="1"/>
        <pt x="449" y="429" on="1"/>
        <pt x="440" y="429" on="0"/>
        <pt x="416" y="426" on="0"/>
        <pt x="401" y="424" on="1"/>
        <pt x="441" y="375" on="0"/>
        <pt x="441" y="309" on="1"/>
        <pt x="441" y="270" on="0"/>
        <pt x="414" y="199" on="0"/>
        <pt x="363" y="145" on="0"/>
        <pt x="289" y="113" on="0"/>
        <pt x="242" y="113" on="1"/>
        <pt x="211" y="113" on="0"/>
        <pt x="177" y="121" on="1"/>
        <pt x="158" y="111" on="0"/>
        <pt x="158" y="96" on="1"/>
        <pt x="158" y="86" on="0"/>
        <pt x="169" y="74" on="0"/>
        <pt x="201" y="65" on="0"/>
        <pt x="257" y="55" on="0"/>
        <pt x="301" y="48" on="1"/>
        <pt x="334" y="42" on="0"/>
        <pt x="403" y="25" on="0"/>
        <pt x="461" y="-6" on="0"/>
        <pt x="499" y="-56" on="0"/>
        <pt x="501" y="-94" on="1"/>
        <pt x="501" y="-127" on="0"/>
        <pt x="468" y="-184" on="0"/>
        <pt x="405" y="-226" on="0"/>
        <pt x="314" y="-250" on="0"/>
      </contour>
      <contour>
        <pt x="238" y="424" on="1"/>
        <pt x="187" y="424" on="0"/>
        <pt x="131" y="360" on="0"/>
        <pt x="131" y="308" on="1"/>
        <pt x="131" y="253" on="0"/>
        <pt x="188" y="190" on="0"/>
        <pt x="239" y="190" on="1"/>
        <pt x="290" y="190" on="0"/>
        <pt x="346" y="256" on="0"/>
        <pt x="346" y="310" on="1"/>
        <pt x="346" y="364" on="0"/>
        <pt x="289" y="424" on="0"/>
      </contour>
      <contour>
        <pt x="272" y="-27" on="1"/>
        <pt x="260" y="-27" on="0"/>
        <pt x="221" y="-21" on="0"/>
        <pt x="193" y="-16" on="1"/>
        <pt x="160" y="-27" on="0"/>
        <pt x="118" y="-71" on="0"/>
        <pt x="118" y="-97" on="1"/>
        <pt x="118" y="-131" on="0"/>
        <pt x="192" y="-174" on="0"/>
        <pt x="258" y="-174" on="1"/>
        <pt x="324" y="-174" on="0"/>
        <pt x="403" y="-130" on="0"/>
        <pt x="403" y="-99" on="1"/>
        <pt x="403" y="-48" on="0"/>
      </contour>
    </TTGlyph>
    <TTGlyph name="germandbls" xMin="13" yMin="-136" xMax="545" yMax="750">
      <contour>
        <pt x="323" y="-10" on="1"/>
        <pt x="306" y="-10" on="0"/>
        <pt x="283" y="-8" on="0"/>
        <pt x="269" y="-6" on="1"/>
        <pt x="269" y="78" on="1"/>
        <pt x="310" y="78" on="0"/>
        <pt x="374" y="80" on="0"/>
        <pt x="418" y="93" on="0"/>
        <pt x="441" y="121" on="0"/>
        <pt x="441" y="147" on="1"/>
        <pt x="441" y="174" on="0"/>
        <pt x="417" y="219" on="0"/>
        <pt x="382" y="258" on="0"/>
        <pt x="341" y="291" on="0"/>
        <pt x="306" y="322" on="0"/>
        <pt x="282" y="351" on="0"/>
        <pt x="282" y="367" on="1"/>
        <pt x="282" y="386" on="0"/>
        <pt x="313" y="427" on="0"/>
        <pt x="351" y="476" on="0"/>
        <pt x="382" y="536" on="0"/>
        <pt x="382" y="574" on="1"/>
        <pt x="382" y="599" on="0"/>
        <pt x="367" y="633" on="0"/>
        <pt x="342" y="654" on="0"/>
        <pt x="308" y="662" on="0"/>
        <pt x="290" y="662" on="1"/>
        <pt x="242" y="662" on="0"/>
        <pt x="195" y="612" on="0"/>
        <pt x="195" y="552" on="1"/>
        <pt x="195" y="-136" on="1"/>
        <pt x="93" y="-136" on="1"/>
        <pt x="93" y="412" on="1"/>
        <pt x="13" y="412" on="1"/>
        <pt x="24" y="493" on="1"/>
        <pt x="93" y="493" on="1"/>
        <pt x="93" y="569" on="1"/>
        <pt x="93" y="612" on="0"/>
        <pt x="125" y="679" on="0"/>
        <pt x="179" y="726" on="0"/>
        <pt x="251" y="750" on="0"/>
        <pt x="292" y="750" on="1"/>
        <pt x="328" y="750" on="0"/>
        <pt x="396" y="731" on="0"/>
        <pt x="450" y="690" on="0"/>
        <pt x="483" y="624" on="0"/>
        <pt x="483" y="578" on="1"/>
        <pt x="483" y="534" on="0"/>
        <pt x="455" y="468" on="0"/>
        <pt x="420" y="418" on="0"/>
        <pt x="392" y="384" on="0"/>
        <pt x="392" y="374" on="1"/>
        <pt x="392" y="365" on="0"/>
        <pt x="415" y="344" on="0"/>
        <pt x="449" y="316" on="0"/>
        <pt x="488" y="281" on="0"/>
        <pt x="522" y="237" on="0"/>
        <pt x="545" y="181" on="0"/>
        <pt x="545" y="147" on="1"/>
        <pt x="545" y="104" on="0"/>
        <pt x="508" y="44" on="0"/>
        <pt x="446" y="7" on="0"/>
        <pt x="366" y="-10" on="0"/>
      </contour>
    </TTGlyph>
    <TTGlyph name="grave" xMin="58" yMin="592" xMax="245" yMax="738">
      <contour>
        <pt x="245" y="592" on="1"/>
        <pt x="58" y="655" on="1"/>
        <pt x="58" y="738" on="1"/>
        <pt x="245" y="645" on="1"/>
      </contour>
    </TTGlyph>
    <TTGlyph name="greater" xMin="59" yMin="78" xMax="387" yMax="490">
      <contour>
        <pt x="387" y="284" on="1"/>
        <pt x="172" y="78" on="1"/>
        <pt x="59" y="78" on="1"/>
        <pt x="274" y="284" on="1"/>
        <pt x="59" y="490" on="1"/>
        <pt x="172" y="490" on="1"/>
      </contour>
    </TTGlyph>
    <TTGlyph name="guillemotleft" xMin="14" yMin="78" xMax="540" yMax="490">
      <contour>
        <pt x="540" y="78" on="1"/>
        <pt x="423" y="78" on="1"/>
        <pt x="274" y="284" on="1"/>
        <pt x="423" y="490" on="1"/>
        <pt x="540" y="490" on="1"/>
        <pt x="391" y="284" on="1"/>
      </contour>
      <contour>
        <pt x="279" y="78" on="1"/>
        <pt x="163" y="78" on="1"/>
        <pt x="14" y="284" on="1"/>
        <pt x="163" y="490" on="1"/>
        <pt x="279" y="490" on="1"/>
        <pt x="131" y="284" on="1"/>
      </contour>
    </TTGlyph>
    <TTGlyph name="guillemotright" xMin="40" yMin="78" xMax="565" yMax="490">
      <contour>
        <pt x="565" y="284" on="1"/>
        <pt x="417" y="78" on="1"/>
        <pt x="300" y="78" on="1"/>
        <pt x="449" y="284" on="1"/>
        <pt x="300" y="490" on="1"/>
        <pt x="417" y="490" on="1"/>
      </contour>
      <contour>
        <pt x="306" y="284" on="1"/>
        <pt x="157" y="78" on="1"/>
        <pt x="40" y="78" on="1"/>
        <pt x="190" y="284" on="1"/>
        <pt x="40" y="490" on="1"/>
        <pt x="157" y="490" on="1"/>
      </contour>
    </TTGlyph>
    <TTGlyph name="guilsinglleft" xMin="13" yMin="78" xMax="292" yMax="490">
      <contour>
        <pt x="292" y="78" on="1"/>
        <pt x="170" y="78" on="1"/>
        <pt x="13" y="284" on="1"/>
        <pt x="170" y="490" on="1"/>
        <pt x="292" y="490" on="1"/>
        <pt x="135" y="284" on="1"/>
      </contour>
    </TTGlyph>
    <TTGlyph name="guilsinglright" xMin="40" yMin="78" xMax="319" yMax="490">
      <contour>
        <pt x="319" y="284" on="1"/>
        <pt x="162" y="78" on="1"/>
        <pt x="40" y="78" on="1"/>
        <pt x="197" y="284" on="1"/>
        <pt x="40" y="490" on="1"/>
        <pt x="162" y="490" on="1"/>
      </contour>
    </TTGlyph>
    <TTGlyph name="h" xMin="60" yMin="0" xMax="491" yMax="750">
      <contour>
        <pt x="491" y="0" on="1"/>
        <pt x="389" y="0" on="1"/>
        <pt x="389" y="264" on="1"/>
        <pt x="389" y="346" on="0"/>
        <pt x="339" y="415" on="0"/>
        <pt x="278" y="415" on="1"/>
        <pt x="199" y="415" on="0"/>
        <pt x="162" y="358" on="1"/>
        <pt x="162" y="0" on="1"/>
        <pt x="60" y="0" on="1"/>
        <pt x="60" y="750" on="1"/>
        <pt x="162" y="750" on="1"/>
        <pt x="162" y="450" on="1"/>
        <pt x="212" y="503" on="0"/>
        <pt x="291" y="503" on="1"/>
        <pt x="491" y="503" on="0"/>
        <pt x="491" y="264" on="1"/>
      </contour>
    </TTGlyph>
    <TTGlyph name="hyphen" xMin="56" yMin="235" xMax="366" yMax="324">
      <contour>
        <pt x="366" y="235" on="1"/>
        <pt x="56" y="235" on="1"/>
        <pt x="56" y="324" on="1"/>
        <pt x="366" y="324" on="1"/>
      </contour>
    </TTGlyph>
    <TTGlyph name="i" xMin="60" yMin="0" xMax="162" yMax="700">
      <contour>
        <pt x="162" y="592" on="1"/>
        <pt x="60" y="592" on="1"/>
        <pt x="60" y="700" on="1"/>
        <pt x="162" y="700" on="1"/>
      </contour>
      <contour>
        <pt x="162" y="0" on="1"/>
        <pt x="60" y="0" on="1"/>
        <pt x="60" y="493" on="1"/>
        <pt x="162" y="493" on="1"/>
      </contour>
    </TTGlyph>
    <TTGlyph name="iacute" xMin="20" yMin="0" xMax="207" yMax="738">
      <component glyphName="dotlessi" x="0" y="0" flags="0x204"/>
      <component glyphName="acute" x="-38" y="0" flags="0x4"/>
    </TTGlyph>
    <TTGlyph name="icircumflex" xMin="-35" yMin="0" xMax="259" yMax="747">
      <component glyphName="dotlessi" x="0" y="0" flags="0x204"/>
      <component glyphName="circumflex" x="-111" y="0" flags="0x4"/>
    </TTGlyph>
    <TTGlyph name="idieresis" xMin="-12" yMin="0" xMax="236" yMax="700">
      <component glyphName="dotlessi" x="0" y="0" flags="0x204"/>
      <component glyphName="dieresis" x="-99" y="0" flags="0x4"/>
    </TTGlyph>
    <TTGlyph name="igrave" xMin="19" yMin="0" xMax="206" yMax="738">
      <component glyphName="dotlessi" x="0" y="0" flags="0x204"/>
      <component glyphName="grave" x="-39" y="0" flags="0x4"/>
    </TTGlyph>
    <TTGlyph name="j" xMin="-8" yMin="-242" xMax="162" yMax="700">
      <contour>
        <pt x="37" y="-239" on="1"/>
        <pt x="2" y="-242" on="1"/>
        <pt x="-8" y="-162" on="1"/>
        <pt x="14" y="-161" on="0"/>
        <pt x="40" y="-153" on="0"/>
        <pt x="55" y="-134" on="0"/>
        <pt x="60" y="-99" on="0"/>
        <pt x="60" y="-69" on="1"/>
        <pt x="60" y="493" on="1"/>
        <pt x="162" y="493" on="1"/>
        <pt x="162" y="-108" on="1"/>
        <pt x="162" y="-169" on="0"/>
        <pt x="91" y="-234" on="0"/>
      </contour>
      <contour>
        <pt x="162" y="592" on="1"/>
        <pt x="60" y="592" on="1"/>
        <pt x="60" y="700" on="1"/>
        <pt x="162" y="700" on="1"/>
      </contour>
    </TTGlyph>
    <TTGlyph name="k" xMin="60" yMin="0" xMax="458" yMax="750">
      <contour>
        <pt x="162" y="0" on="1"/>
        <pt x="60" y="0" on="1"/>
        <pt x="60" y="750" on="1"/>
        <pt x="162" y="750" on="1"/>
        <pt x="162" y="278" on="1"/>
        <pt x="335" y="493" on="1"/>
        <pt x="455" y="493" on="1"/>
        <pt x="259" y="263" on="1"/>
        <pt x="458" y="0" on="1"/>
        <pt x="338" y="0" on="1"/>
        <pt x="162" y="240" on="1"/>
      </contour>
    </TTGlyph>
    <TTGlyph name="l" xMin="59" yMin="-10" xMax="233" yMax="750">
      <contour>
        <pt x="233" y="72" on="1"/>
        <pt x="220" y="-10" on="1"/>
        <pt x="186" y="-10" on="1"/>
        <pt x="121" y="-10" on="0"/>
        <pt x="59" y="60" on="0"/>
        <pt x="59" y="112" on="1"/>
        <pt x="59" y="750" on="1"/>
        <pt x="160" y="750" on="1"/>
        <pt x="160" y="164" on="1"/>
        <pt x="160" y="133" on="0"/>
        <pt x="165" y="97" on="0"/>
        <pt x="180" y="78" on="0"/>
        <pt x="209" y="72" on="0"/>
      </contour>
    </TTGlyph>
    <TTGlyph name="less" xMin="30" yMin="78" xMax="358" yMax="490">
      <contour>
        <pt x="358" y="78" on="1"/>
        <pt x="245" y="78" on="1"/>
        <pt x="30" y="284" on="1"/>
        <pt x="245" y="490" on="1"/>
        <pt x="358" y="490" on="1"/>
        <pt x="143" y="284" on="1"/>
      </contour>
    </TTGlyph>
    <TTGlyph name="logicalnot" xMin="64" yMin="151" xMax="524" yMax="406">
      <contour>
        <pt x="524" y="151" on="1"/>
        <pt x="456" y="151" on="1"/>
        <pt x="456" y="334" on="1"/>
        <pt x="64" y="334" on="1"/>
        <pt x="64" y="406" on="1"/>
        <pt x="524" y="406" on="1"/>
      </contour>
    </TTGlyph>
    <TTGlyph name="m" xMin="60" yMin="0" xMax="818" yMax="503">
      <contour>
        <pt x="818" y="0" on="1"/>
        <pt x="717" y="0" on="1"/>
        <pt x="717" y="281" on="1"/>
        <pt x="717" y="351" on="0"/>
        <pt x="666" y="415" on="0"/>
        <pt x="609" y="415" on="1"/>
        <pt x="490" y="415" on="0"/>
        <pt x="490" y="293" on="1"/>
        <pt x="490" y="0" on="1"/>
        <pt x="388" y="0" on="1"/>
        <pt x="388" y="270" on="1"/>
        <pt x="388" y="352" on="0"/>
        <pt x="334" y="415" on="0"/>
        <pt x="279" y="415" on="1"/>
        <pt x="197" y="415" on="0"/>
        <pt x="162" y="359" on="1"/>
        <pt x="162" y="0" on="1"/>
        <pt x="60" y="0" on="1"/>
        <pt x="60" y="493" on="1"/>
        <pt x="141" y="493" on="1"/>
        <pt x="150" y="446" on="1"/>
        <pt x="214" y="503" on="0"/>
        <pt x="290" y="503" on="1"/>
        <pt x="400" y="503" on="0"/>
        <pt x="452" y="412" on="1"/>
        <pt x="500" y="503" on="0"/>
        <pt x="626" y="503" on="1"/>
        <pt x="722" y="503" on="0"/>
        <pt x="818" y="391" on="0"/>
        <pt x="818" y="282" on="1"/>
      </contour>
    </TTGlyph>
    <TTGlyph name="multiply" xMin="59" yMin="116" xMax="382" yMax="438">
      <contour>
        <pt x="382" y="160" on="1"/>
        <pt x="337" y="116" on="1"/>
        <pt x="220" y="233" on="1"/>
        <pt x="103" y="116" on="1"/>
        <pt x="59" y="160" on="1"/>
        <pt x="176" y="277" on="1"/>
        <pt x="59" y="394" on="1"/>
        <pt x="103" y="438" on="1"/>
        <pt x="220" y="321" on="1"/>
        <pt x="337" y="438" on="1"/>
        <pt x="382" y="394" on="1"/>
        <pt x="264" y="277" on="1"/>
      </contour>
    </TTGlyph>
    <TTGlyph name="n" xMin="60" yMin="0" xMax="502" yMax="503">
      <contour>
        <pt x="502" y="0" on="1"/>
        <pt x="400" y="0" on="1"/>
        <pt x="400" y="270" on="1"/>
        <pt x="400" y="346" on="0"/>
        <pt x="345" y="415" on="0"/>
        <pt x="282" y="415" on="1"/>
        <pt x="196" y="415" on="0"/>
        <pt x="162" y="358" on="1"/>
        <pt x="162" y="0" on="1"/>
        <pt x="60" y="0" on="1"/>
        <pt x="60" y="493" on="1"/>
        <pt x="146" y="493" on="1"/>
        <pt x="153" y="449" on="1"/>
        <pt x="216" y="503" on="0"/>
        <pt x="297" y="503" on="1"/>
        <pt x="502" y="503" on="0"/>
        <pt x="502" y="270" on="1"/>
      </contour>
    </TTGlyph>
    <TTGlyph name="nine" xMin="44" yMin="0" xMax="506" yMax="714">
      <contour>
        <pt x="287" y="714" on="1"/>
        <pt x="335" y="714" on="0"/>
        <pt x="415" y="685" on="0"/>
        <pt x="473" y="622" on="0"/>
        <pt x="506" y="525" on="0"/>
        <pt x="506" y="457" on="1"/>
        <pt x="506" y="355" on="0"/>
        <pt x="447" y="186" on="0"/>
        <pt x="359" y="66" on="0"/>
        <pt x="256" y="0" on="0"/>
        <pt x="212" y="0" on="1"/>
        <pt x="136" y="42" on="1"/>
        <pt x="171" y="54" on="0"/>
        <pt x="254" y="102" on="0"/>
        <pt x="328" y="174" on="0"/>
        <pt x="382" y="270" on="0"/>
        <pt x="389" y="329" on="1"/>
        <pt x="380" y="317" on="0"/>
        <pt x="349" y="298" on="0"/>
        <pt x="313" y="286" on="0"/>
        <pt x="274" y="279" on="0"/>
        <pt x="256" y="279" on="1"/>
        <pt x="157" y="279" on="0"/>
        <pt x="44" y="380" on="0"/>
        <pt x="44" y="480" on="1"/>
        <pt x="44" y="529" on="0"/>
        <pt x="79" y="615" on="0"/>
        <pt x="143" y="678" on="0"/>
        <pt x="233" y="714" on="0"/>
      </contour>
      <contour>
        <pt x="266" y="369" on="1"/>
        <pt x="294" y="369" on="0"/>
        <pt x="343" y="387" on="0"/>
        <pt x="379" y="421" on="0"/>
        <pt x="399" y="469" on="0"/>
        <pt x="399" y="499" on="1"/>
        <pt x="399" y="529" on="0"/>
        <pt x="380" y="574" on="0"/>
        <pt x="347" y="605" on="0"/>
        <pt x="302" y="620" on="0"/>
        <pt x="277" y="620" on="1"/>
        <pt x="248" y="620" on="0"/>
        <pt x="201" y="599" on="0"/>
        <pt x="168" y="562" on="0"/>
        <pt x="151" y="513" on="0"/>
        <pt x="151" y="485" on="1"/>
        <pt x="151" y="461" on="0"/>
        <pt x="164" y="419" on="0"/>
        <pt x="192" y="388" on="0"/>
        <pt x="236" y="369" on="0"/>
      </contour>
    </TTGlyph>
    <TTGlyph name="ntilde" xMin="60" yMin="0" xMax="502" yMax="709">
      <component glyphName="n" x="0" y="0" flags="0x204"/>
      <component glyphName="tilde" x="12" y="0" flags="0x4"/>
    </TTGlyph>
    <TTGlyph name="numbersign" xMin="32" yMin="-11" xMax="674" yMax="700">
      <contour>
        <pt x="643" y="420" on="1"/>
        <pt x="528" y="420" on="1"/>
        <pt x="482" y="303" on="1"/>
        <pt x="609" y="303" on="1"/>
        <pt x="569" y="214" on="1"/>
        <pt x="449" y="214" on="1"/>
        <pt x="363" y="-11" on="1"/>
        <pt x="278" y="-11" on="1"/>
        <pt x="363" y="214" on="1"/>
        <pt x="237" y="214" on="1"/>
        <pt x="151" y="-11" on="1"/>
        <pt x="66" y="-11" on="1"/>
        <pt x="151" y="214" on="1"/>
        <pt x="32" y="214" on="1"/>
        <pt x="71" y="303" on="1"/>
        <pt x="185" y="303" on="1"/>
        <pt x="230" y="420" on="1"/>
        <pt x="106" y="420" on="1"/>
        <pt x="136" y="509" on="1"/>
        <pt x="264" y="509" on="1"/>
        <pt x="338" y="700" on="1"/>
        <pt x="423" y="700" on="1"/>
        <pt x="349" y="509" on="1"/>
        <pt x="475" y="509" on="1"/>
        <pt x="550" y="700" on="1"/>
        <pt x="635" y="700" on="1"/>
        <pt x="561" y="509" on="1"/>
        <pt x="674" y="509" on="1"/>
      </contour>
      <contour>
        <pt x="316" y="420" on="1"/>
        <pt x="270" y="303" on="1"/>
        <pt x="396" y="303" on="1"/>
        <pt x="442" y="420" on="1"/>
      </contour>
    </TTGlyph>
    <TTGlyph name="o" xMin="31" yMin="-10" xMax="524" yMax="503">
      <contour>
        <pt x="277" y="-10" on="1"/>
        <pt x="221" y="-10" on="0"/>
        <pt x="130" y="29" on="0"/>
        <pt x="66" y="98" on="0"/>
        <pt x="31" y="191" on="0"/>
        <pt x="31" y="246" on="1"/>
        <pt x="31" y="300" on="0"/>
        <pt x="65" y="394" on="0"/>
        <pt x="129" y="463" on="0"/>
        <pt x="220" y="503" on="0"/>
        <pt x="277" y="503" on="1"/>
        <pt x="334" y="503" on="0"/>
        <pt x="425" y="463" on="0"/>
        <pt x="490" y="393" on="0"/>
        <pt x="524" y="300" on="0"/>
        <pt x="524" y="246" on="1"/>
        <pt x="524" y="192" on="0"/>
        <pt x="490" y="99" on="0"/>
        <pt x="426" y="30" on="0"/>
        <pt x="334" y="-10" on="0"/>
      </contour>
      <contour>
        <pt x="382" y="370" on="1"/>
        <pt x="344" y="415" on="0"/>
        <pt x="277" y="415" on="1"/>
        <pt x="209" y="415" on="0"/>
        <pt x="135" y="325" on="0"/>
        <pt x="135" y="246" on="1"/>
        <pt x="135" y="167" on="0"/>
        <pt x="208" y="78" on="0"/>
        <pt x="277" y="78" on="1"/>
        <pt x="346" y="78" on="0"/>
        <pt x="420" y="168" on="0"/>
        <pt x="420" y="246" on="1"/>
        <pt x="420" y="324" on="0"/>
      </contour>
    </TTGlyph>
    <TTGlyph name="oacute" xMin="31" yMin="-10" xMax="524" yMax="738">
      <component glyphName="o" x="0" y="0" flags="0x204"/>
      <component glyphName="acute" x="125" y="0" flags="0x4"/>
    </TTGlyph>
    <TTGlyph name="ocircumflex" xMin="31" yMin="-10" xMax="524" yMax="747">
      <component glyphName="o" x="0" y="0" flags="0x204"/>
      <component glyphName="circumflex" x="54" y="0" flags="0x4"/>
    </TTGlyph>
    <TTGlyph name="odieresis" xMin="31" yMin="-10" xMax="524" yMax="700">
      <component glyphName="o" x="0" y="0" flags="0x204"/>
      <component glyphName="dieresis" x="66" y="0" flags="0x4"/>
    </TTGlyph>
    <TTGlyph name="oe" xMin="30" yMin="-10" xMax="870" yMax="503">
      <contour>
        <pt x="865" y="237" on="1"/>
        <pt x="529" y="237" on="1"/>
        <pt x="530" y="186" on="0"/>
        <pt x="562" y="122" on="0"/>
        <pt x="608" y="86" on="0"/>
        <pt x="661" y="72" on="0"/>
        <pt x="683" y="72" on="1"/>
        <pt x="764" y="72" on="0"/>
        <pt x="838" y="111" on="1"/>
        <pt x="847" y="24" on="1"/>
        <pt x="776" y="-10" on="0"/>
        <pt x="689" y="-10" on="1"/>
        <pt x="528" y="-10" on="0"/>
        <pt x="474" y="88" on="1"/>
        <pt x="449" y="42" on="0"/>
        <pt x="342" y="-10" on="0"/>
        <pt x="278" y="-10" on="1"/>
        <pt x="221" y="-10" on="0"/>
        <pt x="129" y="30" on="0"/>
        <pt x="64" y="100" on="0"/>
        <pt x="30" y="195" on="0"/>
        <pt x="30" y="250" on="1"/>
        <pt x="30" y="304" on="0"/>
        <pt x="65" y="397" on="0"/>
        <pt x="130" y="465" on="0"/>
        <pt x="223" y="503" on="0"/>
        <pt x="281" y="503" on="1"/>
        <pt x="341" y="503" on="0"/>
        <pt x="446" y="454" on="0"/>
        <pt x="471" y="409" on="1"/>
        <pt x="499" y="454" on="0"/>
        <pt x="600" y="503" on="0"/>
        <pt x="655" y="503" on="1"/>
        <pt x="702" y="503" on="0"/>
        <pt x="781" y="474" on="0"/>
        <pt x="838" y="419" on="0"/>
        <pt x="870" y="342" on="0"/>
        <pt x="870" y="294" on="1"/>
        <pt x="870" y="282" on="0"/>
        <pt x="867" y="254" on="0"/>
      </contour>
      <contour>
        <pt x="655" y="415" on="1"/>
        <pt x="553" y="415" on="0"/>
        <pt x="531" y="307" on="1"/>
        <pt x="766" y="307" on="1"/>
        <pt x="763" y="356" on="0"/>
        <pt x="706" y="415" on="0"/>
      </contour>
      <contour>
        <pt x="281" y="415" on="1"/>
        <pt x="209" y="415" on="0"/>
        <pt x="134" y="327" on="0"/>
        <pt x="134" y="246" on="1"/>
        <pt x="134" y="167" on="0"/>
        <pt x="210" y="78" on="0"/>
        <pt x="280" y="78" on="1"/>
        <pt x="349" y="78" on="0"/>
        <pt x="423" y="172" on="0"/>
        <pt x="423" y="248" on="1"/>
        <pt x="423" y="323" on="0"/>
        <pt x="348" y="415" on="0"/>
      </contour>
    </TTGlyph>
    <TTGlyph name="ograve" xMin="31" yMin="-10" xMax="524" yMax="738">
      <component glyphName="o" x="0" y="0" flags="0x204"/>
      <component glyphName="grave" x="124" y="0" flags="0x4"/>
    </TTGlyph>
    <TTGlyph name="one" xMin="38" yMin="0" xMax="260" yMax="700">
      <contour>
        <pt x="260" y="0" on="1"/>
        <pt x="151" y="0" on="1"/>
        <pt x="151" y="548" on="1"/>
        <pt x="125" y="528" on="0"/>
        <pt x="75" y="502" on="0"/>
        <pt x="52" y="495" on="1"/>
        <pt x="38" y="591" on="1"/>
        <pt x="57" y="597" on="0"/>
        <pt x="99" y="620" on="0"/>
        <pt x="138" y="649" on="0"/>
        <pt x="170" y="683" on="0"/>
        <pt x="179" y="700" on="1"/>
        <pt x="260" y="700" on="1"/>
      </contour>
    </TTGlyph>
    <TTGlyph name="onehalf" xMin="37" yMin="-85" xMax="695" yMax="700">
      <component glyphName="uni00B9" x="12" y="0" flags="0x4"/>
      <component glyphName="slash" x="40" y="0" flags="0x4"/>
      <component glyphName="uni00B2" x="421" y="-319" flags="0x4"/>
    </TTGlyph>
    <TTGlyph name="onequarter" xMin="39" yMin="-85" xMax="689" yMax="700">
      <component glyphName="uni00B9" x="14" y="0" flags="0x4"/>
      <component glyphName="slash" x="42" y="0" flags="0x4"/>
      <component glyphName="uni2074" x="379" y="-319" flags="0x4"/>
    </TTGlyph>
    <TTGlyph name="ordfeminine" xMin="33" yMin="434" xMax="318" yMax="727">
      <contour>
        <pt x="318" y="503" on="1"/>
        <pt x="312" y="434" on="1"/>
        <pt x="274" y="434" on="1"/>
        <pt x="256" y="434" on="0"/>
        <pt x="219" y="450" on="0"/>
        <pt x="211" y="461" on="1"/>
        <pt x="182" y="434" on="0"/>
        <pt x="118" y="434" on="1"/>
        <pt x="82" y="434" on="0"/>
        <pt x="33" y="479" on="0"/>
        <pt x="33" y="521" on="1"/>
        <pt x="33" y="551" on="0"/>
        <pt x="70" y="589" on="0"/>
        <pt x="123" y="612" on="0"/>
        <pt x="179" y="622" on="0"/>
        <pt x="198" y="623" on="1"/>
        <pt x="194" y="657" on="0"/>
        <pt x="149" y="657" on="1"/>
        <pt x="118" y="657" on="0"/>
        <pt x="64" y="639" on="1"/>
        <pt x="59" y="706" on="1"/>
        <pt x="114" y="727" on="0"/>
        <pt x="172" y="727" on="1"/>
        <pt x="223" y="727" on="0"/>
        <pt x="284" y="679" on="0"/>
        <pt x="284" y="628" on="1"/>
        <pt x="284" y="539" on="1"/>
        <pt x="284" y="516" on="0"/>
        <pt x="293" y="503" on="0"/>
        <pt x="306" y="503" on="1"/>
      </contour>
      <contour>
        <pt x="199" y="505" on="1"/>
        <pt x="199" y="568" on="1"/>
        <pt x="190" y="567" on="0"/>
        <pt x="164" y="561" on="0"/>
        <pt x="140" y="549" on="0"/>
        <pt x="123" y="534" on="0"/>
        <pt x="123" y="524" on="1"/>
        <pt x="123" y="496" on="0"/>
        <pt x="160" y="496" on="1"/>
        <pt x="182" y="496" on="0"/>
      </contour>
    </TTGlyph>
    <TTGlyph name="ordmasculine" xMin="32" yMin="434" xMax="342" yMax="727">
      <contour>
        <pt x="300" y="477" on="1"/>
        <pt x="258" y="434" on="0"/>
        <pt x="187" y="434" on="1"/>
        <pt x="152" y="434" on="0"/>
        <pt x="94" y="457" on="0"/>
        <pt x="54" y="497" on="0"/>
        <pt x="32" y="551" on="0"/>
        <pt x="32" y="581" on="1"/>
        <pt x="32" y="612" on="0"/>
        <pt x="54" y="665" on="0"/>
        <pt x="95" y="704" on="0"/>
        <pt x="152" y="727" on="0"/>
        <pt x="187" y="727" on="1"/>
        <pt x="222" y="727" on="0"/>
        <pt x="279" y="704" on="0"/>
        <pt x="320" y="665" on="0"/>
        <pt x="342" y="612" on="0"/>
        <pt x="342" y="581" on="1"/>
        <pt x="342" y="520" on="0"/>
      </contour>
      <contour>
        <pt x="236" y="639" on="1"/>
        <pt x="227" y="650" on="0"/>
        <pt x="201" y="662" on="0"/>
        <pt x="187" y="662" on="1"/>
        <pt x="155" y="662" on="0"/>
        <pt x="119" y="615" on="0"/>
        <pt x="119" y="581" on="1"/>
        <pt x="119" y="547" on="0"/>
        <pt x="155" y="500" on="0"/>
        <pt x="187" y="500" on="1"/>
        <pt x="218" y="500" on="0"/>
        <pt x="255" y="548" on="0"/>
        <pt x="255" y="581" on="1"/>
        <pt x="255" y="614" on="0"/>
      </contour>
    </TTGlyph>
    <TTGlyph name="oslash" xMin="31" yMin="-35" xMax="537" yMax="534">
      <contour>
        <pt x="284" y="-9" on="1"/>
        <pt x="266" y="-9" on="0"/>
        <pt x="226" y="-4" on="0"/>
        <pt x="204" y="1" on="1"/>
        <pt x="186" y="-35" on="1"/>
        <pt x="102" y="-35" on="1"/>
        <pt x="136" y="34" on="1"/>
        <pt x="31" y="112" on="0"/>
        <pt x="31" y="249" on="1"/>
        <pt x="31" y="304" on="0"/>
        <pt x="67" y="398" on="0"/>
        <pt x="133" y="467" on="0"/>
        <pt x="226" y="507" on="0"/>
        <pt x="283" y="507" on="1"/>
        <pt x="319" y="507" on="0"/>
        <pt x="361" y="496" on="1"/>
        <pt x="379" y="534" on="1"/>
        <pt x="466" y="534" on="1"/>
        <pt x="430" y="465" on="1"/>
        <pt x="537" y="384" on="0"/>
        <pt x="537" y="248" on="1"/>
        <pt x="537" y="194" on="0"/>
        <pt x="502" y="101" on="0"/>
        <pt x="436" y="31" on="0"/>
        <pt x="342" y="-9" on="0"/>
      </contour>
      <contour>
        <pt x="391" y="381" on="1"/>
        <pt x="241" y="77" on="1"/>
        <pt x="257" y="75" on="0"/>
        <pt x="278" y="72" on="0"/>
        <pt x="285" y="72" on="1"/>
        <pt x="319" y="72" on="0"/>
        <pt x="373" y="98" on="0"/>
        <pt x="410" y="145" on="0"/>
        <pt x="430" y="209" on="0"/>
        <pt x="430" y="248" on="1"/>
        <pt x="430" y="267" on="0"/>
        <pt x="425" y="307" on="0"/>
        <pt x="415" y="343" on="0"/>
        <pt x="400" y="372" on="0"/>
      </contour>
      <contour>
        <pt x="283" y="426" on="1"/>
        <pt x="214" y="426" on="0"/>
        <pt x="138" y="327" on="0"/>
        <pt x="138" y="248" on="1"/>
        <pt x="138" y="185" on="0"/>
        <pt x="176" y="117" on="1"/>
        <pt x="324" y="420" on="1"/>
        <pt x="295" y="426" on="0"/>
      </contour>
    </TTGlyph>
    <TTGlyph name="otilde" xMin="31" yMin="-10" xMax="524" yMax="709">
      <component glyphName="o" x="0" y="0" flags="0x204"/>
      <component glyphName="tilde" x="13" y="0" flags="0x4"/>
    </TTGlyph>
    <TTGlyph name="p" xMin="60" yMin="-242" xMax="530" yMax="503">
      <contour>
        <pt x="302" y="-10" on="1"/>
        <pt x="265" y="-10" on="0"/>
        <pt x="187" y="21" on="0"/>
        <pt x="161" y="49" on="1"/>
        <pt x="161" y="-242" on="1"/>
        <pt x="60" y="-242" on="1"/>
        <pt x="60" y="493" on="1"/>
        <pt x="143" y="493" on="1"/>
        <pt x="153" y="438" on="1"/>
        <pt x="185" y="471" on="0"/>
        <pt x="253" y="503" on="0"/>
        <pt x="303" y="503" on="1"/>
        <pt x="356" y="503" on="0"/>
        <pt x="440" y="462" on="0"/>
        <pt x="499" y="391" on="0"/>
        <pt x="530" y="298" on="0"/>
        <pt x="530" y="246" on="1"/>
        <pt x="530" y="191" on="0"/>
        <pt x="500" y="98" on="0"/>
        <pt x="442" y="29" on="0"/>
        <pt x="357" y="-10" on="0"/>
      </contour>
      <contour>
        <pt x="293" y="415" on="1"/>
        <pt x="263" y="415" on="0"/>
        <pt x="213" y="392" on="0"/>
        <pt x="177" y="348" on="0"/>
        <pt x="156" y="285" on="0"/>
        <pt x="156" y="246" on="1"/>
        <pt x="156" y="165" on="0"/>
        <pt x="233" y="78" on="0"/>
        <pt x="293" y="78" on="1"/>
        <pt x="323" y="78" on="0"/>
        <pt x="373" y="103" on="0"/>
        <pt x="407" y="148" on="0"/>
        <pt x="426" y="210" on="0"/>
        <pt x="426" y="246" on="1"/>
        <pt x="426" y="321" on="0"/>
        <pt x="356" y="415" on="0"/>
      </contour>
    </TTGlyph>
    <TTGlyph name="paragraph" xMin="33" yMin="0" xMax="580" yMax="700">
      <contour>
        <pt x="580" y="619" on="1"/>
        <pt x="507" y="619" on="1"/>
        <pt x="507" y="0" on="1"/>
        <pt x="445" y="0" on="1"/>
        <pt x="445" y="619" on="1"/>
        <pt x="358" y="619" on="1"/>
        <pt x="358" y="0" on="1"/>
        <pt x="307" y="0" on="1"/>
        <pt x="307" y="238" on="1"/>
        <pt x="240" y="242" on="0"/>
        <pt x="137" y="282" on="0"/>
        <pt x="68" y="345" on="0"/>
        <pt x="33" y="426" on="0"/>
        <pt x="33" y="471" on="1"/>
        <pt x="33" y="517" on="0"/>
        <pt x="71" y="600" on="0"/>
        <pt x="144" y="663" on="0"/>
        <pt x="251" y="700" on="0"/>
        <pt x="321" y="700" on="1"/>
        <pt x="580" y="700" on="1"/>
      </contour>
    </TTGlyph>
    <TTGlyph name="parenleft" xMin="40" yMin="-136" xMax="242" yMax="750">
      <contour>
        <pt x="242" y="-136" on="1"/>
        <pt x="151" y="-136" on="1"/>
        <pt x="123" y="-91" on="0"/>
        <pt x="81" y="2" on="0"/>
        <pt x="54" y="108" on="0"/>
        <pt x="40" y="232" on="0"/>
        <pt x="40" y="307" on="1"/>
        <pt x="40" y="383" on="0"/>
        <pt x="54" y="507" on="0"/>
        <pt x="82" y="613" on="0"/>
        <pt x="123" y="705" on="0"/>
        <pt x="151" y="750" on="1"/>
        <pt x="242" y="750" on="1"/>
        <pt x="122" y="550" on="0"/>
        <pt x="122" y="307" on="1"/>
        <pt x="122" y="63" on="0"/>
      </contour>
    </TTGlyph>
    <TTGlyph name="parenright" xMin="24" yMin="-136" xMax="226" yMax="750">
      <contour>
        <pt x="115" y="-136" on="1"/>
        <pt x="24" y="-136" on="1"/>
        <pt x="144" y="63" on="0"/>
        <pt x="144" y="307" on="1"/>
        <pt x="144" y="550" on="0"/>
        <pt x="24" y="750" on="1"/>
        <pt x="115" y="750" on="1"/>
        <pt x="143" y="705" on="0"/>
        <pt x="184" y="613" on="0"/>
        <pt x="212" y="507" on="0"/>
        <pt x="226" y="383" on="0"/>
        <pt x="226" y="307" on="1"/>
        <pt x="226" y="232" on="0"/>
        <pt x="212" y="108" on="0"/>
        <pt x="185" y="2" on="0"/>
        <pt x="143" y="-91" on="0"/>
      </contour>
    </TTGlyph>
    <TTGlyph name="percent" xMin="34" yMin="-12" xMax="805" yMax="705">
      <contour>
        <pt x="241" y="-12" on="1"/>
        <pt x="156" y="-12" on="1"/>
        <pt x="577" y="700" on="1"/>
        <pt x="661" y="700" on="1"/>
      </contour>
      <contour>
        <pt x="181" y="334" on="1"/>
        <pt x="115" y="334" on="0"/>
        <pt x="34" y="429" on="0"/>
        <pt x="34" y="515" on="1"/>
        <pt x="34" y="560" on="0"/>
        <pt x="58" y="631" on="0"/>
        <pt x="100" y="679" on="0"/>
        <pt x="155" y="705" on="0"/>
        <pt x="186" y="705" on="1"/>
        <pt x="217" y="705" on="0"/>
        <pt x="271" y="681" on="0"/>
        <pt x="311" y="634" on="0"/>
        <pt x="333" y="567" on="0"/>
        <pt x="333" y="524" on="1"/>
        <pt x="333" y="433" on="0"/>
        <pt x="248" y="334" on="0"/>
      </contour>
      <contour>
        <pt x="185" y="646" on="1"/>
        <pt x="150" y="646" on="0"/>
        <pt x="98" y="578" on="0"/>
        <pt x="98" y="515" on="1"/>
        <pt x="98" y="456" on="0"/>
        <pt x="147" y="393" on="0"/>
        <pt x="182" y="393" on="1"/>
        <pt x="220" y="393" on="0"/>
        <pt x="269" y="461" on="0"/>
        <pt x="269" y="524" on="1"/>
        <pt x="269" y="582" on="0"/>
        <pt x="218" y="646" on="0"/>
      </contour>
      <contour>
        <pt x="653" y="-12" on="1"/>
        <pt x="587" y="-12" on="0"/>
        <pt x="506" y="83" on="0"/>
        <pt x="506" y="169" on="1"/>
        <pt x="506" y="214" on="0"/>
        <pt x="530" y="285" on="0"/>
        <pt x="572" y="333" on="0"/>
        <pt x="627" y="359" on="0"/>
        <pt x="658" y="359" on="1"/>
        <pt x="689" y="359" on="0"/>
        <pt x="743" y="335" on="0"/>
        <pt x="783" y="288" on="0"/>
        <pt x="805" y="221" on="0"/>
        <pt x="805" y="178" on="1"/>
        <pt x="805" y="87" on="0"/>
        <pt x="720" y="-12" on="0"/>
      </contour>
      <contour>
        <pt x="657" y="300" on="1"/>
        <pt x="622" y="300" on="0"/>
        <pt x="570" y="232" on="0"/>
        <pt x="570" y="169" on="1"/>
        <pt x="570" y="110" on="0"/>
        <pt x="619" y="47" on="0"/>
        <pt x="654" y="47" on="1"/>
        <pt x="692" y="47" on="0"/>
        <pt x="741" y="115" on="0"/>
        <pt x="741" y="178" on="1"/>
        <pt x="741" y="236" on="0"/>
        <pt x="690" y="300" on="0"/>
      </contour>
    </TTGlyph>
    <TTGlyph name="period" xMin="56" yMin="0" xMax="158" yMax="101">
      <contour>
        <pt x="158" y="0" on="1"/>
        <pt x="56" y="0" on="1"/>
        <pt x="56" y="101" on="1"/>
        <pt x="158" y="101" on="1"/>
      </contour>
    </TTGlyph>
    <TTGlyph name="periodcentered" xMin="56" yMin="213" xMax="180" yMax="343">
      <contour>
        <pt x="180" y="213" on="1"/>
        <pt x="56" y="213" on="1"/>
        <pt x="56" y="343" on="1"/>
        <pt x="180" y="343" on="1"/>
      </contour>
    </TTGlyph>
    <TTGlyph name="perthousand" xMin="35" yMin="-12" xMax="1165" yMax="705">
      <contour>
        <pt x="242" y="-12" on="1"/>
        <pt x="157" y="-12" on="1"/>
        <pt x="578" y="700" on="1"/>
        <pt x="662" y="700" on="1"/>
      </contour>
      <contour>
        <pt x="182" y="334" on="1"/>
        <pt x="116" y="334" on="0"/>
        <pt x="35" y="429" on="0"/>
        <pt x="35" y="515" on="1"/>
        <pt x="35" y="560" on="0"/>
        <pt x="59" y="631" on="0"/>
        <pt x="101" y="679" on="0"/>
        <pt x="156" y="705" on="0"/>
        <pt x="187" y="705" on="1"/>
        <pt x="218" y="705" on="0"/>
        <pt x="272" y="681" on="0"/>
        <pt x="312" y="634" on="0"/>
        <pt x="334" y="567" on="0"/>
        <pt x="334" y="524" on="1"/>
        <pt x="334" y="433" on="0"/>
        <pt x="249" y="334" on="0"/>
      </contour>
      <contour>
        <pt x="186" y="646" on="1"/>
        <pt x="151" y="646" on="0"/>
        <pt x="99" y="578" on="0"/>
        <pt x="99" y="515" on="1"/>
        <pt x="99" y="456" on="0"/>
        <pt x="148" y="393" on="0"/>
        <pt x="183" y="393" on="1"/>
        <pt x="221" y="393" on="0"/>
        <pt x="270" y="461" on="0"/>
        <pt x="270" y="524" on="1"/>
        <pt x="270" y="582" on="0"/>
        <pt x="219" y="646" on="0"/>
      </contour>
      <contour>
        <pt x="654" y="-12" on="1"/>
        <pt x="588" y="-12" on="0"/>
        <pt x="507" y="83" on="0"/>
        <pt x="507" y="169" on="1"/>
        <pt x="507" y="214" on="0"/>
        <pt x="531" y="285" on="0"/>
        <pt x="573" y="333" on="0"/>
        <pt x="628" y="359" on="0"/>
        <pt x="659" y="359" on="1"/>
        <pt x="690" y="359" on="0"/>
        <pt x="744" y="335" on="0"/>
        <pt x="784" y="288" on="0"/>
        <pt x="806" y="221" on="0"/>
        <pt x="806" y="178" on="1"/>
        <pt x="806" y="87" on="0"/>
        <pt x="721" y="-12" on="0"/>
      </contour>
      <contour>
        <pt x="658" y="300" on="1"/>
        <pt x="623" y="300" on="0"/>
        <pt x="571" y="232" on="0"/>
        <pt x="571" y="169" on="1"/>
        <pt x="571" y="110" on="0"/>
        <pt x="620" y="47" on="0"/>
        <pt x="655" y="47" on="1"/>
        <pt x="693" y="47" on="0"/>
        <pt x="742" y="115" on="0"/>
        <pt x="742" y="178" on="1"/>
        <pt x="742" y="236" on="0"/>
        <pt x="691" y="300" on="0"/>
      </contour>
      <contour>
        <pt x="1013" y="-12" on="1"/>
        <pt x="948" y="-12" on="0"/>
        <pt x="866" y="83" on="0"/>
        <pt x="866" y="169" on="1"/>
        <pt x="866" y="214" on="0"/>
        <pt x="890" y="285" on="0"/>
        <pt x="932" y="333" on="0"/>
        <pt x="987" y="359" on="0"/>
        <pt x="1018" y="359" on="1"/>
        <pt x="1049" y="359" on="0"/>
        <pt x="1104" y="335" on="0"/>
        <pt x="1143" y="288" on="0"/>
        <pt x="1165" y="221" on="0"/>
        <pt x="1165" y="178" on="1"/>
        <pt x="1165" y="87" on="0"/>
        <pt x="1080" y="-12" on="0"/>
      </contour>
      <contour>
        <pt x="1017" y="300" on="1"/>
        <pt x="982" y="300" on="0"/>
        <pt x="930" y="232" on="0"/>
        <pt x="930" y="169" on="1"/>
        <pt x="930" y="110" on="0"/>
        <pt x="979" y="47" on="0"/>
        <pt x="1014" y="47" on="1"/>
        <pt x="1052" y="47" on="0"/>
        <pt x="1101" y="115" on="0"/>
        <pt x="1101" y="178" on="1"/>
        <pt x="1101" y="236" on="0"/>
        <pt x="1051" y="300" on="0"/>
      </contour>
    </TTGlyph>
    <TTGlyph name="plus" xMin="45" yMin="102" xMax="415" yMax="452">
      <contour>
        <pt x="415" y="235" on="1"/>
        <pt x="272" y="235" on="1"/>
        <pt x="272" y="102" on="1"/>
        <pt x="188" y="102" on="1"/>
        <pt x="188" y="235" on="1"/>
        <pt x="45" y="235" on="1"/>
        <pt x="45" y="324" on="1"/>
        <pt x="188" y="324" on="1"/>
        <pt x="188" y="452" on="1"/>
        <pt x="272" y="452" on="1"/>
        <pt x="272" y="324" on="1"/>
        <pt x="415" y="324" on="1"/>
      </contour>
    </TTGlyph>
    <TTGlyph name="plusminus" xMin="62" yMin="38" xMax="432" yMax="532">
      <contour>
        <pt x="432" y="321" on="1"/>
        <pt x="284" y="321" on="1"/>
        <pt x="284" y="183" on="1"/>
        <pt x="210" y="183" on="1"/>
        <pt x="210" y="321" on="1"/>
        <pt x="62" y="321" on="1"/>
        <pt x="62" y="397" on="1"/>
        <pt x="210" y="397" on="1"/>
        <pt x="210" y="532" on="1"/>
        <pt x="284" y="532" on="1"/>
        <pt x="284" y="397" on="1"/>
        <pt x="432" y="397" on="1"/>
      </contour>
      <contour>
        <pt x="432" y="38" on="1"/>
        <pt x="62" y="38" on="1"/>
        <pt x="62" y="114" on="1"/>
        <pt x="432" y="114" on="1"/>
      </contour>
    </TTGlyph>
    <TTGlyph name="q" xMin="31" yMin="-242" xMax="501" yMax="503">
      <contour>
        <pt x="258" y="-10" on="1"/>
        <pt x="204" y="-10" on="0"/>
        <pt x="120" y="28" on="0"/>
        <pt x="61" y="96" on="0"/>
        <pt x="31" y="190" on="0"/>
        <pt x="31" y="246" on="1"/>
        <pt x="31" y="298" on="0"/>
        <pt x="62" y="391" on="0"/>
        <pt x="121" y="462" on="0"/>
        <pt x="205" y="503" on="0"/>
        <pt x="258" y="503" on="1"/>
        <pt x="308" y="503" on="0"/>
        <pt x="376" y="471" on="0"/>
        <pt x="408" y="438" on="1"/>
        <pt x="418" y="493" on="1"/>
        <pt x="501" y="493" on="1"/>
        <pt x="501" y="-242" on="1"/>
        <pt x="400" y="-242" on="1"/>
        <pt x="400" y="49" on="1"/>
        <pt x="374" y="21" on="0"/>
        <pt x="295" y="-10" on="0"/>
      </contour>
      <contour>
        <pt x="268" y="415" on="1"/>
        <pt x="205" y="415" on="0"/>
        <pt x="135" y="321" on="0"/>
        <pt x="135" y="246" on="1"/>
        <pt x="135" y="210" on="0"/>
        <pt x="154" y="148" on="0"/>
        <pt x="188" y="103" on="0"/>
        <pt x="238" y="78" on="0"/>
        <pt x="268" y="78" on="1"/>
        <pt x="328" y="78" on="0"/>
        <pt x="405" y="165" on="0"/>
        <pt x="405" y="246" on="1"/>
        <pt x="405" y="285" on="0"/>
        <pt x="384" y="348" on="0"/>
        <pt x="348" y="392" on="0"/>
        <pt x="298" y="415" on="0"/>
      </contour>
    </TTGlyph>
    <TTGlyph name="question" xMin="29" yMin="0" xMax="397" yMax="750">
      <contour>
        <pt x="232" y="200" on="1"/>
        <pt x="164" y="200" on="1"/>
        <pt x="162" y="222" on="0"/>
        <pt x="161" y="247" on="0"/>
        <pt x="161" y="248" on="1"/>
        <pt x="161" y="295" on="0"/>
        <pt x="205" y="371" on="0"/>
        <pt x="258" y="441" on="0"/>
        <pt x="302" y="515" on="0"/>
        <pt x="302" y="560" on="1"/>
        <pt x="302" y="615" on="0"/>
        <pt x="233" y="673" on="0"/>
        <pt x="184" y="673" on="1"/>
        <pt x="163" y="673" on="0"/>
        <pt x="122" y="661" on="0"/>
        <pt x="88" y="642" on="0"/>
        <pt x="62" y="618" on="0"/>
        <pt x="55" y="606" on="1"/>
        <pt x="29" y="682" on="1"/>
        <pt x="49" y="713" on="0"/>
        <pt x="136" y="750" on="0"/>
        <pt x="188" y="750" on="1"/>
        <pt x="236" y="750" on="0"/>
        <pt x="313" y="716" on="0"/>
        <pt x="368" y="662" on="0"/>
        <pt x="397" y="595" on="0"/>
        <pt x="397" y="562" on="1"/>
        <pt x="397" y="531" on="0"/>
        <pt x="373" y="472" on="0"/>
        <pt x="336" y="416" on="0"/>
        <pt x="293" y="361" on="0"/>
        <pt x="256" y="306" on="0"/>
        <pt x="232" y="251" on="0"/>
        <pt x="232" y="222" on="1"/>
      </contour>
      <contour>
        <pt x="250" y="0" on="1"/>
        <pt x="148" y="0" on="1"/>
        <pt x="148" y="99" on="1"/>
        <pt x="250" y="99" on="1"/>
      </contour>
    </TTGlyph>
    <TTGlyph name="questiondown" xMin="54" yMin="-250" xMax="422" yMax="500">
      <contour>
        <pt x="219" y="300" on="1"/>
        <pt x="287" y="300" on="1"/>
        <pt x="290" y="256" on="0"/>
        <pt x="290" y="252" on="1"/>
        <pt x="290" y="205" on="0"/>
        <pt x="246" y="130" on="0"/>
        <pt x="193" y="60" on="0"/>
        <pt x="149" y="-14" on="0"/>
        <pt x="149" y="-60" on="1"/>
        <pt x="149" y="-115" on="0"/>
        <pt x="218" y="-173" on="0"/>
        <pt x="267" y="-173" on="1"/>
        <pt x="310" y="-173" on="0"/>
        <pt x="381" y="-131" on="0"/>
        <pt x="396" y="-106" on="1"/>
        <pt x="422" y="-182" on="1"/>
        <pt x="402" y="-213" on="0"/>
        <pt x="315" y="-250" on="0"/>
        <pt x="263" y="-250" on="1"/>
        <pt x="215" y="-250" on="0"/>
        <pt x="138" y="-217" on="0"/>
        <pt x="84" y="-164" on="0"/>
        <pt x="54" y="-97" on="0"/>
        <pt x="54" y="-62" on="1"/>
        <pt x="54" y="-31" on="0"/>
        <pt x="78" y="28" on="0"/>
        <pt x="115" y="83" on="0"/>
        <pt x="158" y="137" on="0"/>
        <pt x="195" y="192" on="0"/>
        <pt x="219" y="248" on="0"/>
        <pt x="219" y="278" on="1"/>
      </contour>
      <contour>
        <pt x="201" y="500" on="1"/>
        <pt x="303" y="500" on="1"/>
        <pt x="303" y="401" on="1"/>
        <pt x="201" y="401" on="1"/>
      </contour>
    </TTGlyph>
    <TTGlyph name="quotedbl" xMin="39" yMin="450" xMax="362" yMax="750">
      <contour>
        <pt x="362" y="750" on="1"/>
        <pt x="342" y="450" on="1"/>
        <pt x="279" y="450" on="1"/>
        <pt x="259" y="750" on="1"/>
      </contour>
      <contour>
        <pt x="143" y="750" on="1"/>
        <pt x="123" y="450" on="1"/>
        <pt x="59" y="450" on="1"/>
        <pt x="39" y="750" on="1"/>
      </contour>
    </TTGlyph>
    <TTGlyph name="quotedblbase" xMin="56" yMin="-109" xMax="395" yMax="101">
      <contour>
        <pt x="165" y="0" on="1"/>
        <pt x="80" y="-109" on="1"/>
        <pt x="56" y="-96" on="1"/>
        <pt x="90" y="-9" on="1"/>
        <pt x="57" y="0" on="1"/>
        <pt x="57" y="101" on="1"/>
        <pt x="165" y="101" on="1"/>
      </contour>
      <contour>
        <pt x="395" y="0" on="1"/>
        <pt x="310" y="-109" on="1"/>
        <pt x="286" y="-96" on="1"/>
        <pt x="320" y="-9" on="1"/>
        <pt x="287" y="0" on="1"/>
        <pt x="287" y="101" on="1"/>
        <pt x="395" y="101" on="1"/>
      </contour>
    </TTGlyph>
    <TTGlyph name="quotedblleft" xMin="43" yMin="540" xMax="362" yMax="750">
      <contour>
        <pt x="43" y="641" on="1"/>
        <pt x="128" y="750" on="1"/>
        <pt x="152" y="737" on="1"/>
        <pt x="117" y="650" on="1"/>
        <pt x="151" y="641" on="1"/>
        <pt x="151" y="540" on="1"/>
        <pt x="43" y="540" on="1"/>
      </contour>
      <contour>
        <pt x="253" y="641" on="1"/>
        <pt x="338" y="750" on="1"/>
        <pt x="362" y="737" on="1"/>
        <pt x="327" y="650" on="1"/>
        <pt x="361" y="641" on="1"/>
        <pt x="361" y="540" on="1"/>
        <pt x="253" y="540" on="1"/>
      </contour>
    </TTGlyph>
    <TTGlyph name="quotedblright" xMin="41" yMin="540" xMax="360" yMax="750">
      <contour>
        <pt x="360" y="649" on="1"/>
        <pt x="275" y="540" on="1"/>
        <pt x="251" y="553" on="1"/>
        <pt x="285" y="640" on="1"/>
        <pt x="252" y="649" on="1"/>
        <pt x="252" y="750" on="1"/>
        <pt x="360" y="750" on="1"/>
      </contour>
      <contour>
        <pt x="150" y="649" on="1"/>
        <pt x="65" y="540" on="1"/>
        <pt x="41" y="553" on="1"/>
        <pt x="75" y="640" on="1"/>
        <pt x="42" y="649" on="1"/>
        <pt x="42" y="750" on="1"/>
        <pt x="150" y="750" on="1"/>
      </contour>
    </TTGlyph>
    <TTGlyph name="quoteleft" xMin="43" yMin="540" xMax="152" yMax="750">
      <contour>
        <pt x="43" y="641" on="1"/>
        <pt x="128" y="750" on="1"/>
        <pt x="152" y="737" on="1"/>
        <pt x="117" y="650" on="1"/>
        <pt x="151" y="641" on="1"/>
        <pt x="151" y="540" on="1"/>
        <pt x="43" y="540" on="1"/>
      </contour>
    </TTGlyph>
    <TTGlyph name="quoteright" xMin="41" yMin="540" xMax="150" yMax="750">
      <contour>
        <pt x="150" y="649" on="1"/>
        <pt x="65" y="540" on="1"/>
        <pt x="41" y="553" on="1"/>
        <pt x="75" y="640" on="1"/>
        <pt x="42" y="649" on="1"/>
        <pt x="42" y="750" on="1"/>
        <pt x="150" y="750" on="1"/>
      </contour>
    </TTGlyph>
    <TTGlyph name="quotesinglbase" xMin="56" yMin="-109" xMax="165" yMax="101">
      <contour>
        <pt x="165" y="0" on="1"/>
        <pt x="80" y="-109" on="1"/>
        <pt x="56" y="-96" on="1"/>
        <pt x="90" y="-9" on="1"/>
        <pt x="57" y="0" on="1"/>
        <pt x="57" y="101" on="1"/>
        <pt x="165" y="101" on="1"/>
      </contour>
    </TTGlyph>
    <TTGlyph name="quotesingle" xMin="40" yMin="450" xMax="148" yMax="750">
      <contour>
        <pt x="148" y="750" on="1"/>
        <pt x="129" y="450" on="1"/>
        <pt x="59" y="450" on="1"/>
        <pt x="40" y="750" on="1"/>
      </contour>
    </TTGlyph>
    <TTGlyph name="r" xMin="60" yMin="0" xMax="328" yMax="508">
      <contour>
        <pt x="328" y="508" on="1"/>
        <pt x="307" y="403" on="1"/>
        <pt x="271" y="403" on="1"/>
        <pt x="256" y="403" on="0"/>
        <pt x="224" y="393" on="0"/>
        <pt x="195" y="377" on="0"/>
        <pt x="172" y="356" on="0"/>
        <pt x="166" y="344" on="1"/>
        <pt x="166" y="0" on="1"/>
        <pt x="60" y="0" on="1"/>
        <pt x="60" y="493" on="1"/>
        <pt x="149" y="493" on="1"/>
        <pt x="157" y="422" on="1"/>
        <pt x="235" y="508" on="0"/>
        <pt x="312" y="508" on="1"/>
      </contour>
    </TTGlyph>
    <TTGlyph name="registered" xMin="40" yMin="37" xMax="661" yMax="693">
      <contour>
        <pt x="40" y="365" on="1"/>
        <pt x="40" y="439" on="0"/>
        <pt x="86" y="560" on="0"/>
        <pt x="169" y="646" on="0"/>
        <pt x="283" y="693" on="0"/>
        <pt x="351" y="693" on="1"/>
        <pt x="419" y="693" on="0"/>
        <pt x="533" y="646" on="0"/>
        <pt x="615" y="559" on="0"/>
        <pt x="661" y="438" on="0"/>
        <pt x="661" y="365" on="1"/>
        <pt x="661" y="292" on="0"/>
        <pt x="615" y="172" on="0"/>
        <pt x="533" y="85" on="0"/>
        <pt x="419" y="37" on="0"/>
        <pt x="351" y="37" on="1"/>
        <pt x="283" y="37" on="0"/>
        <pt x="168" y="85" on="0"/>
        <pt x="86" y="171" on="0"/>
        <pt x="40" y="292" on="0"/>
      </contour>
      <contour>
        <pt x="351" y="640" on="1"/>
        <pt x="289" y="640" on="0"/>
        <pt x="196" y="599" on="0"/>
        <pt x="132" y="526" on="0"/>
        <pt x="100" y="425" on="0"/>
        <pt x="100" y="365" on="1"/>
        <pt x="100" y="305" on="0"/>
        <pt x="133" y="204" on="0"/>
        <pt x="196" y="130" on="0"/>
        <pt x="290" y="89" on="0"/>
        <pt x="351" y="89" on="1"/>
        <pt x="412" y="89" on="0"/>
        <pt x="505" y="130" on="0"/>
        <pt x="568" y="204" on="0"/>
        <pt x="601" y="305" on="0"/>
        <pt x="601" y="365" on="1"/>
        <pt x="601" y="425" on="0"/>
        <pt x="568" y="525" on="0"/>
        <pt x="505" y="599" on="0"/>
        <pt x="412" y="640" on="0"/>
      </contour>
      <contour>
        <pt x="486" y="208" on="1"/>
        <pt x="413" y="208" on="1"/>
        <pt x="349" y="323" on="1"/>
        <pt x="303" y="323" on="1"/>
        <pt x="303" y="208" on="1"/>
        <pt x="232" y="208" on="1"/>
        <pt x="232" y="533" on="1"/>
        <pt x="353" y="533" on="1"/>
        <pt x="407" y="533" on="0"/>
        <pt x="466" y="487" on="0"/>
        <pt x="466" y="430" on="1"/>
        <pt x="466" y="377" on="0"/>
        <pt x="414" y="343" on="1"/>
      </contour>
      <contour>
        <pt x="339" y="475" on="1"/>
        <pt x="303" y="475" on="1"/>
        <pt x="303" y="387" on="1"/>
        <pt x="337" y="387" on="1"/>
        <pt x="392" y="387" on="0"/>
        <pt x="392" y="432" on="1"/>
        <pt x="392" y="454" on="0"/>
        <pt x="369" y="475" on="0"/>
      </contour>
    </TTGlyph>
    <TTGlyph name="ring" xMin="42" yMin="576" xMax="250" yMax="755">
      <contour>
        <pt x="146" y="576" on="1"/>
        <pt x="98" y="576" on="0"/>
        <pt x="42" y="628" on="0"/>
        <pt x="42" y="665" on="1"/>
        <pt x="42" y="702" on="0"/>
        <pt x="98" y="755" on="0"/>
        <pt x="146" y="755" on="1"/>
        <pt x="195" y="755" on="0"/>
        <pt x="250" y="702" on="0"/>
        <pt x="250" y="665" on="1"/>
        <pt x="250" y="628" on="0"/>
        <pt x="195" y="576" on="0"/>
      </contour>
      <contour>
        <pt x="92" y="665" on="1"/>
        <pt x="92" y="661" on="1"/>
        <pt x="92" y="637" on="0"/>
        <pt x="126" y="613" on="0"/>
        <pt x="146" y="613" on="1"/>
        <pt x="166" y="613" on="0"/>
        <pt x="200" y="637" on="0"/>
        <pt x="200" y="661" on="1"/>
        <pt x="200" y="686" on="0"/>
        <pt x="172" y="718" on="0"/>
        <pt x="146" y="718" on="1"/>
        <pt x="123" y="718" on="0"/>
        <pt x="92" y="688" on="0"/>
      </contour>
    </TTGlyph>
    <TTGlyph name="s" xMin="33" yMin="-10" xMax="391" yMax="503">
      <contour>
        <pt x="201" y="-10" on="1"/>
        <pt x="94" y="-10" on="0"/>
        <pt x="33" y="31" on="1"/>
        <pt x="44" y="124" on="1"/>
        <pt x="66" y="106" on="0"/>
        <pt x="151" y="74" on="0"/>
        <pt x="197" y="74" on="1"/>
        <pt x="242" y="74" on="0"/>
        <pt x="287" y="106" on="0"/>
        <pt x="287" y="133" on="1"/>
        <pt x="287" y="162" on="0"/>
        <pt x="253" y="189" on="0"/>
        <pt x="198" y="207" on="0"/>
        <pt x="128" y="228" on="0"/>
        <pt x="92" y="251" on="1"/>
        <pt x="66" y="268" on="0"/>
        <pt x="41" y="316" on="0"/>
        <pt x="41" y="352" on="1"/>
        <pt x="41" y="383" on="0"/>
        <pt x="63" y="439" on="0"/>
        <pt x="108" y="479" on="0"/>
        <pt x="177" y="503" on="0"/>
        <pt x="225" y="503" on="1"/>
        <pt x="305" y="503" on="0"/>
        <pt x="366" y="469" on="1"/>
        <pt x="355" y="379" on="1"/>
        <pt x="299" y="426" on="0"/>
        <pt x="229" y="426" on="1"/>
        <pt x="187" y="426" on="0"/>
        <pt x="138" y="395" on="0"/>
        <pt x="138" y="363" on="1"/>
        <pt x="138" y="345" on="0"/>
        <pt x="159" y="314" on="0"/>
        <pt x="191" y="304" on="1"/>
        <pt x="252" y="285" on="1"/>
        <pt x="276" y="278" on="0"/>
        <pt x="325" y="257" on="0"/>
        <pt x="365" y="223" on="0"/>
        <pt x="391" y="172" on="0"/>
        <pt x="391" y="136" on="1"/>
        <pt x="391" y="112" on="0"/>
        <pt x="376" y="61" on="0"/>
        <pt x="334" y="18" on="0"/>
        <pt x="260" y="-10" on="0"/>
      </contour>
    </TTGlyph>
    <TTGlyph name="scaron" xMin="33" yMin="-10" xMax="391" yMax="743">
      <component glyphName="s" x="0" y="0" flags="0x204"/>
      <component glyphName="caron" x="-19" y="0" flags="0x4"/>
    </TTGlyph>
    <TTGlyph name="section" xMin="38" yMin="-84" xMax="420" yMax="750">
      <contour>
        <pt x="322" y="187" on="1"/>
        <pt x="356" y="161" on="0"/>
        <pt x="376" y="112" on="0"/>
        <pt x="376" y="73" on="1"/>
        <pt x="376" y="42" on="0"/>
        <pt x="356" y="-15" on="0"/>
        <pt x="315" y="-58" on="0"/>
        <pt x="251" y="-84" on="0"/>
        <pt x="207" y="-84" on="1"/>
        <pt x="186" y="-84" on="0"/>
        <pt x="143" y="-78" on="0"/>
        <pt x="104" y="-67" on="0"/>
        <pt x="73" y="-53" on="0"/>
        <pt x="64" y="-45" on="1"/>
        <pt x="75" y="33" on="1"/>
        <pt x="143" y="-11" on="0"/>
        <pt x="206" y="-11" on="1"/>
        <pt x="251" y="-11" on="0"/>
        <pt x="304" y="25" on="0"/>
        <pt x="304" y="63" on="1"/>
        <pt x="304" y="96" on="0"/>
        <pt x="265" y="132" on="0"/>
        <pt x="205" y="157" on="0"/>
        <pt x="137" y="179" on="0"/>
        <pt x="77" y="217" on="0"/>
        <pt x="38" y="279" on="0"/>
        <pt x="38" y="331" on="1"/>
        <pt x="38" y="444" on="0"/>
        <pt x="139" y="479" on="1"/>
        <pt x="82" y="521" on="0"/>
        <pt x="82" y="586" on="1"/>
        <pt x="82" y="620" on="0"/>
        <pt x="102" y="680" on="0"/>
        <pt x="142" y="725" on="0"/>
        <pt x="205" y="750" on="0"/>
        <pt x="249" y="750" on="1"/>
        <pt x="292" y="750" on="0"/>
        <pt x="372" y="726" on="0"/>
        <pt x="395" y="710" on="1"/>
        <pt x="383" y="632" on="1"/>
        <pt x="316" y="678" on="0"/>
        <pt x="254" y="678" on="1"/>
        <pt x="212" y="678" on="0"/>
        <pt x="159" y="636" on="0"/>
        <pt x="159" y="601" on="1"/>
        <pt x="159" y="571" on="0"/>
        <pt x="198" y="536" on="0"/>
        <pt x="256" y="510" on="0"/>
        <pt x="323" y="485" on="0"/>
        <pt x="381" y="445" on="0"/>
        <pt x="420" y="383" on="0"/>
        <pt x="420" y="332" on="1"/>
        <pt x="420" y="229" on="0"/>
      </contour>
      <contour>
        <pt x="202" y="428" on="1"/>
        <pt x="189" y="427" on="0"/>
        <pt x="158" y="416" on="0"/>
        <pt x="132" y="396" on="0"/>
        <pt x="115" y="366" on="0"/>
        <pt x="115" y="346" on="1"/>
        <pt x="115" y="267" on="0"/>
        <pt x="267" y="229" on="1"/>
        <pt x="297" y="235" on="0"/>
        <pt x="339" y="288" on="0"/>
        <pt x="339" y="320" on="1"/>
        <pt x="339" y="395" on="0"/>
      </contour>
    </TTGlyph>
    <TTGlyph name="semicolon" xMin="56" yMin="-109" xMax="169" yMax="440">
      <contour>
        <pt x="169" y="339" on="1"/>
        <pt x="57" y="339" on="1"/>
        <pt x="57" y="440" on="1"/>
        <pt x="169" y="440" on="1"/>
      </contour>
      <contour>
        <pt x="165" y="-1" on="1"/>
        <pt x="80" y="-109" on="1"/>
        <pt x="56" y="-96" on="1"/>
        <pt x="90" y="-9" on="1"/>
        <pt x="57" y="0" on="1"/>
        <pt x="57" y="101" on="1"/>
        <pt x="165" y="101" on="1"/>
      </contour>
    </TTGlyph>
    <TTGlyph name="seven" xMin="40" yMin="0" xMax="495" yMax="700">
      <contour>
        <pt x="495" y="700" on="1"/>
        <pt x="196" y="0" on="1"/>
        <pt x="84" y="0" on="1"/>
        <pt x="341" y="601" on="1"/>
        <pt x="40" y="601" on="1"/>
        <pt x="40" y="700" on="1"/>
      </contour>
    </TTGlyph>
    <TTGlyph name="six" xMin="61" yMin="-14" xMax="523" yMax="700">
      <contour>
        <pt x="280" y="-14" on="1"/>
        <pt x="230" y="-14" on="0"/>
        <pt x="150" y="16" on="0"/>
        <pt x="92" y="79" on="0"/>
        <pt x="61" y="177" on="0"/>
        <pt x="61" y="244" on="1"/>
        <pt x="61" y="340" on="0"/>
        <pt x="124" y="507" on="0"/>
        <pt x="216" y="630" on="0"/>
        <pt x="320" y="700" on="0"/>
        <pt x="361" y="700" on="1"/>
        <pt x="433" y="658" on="1"/>
        <pt x="400" y="647" on="0"/>
        <pt x="322" y="599" on="0"/>
        <pt x="250" y="527" on="0"/>
        <pt x="192" y="428" on="0"/>
        <pt x="179" y="366" on="1"/>
        <pt x="221" y="420" on="0"/>
        <pt x="311" y="420" on="1"/>
        <pt x="356" y="420" on="0"/>
        <pt x="434" y="394" on="0"/>
        <pt x="491" y="343" on="0"/>
        <pt x="523" y="267" on="0"/>
        <pt x="523" y="218" on="1"/>
        <pt x="523" y="170" on="0"/>
        <pt x="488" y="85" on="0"/>
        <pt x="424" y="22" on="0"/>
        <pt x="334" y="-14" on="0"/>
      </contour>
      <contour>
        <pt x="303" y="331" on="1"/>
        <pt x="274" y="331" on="0"/>
        <pt x="225" y="313" on="0"/>
        <pt x="189" y="279" on="0"/>
        <pt x="169" y="232" on="0"/>
        <pt x="169" y="202" on="1"/>
        <pt x="169" y="172" on="0"/>
        <pt x="189" y="127" on="0"/>
        <pt x="222" y="96" on="0"/>
        <pt x="267" y="80" on="0"/>
        <pt x="292" y="80" on="1"/>
        <pt x="321" y="80" on="0"/>
        <pt x="368" y="102" on="0"/>
        <pt x="401" y="139" on="0"/>
        <pt x="419" y="188" on="0"/>
        <pt x="419" y="216" on="1"/>
        <pt x="419" y="239" on="0"/>
        <pt x="406" y="281" on="0"/>
        <pt x="377" y="312" on="0"/>
        <pt x="333" y="331" on="0"/>
      </contour>
    </TTGlyph>
    <TTGlyph name="slash" xMin="18" yMin="-85" xMax="503" yMax="700">
      <contour>
        <pt x="503" y="700" on="1"/>
        <pt x="129" y="-85" on="1"/>
        <pt x="18" y="-85" on="1"/>
        <pt x="391" y="700" on="1"/>
      </contour>
    </TTGlyph>
    <TTGlyph name="sterling" xMin="34" yMin="0" xMax="488" yMax="711">
      <contour>
        <pt x="420" y="563" on="1"/>
        <pt x="394" y="619" on="0"/>
        <pt x="338" y="619" on="1"/>
        <pt x="308" y="619" on="0"/>
        <pt x="275" y="603" on="0"/>
        <pt x="259" y="570" on="0"/>
        <pt x="255" y="519" on="0"/>
        <pt x="255" y="485" on="1"/>
        <pt x="255" y="399" on="1"/>
        <pt x="444" y="399" on="1"/>
        <pt x="426" y="307" on="1"/>
        <pt x="249" y="307" on="1"/>
        <pt x="247" y="273" on="0"/>
        <pt x="242" y="222" on="0"/>
        <pt x="232" y="177" on="0"/>
        <pt x="217" y="130" on="0"/>
        <pt x="204" y="99" on="1"/>
        <pt x="456" y="99" on="1"/>
        <pt x="456" y="0" on="1"/>
        <pt x="34" y="0" on="1"/>
        <pt x="61" y="35" on="0"/>
        <pt x="98" y="104" on="0"/>
        <pt x="124" y="178" on="0"/>
        <pt x="139" y="259" on="0"/>
        <pt x="144" y="307" on="1"/>
        <pt x="51" y="307" on="1"/>
        <pt x="69" y="399" on="1"/>
        <pt x="150" y="399" on="1"/>
        <pt x="150" y="507" on="1"/>
        <pt x="150" y="546" on="0"/>
        <pt x="163" y="619" on="0"/>
        <pt x="202" y="676" on="0"/>
        <pt x="271" y="711" on="0"/>
        <pt x="327" y="711" on="1"/>
        <pt x="393" y="711" on="0"/>
        <pt x="474" y="664" on="0"/>
        <pt x="488" y="622" on="1"/>
      </contour>
    </TTGlyph>
    <TTGlyph name="t" xMin="17" yMin="-10" xMax="321" yMax="621">
      <contour>
        <pt x="319" y="72" on="1"/>
        <pt x="311" y="-10" on="1"/>
        <pt x="227" y="-10" on="1"/>
        <pt x="161" y="-10" on="0"/>
        <pt x="97" y="61" on="0"/>
        <pt x="97" y="112" on="1"/>
        <pt x="97" y="412" on="1"/>
        <pt x="17" y="412" on="1"/>
        <pt x="26" y="493" on="1"/>
        <pt x="97" y="493" on="1"/>
        <pt x="97" y="611" on="1"/>
        <pt x="199" y="621" on="1"/>
        <pt x="199" y="493" on="1"/>
        <pt x="321" y="493" on="1"/>
        <pt x="321" y="412" on="1"/>
        <pt x="199" y="412" on="1"/>
        <pt x="199" y="165" on="1"/>
        <pt x="199" y="132" on="0"/>
        <pt x="203" y="95" on="0"/>
        <pt x="222" y="76" on="0"/>
        <pt x="259" y="72" on="0"/>
        <pt x="292" y="72" on="1"/>
      </contour>
    </TTGlyph>
    <TTGlyph name="thorn" xMin="60" yMin="-241" xMax="547" yMax="750">
      <contour>
        <pt x="302" y="-10" on="1"/>
        <pt x="211" y="-10" on="0"/>
        <pt x="162" y="45" on="1"/>
        <pt x="162" y="-241" on="1"/>
        <pt x="60" y="-241" on="1"/>
        <pt x="60" y="750" on="1"/>
        <pt x="162" y="750" on="1"/>
        <pt x="162" y="451" on="1"/>
        <pt x="220" y="503" on="0"/>
        <pt x="306" y="503" on="1"/>
        <pt x="361" y="503" on="0"/>
        <pt x="451" y="463" on="0"/>
        <pt x="513" y="394" on="0"/>
        <pt x="547" y="300" on="0"/>
        <pt x="547" y="246" on="1"/>
        <pt x="547" y="192" on="0"/>
        <pt x="514" y="98" on="0"/>
        <pt x="451" y="29" on="0"/>
        <pt x="360" y="-10" on="0"/>
      </contour>
      <contour>
        <pt x="155" y="246" on="1"/>
        <pt x="155" y="167" on="0"/>
        <pt x="222" y="72" on="0"/>
        <pt x="294" y="72" on="1"/>
        <pt x="366" y="72" on="0"/>
        <pt x="444" y="168" on="0"/>
        <pt x="444" y="246" on="1"/>
        <pt x="444" y="324" on="0"/>
        <pt x="366" y="415" on="0"/>
        <pt x="294" y="415" on="1"/>
        <pt x="222" y="415" on="0"/>
        <pt x="155" y="324" on="0"/>
      </contour>
    </TTGlyph>
    <TTGlyph name="three" xMin="39" yMin="-14" xMax="483" yMax="714">
      <contour>
        <pt x="228" y="-14" on="1"/>
        <pt x="199" y="-14" on="0"/>
        <pt x="138" y="-3" on="0"/>
        <pt x="85" y="14" on="0"/>
        <pt x="46" y="32" on="0"/>
        <pt x="39" y="39" on="1"/>
        <pt x="65" y="138" on="1"/>
        <pt x="150" y="85" on="0"/>
        <pt x="227" y="85" on="1"/>
        <pt x="257" y="85" on="0"/>
        <pt x="310" y="99" on="0"/>
        <pt x="349" y="129" on="0"/>
        <pt x="371" y="177" on="0"/>
        <pt x="371" y="212" on="1"/>
        <pt x="371" y="240" on="0"/>
        <pt x="356" y="287" on="0"/>
        <pt x="320" y="321" on="0"/>
        <pt x="262" y="339" on="0"/>
        <pt x="219" y="339" on="1"/>
        <pt x="140" y="339" on="1"/>
        <pt x="150" y="423" on="1"/>
        <pt x="190" y="423" on="1"/>
        <pt x="274" y="423" on="0"/>
        <pt x="345" y="478" on="0"/>
        <pt x="345" y="530" on="1"/>
        <pt x="345" y="620" on="0"/>
        <pt x="232" y="620" on="1"/>
        <pt x="147" y="620" on="0"/>
        <pt x="101" y="582" on="1"/>
        <pt x="83" y="668" on="1"/>
        <pt x="100" y="685" on="0"/>
        <pt x="184" y="714" on="0"/>
        <pt x="244" y="714" on="1"/>
        <pt x="308" y="714" on="0"/>
        <pt x="391" y="680" on="0"/>
        <pt x="439" y="626" on="0"/>
        <pt x="458" y="562" on="0"/>
        <pt x="458" y="532" on="1"/>
        <pt x="458" y="447" on="0"/>
        <pt x="375" y="388" on="1"/>
        <pt x="483" y="344" on="0"/>
        <pt x="483" y="215" on="1"/>
        <pt x="483" y="160" on="0"/>
        <pt x="442" y="75" on="0"/>
        <pt x="372" y="16" on="0"/>
        <pt x="279" y="-14" on="0"/>
      </contour>
    </TTGlyph>
    <TTGlyph name="threequarters" xMin="32" yMin="-85" xMax="857" yMax="706">
      <component glyphName="uni00B3" x="13" y="0" flags="0x4"/>
      <component glyphName="slash" x="210" y="0" flags="0x4"/>
      <component glyphName="uni2074" x="547" y="-319" flags="0x4"/>
    </TTGlyph>
    <TTGlyph name="tilde" xMin="86" yMin="599" xMax="443" yMax="709">
      <contour>
        <pt x="332" y="599" on="1"/>
        <pt x="323" y="599" on="0"/>
        <pt x="284" y="614" on="0"/>
        <pt x="243" y="632" on="0"/>
        <pt x="208" y="647" on="0"/>
        <pt x="202" y="647" on="1"/>
        <pt x="154" y="647" on="0"/>
        <pt x="139" y="599" on="1"/>
        <pt x="86" y="611" on="1"/>
        <pt x="95" y="657" on="0"/>
        <pt x="161" y="706" on="0"/>
        <pt x="197" y="706" on="1"/>
        <pt x="207" y="706" on="0"/>
        <pt x="246" y="691" on="0"/>
        <pt x="287" y="674" on="0"/>
        <pt x="323" y="659" on="0"/>
        <pt x="329" y="659" on="1"/>
        <pt x="373" y="659" on="0"/>
        <pt x="394" y="709" on="1"/>
        <pt x="443" y="696" on="1"/>
        <pt x="433" y="654" on="0"/>
        <pt x="374" y="599" on="0"/>
      </contour>
    </TTGlyph>
    <TTGlyph name="trademark" xMin="31" yMin="337" xMax="673" yMax="700">
      <contour>
        <pt x="492" y="437" on="1"/>
        <pt x="485" y="437" on="1"/>
        <pt x="399" y="586" on="1"/>
        <pt x="368" y="337" on="1"/>
        <pt x="305" y="337" on="1"/>
        <pt x="353" y="700" on="1"/>
        <pt x="389" y="700" on="1"/>
        <pt x="489" y="532" on="1"/>
        <pt x="589" y="700" on="1"/>
        <pt x="625" y="700" on="1"/>
        <pt x="673" y="337" on="1"/>
        <pt x="609" y="337" on="1"/>
        <pt x="580" y="586" on="1"/>
      </contour>
      <contour>
        <pt x="297" y="700" on="1"/>
        <pt x="290" y="640" on="1"/>
        <pt x="192" y="640" on="1"/>
        <pt x="192" y="337" on="1"/>
        <pt x="131" y="337" on="1"/>
        <pt x="131" y="640" on="1"/>
        <pt x="31" y="640" on="1"/>
        <pt x="31" y="700" on="1"/>
      </contour>
    </TTGlyph>
    <TTGlyph name="two" xMin="51" yMin="0" xMax="471" yMax="714">
      <contour>
        <pt x="471" y="0" on="1"/>
        <pt x="52" y="0" on="1"/>
        <pt x="113" y="87" on="0"/>
        <pt x="203" y="221" on="0"/>
        <pt x="267" y="323" on="0"/>
        <pt x="308" y="396" on="0"/>
        <pt x="331" y="452" on="0"/>
        <pt x="340" y="492" on="0"/>
        <pt x="340" y="510" on="1"/>
        <pt x="340" y="562" on="0"/>
        <pt x="279" y="619" on="0"/>
        <pt x="227" y="619" on="1"/>
        <pt x="138" y="619" on="0"/>
        <pt x="64" y="521" on="1"/>
        <pt x="51" y="616" on="1"/>
        <pt x="59" y="631" on="0"/>
        <pt x="94" y="665" on="0"/>
        <pt x="146" y="695" on="0"/>
        <pt x="212" y="714" on="0"/>
        <pt x="251" y="714" on="1"/>
        <pt x="306" y="714" on="0"/>
        <pt x="381" y="679" on="0"/>
        <pt x="426" y="624" on="0"/>
        <pt x="445" y="556" on="0"/>
        <pt x="445" y="523" on="1"/>
        <pt x="445" y="487" on="0"/>
        <pt x="423" y="407" on="0"/>
        <pt x="374" y="306" on="0"/>
        <pt x="296" y="180" on="0"/>
        <pt x="241" y="99" on="1"/>
        <pt x="471" y="99" on="1"/>
      </contour>
    </TTGlyph>
    <TTGlyph name="u" xMin="55" yMin="-10" xMax="474" yMax="493">
      <contour>
        <pt x="474" y="0" on="1"/>
        <pt x="381" y="0" on="1"/>
        <pt x="374" y="46" on="1"/>
        <pt x="327" y="-10" on="0"/>
        <pt x="247" y="-10" on="1"/>
        <pt x="55" y="-10" on="0"/>
        <pt x="55" y="214" on="1"/>
        <pt x="55" y="493" on="1"/>
        <pt x="157" y="493" on="1"/>
        <pt x="157" y="230" on="1"/>
        <pt x="157" y="152" on="0"/>
        <pt x="209" y="78" on="0"/>
        <pt x="266" y="78" on="1"/>
        <pt x="336" y="78" on="0"/>
        <pt x="372" y="129" on="1"/>
        <pt x="372" y="493" on="1"/>
        <pt x="474" y="493" on="1"/>
      </contour>
    </TTGlyph>
    <TTGlyph name="uacute" xMin="55" yMin="-10" xMax="474" yMax="738">
      <component glyphName="u" x="0" y="0" flags="0x204"/>
      <component glyphName="acute" x="127" y="0" flags="0x4"/>
    </TTGlyph>
    <TTGlyph name="ucircumflex" xMin="55" yMin="-10" xMax="474" yMax="747">
      <component glyphName="u" x="0" y="0" flags="0x204"/>
      <component glyphName="circumflex" x="55" y="0" flags="0x4"/>
    </TTGlyph>
    <TTGlyph name="udieresis" xMin="55" yMin="-10" xMax="474" yMax="700">
      <component glyphName="u" x="0" y="0" flags="0x204"/>
      <component glyphName="dieresis" x="67" y="0" flags="0x4"/>
    </TTGlyph>
    <TTGlyph name="ugrave" xMin="55" yMin="-10" xMax="474" yMax="738">
      <component glyphName="u" x="0" y="0" flags="0x204"/>
      <component glyphName="grave" x="127" y="0" flags="0x4"/>
    </TTGlyph>
    <TTGlyph name="underscore" xMin="2" yMin="-125" xMax="562" yMax="-36">
      <contour>
        <pt x="562" y="-125" on="1"/>
        <pt x="2" y="-125" on="1"/>
        <pt x="2" y="-36" on="1"/>
        <pt x="562" y="-36" on="1"/>
      </contour>
    </TTGlyph>
    <TTGlyph name="uni00AD" xMin="56" yMin="230" xMax="366" yMax="324">
      <contour>
        <pt x="366" y="230" on="1"/>
        <pt x="56" y="230" on="1"/>
        <pt x="56" y="324" on="1"/>
        <pt x="366" y="324" on="1"/>
      </contour>
    </TTGlyph>
    <TTGlyph name="uni00B2" xMin="23" yMin="320" xMax="274" yMax="706">
      <contour>
        <pt x="274" y="320" on="1"/>
        <pt x="23" y="320" on="1"/>
        <pt x="79" y="395" on="0"/>
        <pt x="144" y="492" on="0"/>
        <pt x="176" y="552" on="0"/>
        <pt x="184" y="583" on="0"/>
        <pt x="184" y="592" on="1"/>
        <pt x="184" y="615" on="0"/>
        <pt x="158" y="642" on="0"/>
        <pt x="134" y="642" on="1"/>
        <pt x="83" y="642" on="0"/>
        <pt x="41" y="579" on="1"/>
        <pt x="31" y="651" on="1"/>
        <pt x="42" y="672" on="0"/>
        <pt x="105" y="706" on="0"/>
        <pt x="150" y="706" on="1"/>
        <pt x="179" y="706" on="0"/>
        <pt x="221" y="689" on="0"/>
        <pt x="248" y="661" on="0"/>
        <pt x="261" y="625" on="0"/>
        <pt x="261" y="605" on="1"/>
        <pt x="261" y="540" on="0"/>
        <pt x="163" y="400" on="1"/>
        <pt x="274" y="400" on="1"/>
      </contour>
    </TTGlyph>
    <TTGlyph name="uni00B3" xMin="19" yMin="312" xMax="277" yMax="706">
      <contour>
        <pt x="127" y="312" on="1"/>
        <pt x="111" y="312" on="0"/>
        <pt x="76" y="318" on="0"/>
        <pt x="46" y="327" on="0"/>
        <pt x="23" y="337" on="0"/>
        <pt x="19" y="342" on="1"/>
        <pt x="39" y="416" on="1"/>
        <pt x="42" y="411" on="0"/>
        <pt x="60" y="403" on="0"/>
        <pt x="84" y="396" on="0"/>
        <pt x="111" y="392" on="0"/>
        <pt x="123" y="392" on="1"/>
        <pt x="197" y="392" on="0"/>
        <pt x="197" y="433" on="1"/>
        <pt x="197" y="462" on="0"/>
        <pt x="170" y="495" on="0"/>
        <pt x="133" y="495" on="1"/>
        <pt x="77" y="495" on="1"/>
        <pt x="83" y="556" on="1"/>
        <pt x="112" y="556" on="1"/>
        <pt x="180" y="556" on="0"/>
        <pt x="180" y="598" on="1"/>
        <pt x="180" y="639" on="0"/>
        <pt x="125" y="639" on="1"/>
        <pt x="73" y="639" on="0"/>
        <pt x="57" y="624" on="1"/>
        <pt x="45" y="681" on="1"/>
        <pt x="55" y="691" on="0"/>
        <pt x="107" y="706" on="0"/>
        <pt x="135" y="706" on="1"/>
        <pt x="171" y="706" on="0"/>
        <pt x="219" y="689" on="0"/>
        <pt x="249" y="660" on="0"/>
        <pt x="262" y="623" on="0"/>
        <pt x="262" y="603" on="1"/>
        <pt x="262" y="550" on="0"/>
        <pt x="230" y="530" on="1"/>
        <pt x="277" y="492" on="0"/>
        <pt x="277" y="438" on="1"/>
        <pt x="277" y="408" on="0"/>
        <pt x="253" y="361" on="0"/>
        <pt x="212" y="329" on="0"/>
        <pt x="157" y="312" on="0"/>
      </contour>
    </TTGlyph>
    <TTGlyph name="uni00B5" xMin="74" yMin="-242" xMax="563" yMax="493">
      <contour>
        <pt x="563" y="72" on="1"/>
        <pt x="548" y="-10" on="1"/>
        <pt x="516" y="-10" on="1"/>
        <pt x="437" y="-10" on="0"/>
        <pt x="409" y="56" on="1"/>
        <pt x="347" y="-10" on="0"/>
        <pt x="278" y="-10" on="1"/>
        <pt x="220" y="-10" on="0"/>
        <pt x="174" y="20" on="1"/>
        <pt x="174" y="-242" on="1"/>
        <pt x="74" y="-242" on="1"/>
        <pt x="74" y="493" on="1"/>
        <pt x="175" y="493" on="1"/>
        <pt x="175" y="232" on="1"/>
        <pt x="175" y="152" on="0"/>
        <pt x="224" y="78" on="0"/>
        <pt x="289" y="78" on="1"/>
        <pt x="352" y="78" on="0"/>
        <pt x="397" y="130" on="1"/>
        <pt x="397" y="493" on="1"/>
        <pt x="497" y="493" on="1"/>
        <pt x="497" y="171" on="1"/>
        <pt x="497" y="115" on="0"/>
        <pt x="515" y="72" on="0"/>
        <pt x="543" y="72" on="1"/>
      </contour>
    </TTGlyph>
    <TTGlyph name="uni00B9" xMin="25" yMin="320" xMax="159" yMax="698">
      <contour>
        <pt x="159" y="320" on="1"/>
        <pt x="77" y="320" on="1"/>
        <pt x="77" y="585" on="1"/>
        <pt x="66" y="582" on="1"/>
        <pt x="58" y="580" on="0"/>
        <pt x="39" y="575" on="0"/>
        <pt x="30" y="574" on="1"/>
        <pt x="25" y="639" on="1"/>
        <pt x="33" y="640" on="0"/>
        <pt x="55" y="652" on="0"/>
        <pt x="76" y="669" on="0"/>
        <pt x="92" y="689" on="0"/>
        <pt x="95" y="698" on="1"/>
        <pt x="159" y="698" on="1"/>
      </contour>
    </TTGlyph>
    <TTGlyph name="uni0237" xMin="-8" yMin="-242" xMax="162" yMax="493">
      <contour>
        <pt x="37" y="-239" on="1"/>
        <pt x="2" y="-242" on="1"/>
        <pt x="-8" y="-162" on="1"/>
        <pt x="14" y="-161" on="0"/>
        <pt x="40" y="-153" on="0"/>
        <pt x="55" y="-134" on="0"/>
        <pt x="60" y="-99" on="0"/>
        <pt x="60" y="-69" on="1"/>
        <pt x="60" y="493" on="1"/>
        <pt x="162" y="493" on="1"/>
        <pt x="162" y="-108" on="1"/>
        <pt x="162" y="-169" on="0"/>
        <pt x="91" y="-234" on="0"/>
      </contour>
    </TTGlyph>
    <TTGlyph name="uni2070" xMin="31" yMin="312" xMax="372" yMax="706">
      <contour>
        <pt x="198" y="312" on="1"/>
        <pt x="160" y="312" on="0"/>
        <pt x="99" y="340" on="0"/>
        <pt x="55" y="390" on="0"/>
        <pt x="31" y="461" on="0"/>
        <pt x="31" y="503" on="1"/>
        <pt x="31" y="547" on="0"/>
        <pt x="57" y="622" on="0"/>
        <pt x="103" y="676" on="0"/>
        <pt x="167" y="706" on="0"/>
        <pt x="205" y="706" on="1"/>
        <pt x="241" y="706" on="0"/>
        <pt x="302" y="677" on="0"/>
        <pt x="347" y="626" on="0"/>
        <pt x="372" y="554" on="0"/>
        <pt x="372" y="512" on="1"/>
        <pt x="372" y="468" on="0"/>
        <pt x="348" y="395" on="0"/>
        <pt x="303" y="342" on="0"/>
        <pt x="238" y="312" on="0"/>
      </contour>
      <contour>
        <pt x="204" y="635" on="1"/>
        <pt x="167" y="635" on="0"/>
        <pt x="112" y="567" on="0"/>
        <pt x="112" y="503" on="1"/>
        <pt x="112" y="443" on="0"/>
        <pt x="160" y="385" on="0"/>
        <pt x="199" y="385" on="1"/>
        <pt x="241" y="385" on="0"/>
        <pt x="292" y="446" on="0"/>
        <pt x="292" y="512" on="1"/>
        <pt x="292" y="572" on="0"/>
        <pt x="240" y="635" on="0"/>
      </contour>
    </TTGlyph>
    <TTGlyph name="uni2074" xMin="4" yMin="320" xMax="310" yMax="698">
      <contour>
        <pt x="310" y="423" on="1"/>
        <pt x="261" y="423" on="1"/>
        <pt x="261" y="320" on="1"/>
        <pt x="179" y="320" on="1"/>
        <pt x="179" y="423" on="1"/>
        <pt x="4" y="423" on="1"/>
        <pt x="191" y="698" on="1"/>
        <pt x="261" y="698" on="1"/>
        <pt x="261" y="485" on="1"/>
        <pt x="310" y="485" on="1"/>
      </contour>
      <contour>
        <pt x="179" y="485" on="1"/>
        <pt x="179" y="583" on="1"/>
        <pt x="112" y="485" on="1"/>
      </contour>
    </TTGlyph>
    <TTGlyph name="uni2075" xMin="25" yMin="313" xMax="279" yMax="698">
      <contour>
        <pt x="134" y="313" on="1"/>
        <pt x="115" y="313" on="0"/>
        <pt x="76" y="321" on="0"/>
        <pt x="44" y="332" on="0"/>
        <pt x="26" y="344" on="0"/>
        <pt x="25" y="348" on="0"/>
        <pt x="25" y="349" on="1"/>
        <pt x="44" y="422" on="1"/>
        <pt x="61" y="405" on="0"/>
        <pt x="107" y="390" on="0"/>
        <pt x="140" y="390" on="1"/>
        <pt x="166" y="390" on="0"/>
        <pt x="199" y="408" on="0"/>
        <pt x="201" y="440" on="1"/>
        <pt x="201" y="448" on="0"/>
        <pt x="196" y="466" on="0"/>
        <pt x="178" y="481" on="0"/>
        <pt x="143" y="491" on="0"/>
        <pt x="113" y="491" on="1"/>
        <pt x="45" y="491" on="1"/>
        <pt x="71" y="698" on="1"/>
        <pt x="258" y="698" on="1"/>
        <pt x="250" y="618" on="1"/>
        <pt x="132" y="618" on="1"/>
        <pt x="123" y="557" on="1"/>
        <pt x="204" y="556" on="0"/>
        <pt x="279" y="503" on="0"/>
        <pt x="279" y="443" on="1"/>
        <pt x="279" y="410" on="0"/>
        <pt x="256" y="362" on="0"/>
        <pt x="217" y="329" on="0"/>
        <pt x="164" y="313" on="0"/>
      </contour>
    </TTGlyph>
    <TTGlyph name="uni2076" xMin="31" yMin="312" xMax="299" yMax="698">
      <contour>
        <pt x="157" y="312" on="1"/>
        <pt x="100" y="312" on="0"/>
        <pt x="31" y="385" on="0"/>
        <pt x="31" y="461" on="1"/>
        <pt x="31" y="508" on="0"/>
        <pt x="68" y="594" on="0"/>
        <pt x="121" y="658" on="0"/>
        <pt x="181" y="697" on="0"/>
        <pt x="205" y="698" on="1"/>
        <pt x="259" y="667" on="1"/>
        <pt x="245" y="667" on="0"/>
        <pt x="198" y="636" on="0"/>
        <pt x="152" y="592" on="0"/>
        <pt x="118" y="547" on="0"/>
        <pt x="116" y="532" on="1"/>
        <pt x="131" y="547" on="0"/>
        <pt x="178" y="547" on="1"/>
        <pt x="232" y="547" on="0"/>
        <pt x="299" y="490" on="0"/>
        <pt x="299" y="438" on="1"/>
        <pt x="299" y="413" on="0"/>
        <pt x="279" y="367" on="0"/>
        <pt x="241" y="333" on="0"/>
        <pt x="189" y="312" on="0"/>
      </contour>
      <contour>
        <pt x="173" y="483" on="1"/>
        <pt x="110" y="483" on="0"/>
        <pt x="110" y="430" on="1"/>
        <pt x="110" y="410" on="0"/>
        <pt x="145" y="385" on="0"/>
        <pt x="165" y="385" on="1"/>
        <pt x="190" y="385" on="0"/>
        <pt x="224" y="418" on="0"/>
        <pt x="224" y="442" on="1"/>
        <pt x="224" y="458" on="0"/>
        <pt x="196" y="483" on="0"/>
      </contour>
    </TTGlyph>
    <TTGlyph name="uni2077" xMin="24" yMin="320" xMax="293" yMax="698">
      <contour>
        <pt x="293" y="698" on="1"/>
        <pt x="126" y="320" on="1"/>
        <pt x="40" y="320" on="1"/>
        <pt x="172" y="618" on="1"/>
        <pt x="24" y="618" on="1"/>
        <pt x="24" y="698" on="1"/>
      </contour>
    </TTGlyph>
    <TTGlyph name="uni2078" xMin="30" yMin="312" xMax="314" yMax="706">
      <contour>
        <pt x="166" y="312" on="1"/>
        <pt x="100" y="312" on="0"/>
        <pt x="30" y="373" on="0"/>
        <pt x="30" y="419" on="1"/>
        <pt x="30" y="479" on="0"/>
        <pt x="86" y="524" on="1"/>
        <pt x="52" y="548" on="0"/>
        <pt x="52" y="609" on="1"/>
        <pt x="52" y="652" on="0"/>
        <pt x="110" y="706" on="0"/>
        <pt x="174" y="706" on="1"/>
        <pt x="292" y="706" on="0"/>
        <pt x="292" y="617" on="1"/>
        <pt x="292" y="563" on="0"/>
        <pt x="251" y="528" on="1"/>
        <pt x="276" y="515" on="0"/>
        <pt x="314" y="461" on="0"/>
        <pt x="314" y="432" on="1"/>
        <pt x="314" y="409" on="0"/>
        <pt x="295" y="366" on="0"/>
        <pt x="258" y="332" on="0"/>
        <pt x="203" y="312" on="0"/>
      </contour>
      <contour>
        <pt x="172" y="647" on="1"/>
        <pt x="145" y="647" on="0"/>
        <pt x="123" y="620" on="0"/>
        <pt x="123" y="593" on="1"/>
        <pt x="123" y="579" on="0"/>
        <pt x="140" y="559" on="0"/>
        <pt x="169" y="551" on="1"/>
        <pt x="218" y="561" on="0"/>
        <pt x="218" y="601" on="1"/>
        <pt x="218" y="647" on="0"/>
      </contour>
      <contour>
        <pt x="174" y="497" on="1"/>
        <pt x="149" y="494" on="0"/>
        <pt x="106" y="456" on="0"/>
        <pt x="106" y="427" on="1"/>
        <pt x="106" y="402" on="0"/>
        <pt x="140" y="373" on="0"/>
        <pt x="169" y="373" on="1"/>
        <pt x="234" y="373" on="0"/>
        <pt x="234" y="428" on="1"/>
        <pt x="234" y="458" on="0"/>
        <pt x="199" y="493" on="0"/>
      </contour>
    </TTGlyph>
    <TTGlyph name="uni2079" xMin="21" yMin="320" xMax="290" yMax="706">
      <contour>
        <pt x="163" y="706" on="1"/>
        <pt x="221" y="706" on="0"/>
        <pt x="290" y="632" on="0"/>
        <pt x="290" y="557" on="1"/>
        <pt x="290" y="513" on="0"/>
        <pt x="258" y="428" on="0"/>
        <pt x="207" y="361" on="0"/>
        <pt x="144" y="320" on="0"/>
        <pt x="113" y="320" on="1"/>
        <pt x="64" y="351" on="1"/>
        <pt x="80" y="351" on="0"/>
        <pt x="129" y="377" on="0"/>
        <pt x="176" y="417" on="0"/>
        <pt x="209" y="465" on="0"/>
        <pt x="210" y="488" on="1"/>
        <pt x="190" y="471" on="0"/>
        <pt x="143" y="471" on="1"/>
        <pt x="118" y="471" on="0"/>
        <pt x="73" y="486" on="0"/>
        <pt x="40" y="513" on="0"/>
        <pt x="21" y="553" on="0"/>
        <pt x="21" y="577" on="1"/>
        <pt x="21" y="604" on="0"/>
        <pt x="42" y="651" on="0"/>
        <pt x="80" y="686" on="0"/>
        <pt x="132" y="706" on="0"/>
      </contour>
      <contour>
        <pt x="151" y="535" on="1"/>
        <pt x="214" y="535" on="0"/>
        <pt x="214" y="586" on="1"/>
        <pt x="214" y="634" on="0"/>
        <pt x="159" y="634" on="1"/>
        <pt x="133" y="634" on="0"/>
        <pt x="102" y="601" on="0"/>
        <pt x="102" y="580" on="1"/>
        <pt x="102" y="560" on="0"/>
        <pt x="127" y="535" on="0"/>
      </contour>
    </TTGlyph>
    <TTGlyph name="uni2080" xMin="44" yMin="-7" xMax="385" yMax="387">
      <component glyphName="uni2070" x="13" y="-319" flags="0x4"/>
    </TTGlyph>
    <TTGlyph name="uni2081" xMin="40" yMin="1" xMax="174" yMax="379">
      <component glyphName="uni00B9" x="15" y="-319" flags="0x4"/>
    </TTGlyph>
    <TTGlyph name="uni2082" xMin="37" yMin="1" xMax="288" yMax="387">
      <component glyphName="uni00B2" x="14" y="-319" flags="0x4"/>
    </TTGlyph>
    <TTGlyph name="uni2083" xMin="31" yMin="-7" xMax="289" yMax="387">
      <component glyphName="uni00B3" x="12" y="-319" flags="0x4"/>
    </TTGlyph>
    <TTGlyph name="uni2084" xMin="16" yMin="1" xMax="322" yMax="379">
      <component glyphName="uni2074" x="12" y="-319" flags="0x4"/>
    </TTGlyph>
    <TTGlyph name="uni2085" xMin="32" yMin="-6" xMax="286" yMax="379">
      <component glyphName="uni2075" x="7" y="-319" flags="0x4"/>
    </TTGlyph>
    <TTGlyph name="uni2086" xMin="44" yMin="-7" xMax="312" yMax="379">
      <component glyphName="uni2076" x="13" y="-319" flags="0x4"/>
    </TTGlyph>
    <TTGlyph name="uni2087" xMin="42" yMin="1" xMax="311" yMax="379">
      <component glyphName="uni2077" x="18" y="-319" flags="0x4"/>
    </TTGlyph>
    <TTGlyph name="uni2088" xMin="43" yMin="-7" xMax="327" yMax="387">
      <component glyphName="uni2078" x="13" y="-319" flags="0x4"/>
    </TTGlyph>
    <TTGlyph name="uni2089" xMin="32" yMin="1" xMax="301" yMax="387">
      <component glyphName="uni2079" x="11" y="-319" flags="0x4"/>
    </TTGlyph>
    <TTGlyph name="v" xMin="6" yMin="0" xMax="485" yMax="493">
      <contour>
        <pt x="485" y="493" on="1"/>
        <pt x="297" y="0" on="1"/>
        <pt x="195" y="0" on="1"/>
        <pt x="6" y="493" on="1"/>
        <pt x="114" y="493" on="1"/>
        <pt x="246" y="118" on="1"/>
        <pt x="377" y="493" on="1"/>
      </contour>
    </TTGlyph>
    <TTGlyph name="w" xMin="10" yMin="0" xMax="713" yMax="493">
      <contour>
        <pt x="713" y="493" on="1"/>
        <pt x="566" y="0" on="1"/>
        <pt x="464" y="0" on="1"/>
        <pt x="361" y="350" on="1"/>
        <pt x="258" y="0" on="1"/>
        <pt x="156" y="0" on="1"/>
        <pt x="10" y="493" on="1"/>
        <pt x="121" y="493" on="1"/>
        <pt x="212" y="117" on="1"/>
        <pt x="313" y="480" on="1"/>
        <pt x="409" y="480" on="1"/>
        <pt x="510" y="117" on="1"/>
        <pt x="602" y="493" on="1"/>
      </contour>
    </TTGlyph>
    <TTGlyph name="x" xMin="10" yMin="0" xMax="469" yMax="493">
      <contour>
        <pt x="469" y="0" on="1"/>
        <pt x="352" y="0" on="1"/>
        <pt x="239" y="175" on="1"/>
        <pt x="127" y="0" on="1"/>
        <pt x="10" y="0" on="1"/>
        <pt x="178" y="246" on="1"/>
        <pt x="13" y="493" on="1"/>
        <pt x="130" y="493" on="1"/>
        <pt x="242" y="318" on="1"/>
        <pt x="345" y="493" on="1"/>
        <pt x="465" y="493" on="1"/>
        <pt x="304" y="251" on="1"/>
      </contour>
    </TTGlyph>
    <TTGlyph name="y" xMin="4" yMin="-242" xMax="510" yMax="493">
      <contour>
        <pt x="510" y="493" on="1"/>
        <pt x="205" y="-242" on="1"/>
        <pt x="97" y="-242" on="1"/>
        <pt x="209" y="26" on="1"/>
        <pt x="4" y="493" on="1"/>
        <pt x="117" y="493" on="1"/>
        <pt x="262" y="144" on="1"/>
        <pt x="397" y="493" on="1"/>
      </contour>
    </TTGlyph>
    <TTGlyph name="yacute" xMin="4" yMin="-242" xMax="510" yMax="738">
      <component glyphName="y" x="0" y="0" flags="0x204"/>
      <component glyphName="acute" x="105" y="0" flags="0x4"/>
    </TTGlyph>
    <TTGlyph name="ydieresis" xMin="4" yMin="-242" xMax="510" yMax="700">
      <component glyphName="y" x="0" y="0" flags="0x204"/>
      <component glyphName="dieresis" x="45" y="0" flags="0x4"/>
    </TTGlyph>
</ttFont>
